<mxfile host="app.diagrams.net" agent="Mozilla/5.0 (Windows NT 10.0; Win64; x64) AppleWebKit/537.36 (KHTML, like Gecko) Chrome/130.0.0.0 Safari/537.36" version="24.8.1">
  <diagram id="R2lEEEUBdFMjLlhIrx00" name="Page-1">
    <mxGraphModel dx="2537" dy="925" grid="1" gridSize="10" guides="1" tooltips="1" connect="1" arrows="1" fold="1" page="1" pageScale="1" pageWidth="850" pageHeight="1100" math="0" shadow="0" extFonts="Permanent Marker^https://fonts.googleapis.com/css?family=Permanent+Marker">
      <root>
        <mxCell id="0" />
        <mxCell id="1" parent="0" />
        <mxCell id="IHwOswf_s_p_pypsUOWP-6" value="Product" style="whiteSpace=wrap;html=1;align=center;" vertex="1" parent="1">
          <mxGeometry x="305" y="700" width="100" height="40" as="geometry" />
        </mxCell>
        <mxCell id="IHwOswf_s_p_pypsUOWP-20" style="edgeStyle=orthogonalEdgeStyle;rounded=0;orthogonalLoop=1;jettySize=auto;html=1;entryX=0;entryY=0.5;entryDx=0;entryDy=0;endArrow=none;endFill=0;" edge="1" parent="1" source="IHwOswf_s_p_pypsUOWP-8" target="IHwOswf_s_p_pypsUOWP-19">
          <mxGeometry relative="1" as="geometry" />
        </mxCell>
        <mxCell id="IHwOswf_s_p_pypsUOWP-96" value="1" style="edgeLabel;html=1;align=center;verticalAlign=middle;resizable=0;points=[];" vertex="1" connectable="0" parent="IHwOswf_s_p_pypsUOWP-20">
          <mxGeometry x="0.8906" y="2" relative="1" as="geometry">
            <mxPoint as="offset" />
          </mxGeometry>
        </mxCell>
        <mxCell id="IHwOswf_s_p_pypsUOWP-21" style="edgeStyle=orthogonalEdgeStyle;rounded=0;orthogonalLoop=1;jettySize=auto;html=1;entryX=0;entryY=0.5;entryDx=0;entryDy=0;endArrow=none;endFill=0;" edge="1" parent="1" source="IHwOswf_s_p_pypsUOWP-8" target="IHwOswf_s_p_pypsUOWP-18">
          <mxGeometry relative="1" as="geometry" />
        </mxCell>
        <mxCell id="IHwOswf_s_p_pypsUOWP-95" value="1" style="edgeLabel;html=1;align=center;verticalAlign=middle;resizable=0;points=[];" vertex="1" connectable="0" parent="IHwOswf_s_p_pypsUOWP-21">
          <mxGeometry x="0.8644" relative="1" as="geometry">
            <mxPoint as="offset" />
          </mxGeometry>
        </mxCell>
        <mxCell id="IHwOswf_s_p_pypsUOWP-22" style="edgeStyle=orthogonalEdgeStyle;rounded=0;orthogonalLoop=1;jettySize=auto;html=1;entryX=0;entryY=0.5;entryDx=0;entryDy=0;endArrow=none;endFill=0;" edge="1" parent="1" source="IHwOswf_s_p_pypsUOWP-8" target="IHwOswf_s_p_pypsUOWP-17">
          <mxGeometry relative="1" as="geometry" />
        </mxCell>
        <mxCell id="IHwOswf_s_p_pypsUOWP-92" value="Role" style="edgeLabel;html=1;align=center;verticalAlign=bottom;resizable=0;points=[];" vertex="1" connectable="0" parent="IHwOswf_s_p_pypsUOWP-22">
          <mxGeometry x="-0.5499" y="3" relative="1" as="geometry">
            <mxPoint as="offset" />
          </mxGeometry>
        </mxCell>
        <mxCell id="IHwOswf_s_p_pypsUOWP-93" value="1" style="edgeLabel;html=1;align=center;verticalAlign=middle;resizable=0;points=[];" vertex="1" connectable="0" parent="IHwOswf_s_p_pypsUOWP-22">
          <mxGeometry x="-0.8851" y="1" relative="1" as="geometry">
            <mxPoint as="offset" />
          </mxGeometry>
        </mxCell>
        <mxCell id="IHwOswf_s_p_pypsUOWP-94" value="1" style="edgeLabel;html=1;align=center;verticalAlign=middle;resizable=0;points=[];" vertex="1" connectable="0" parent="IHwOswf_s_p_pypsUOWP-22">
          <mxGeometry x="0.8968" y="-1" relative="1" as="geometry">
            <mxPoint as="offset" />
          </mxGeometry>
        </mxCell>
        <mxCell id="IHwOswf_s_p_pypsUOWP-8" value="User" style="whiteSpace=wrap;html=1;align=center;" vertex="1" parent="1">
          <mxGeometry x="305" y="600" width="100" height="40" as="geometry" />
        </mxCell>
        <mxCell id="IHwOswf_s_p_pypsUOWP-17" value="Customer" style="whiteSpace=wrap;html=1;align=center;" vertex="1" parent="1">
          <mxGeometry x="500" y="660" width="100" height="40" as="geometry" />
        </mxCell>
        <mxCell id="IHwOswf_s_p_pypsUOWP-18" value="Partner" style="whiteSpace=wrap;html=1;align=center;" vertex="1" parent="1">
          <mxGeometry x="500" y="600" width="100" height="40" as="geometry" />
        </mxCell>
        <mxCell id="IHwOswf_s_p_pypsUOWP-19" value="Deliverer" style="whiteSpace=wrap;html=1;align=center;" vertex="1" parent="1">
          <mxGeometry x="500" y="540" width="100" height="40" as="geometry" />
        </mxCell>
        <mxCell id="IHwOswf_s_p_pypsUOWP-43" value="" style="strokeWidth=1;shadow=0;dashed=0;align=center;html=1;shape=mxgraph.mockup.containers.browserWindow;rSize=0;strokeColor=#666666;strokeColor2=#008cff;strokeColor3=#c4c4c4;mainText=,;recursiveResize=0;" vertex="1" parent="1">
          <mxGeometry x="1230" y="40" width="550" height="380" as="geometry" />
        </mxCell>
        <mxCell id="IHwOswf_s_p_pypsUOWP-44" value="Page 1" style="strokeWidth=1;shadow=0;dashed=0;align=center;html=1;shape=mxgraph.mockup.containers.anchor;fontSize=17;fontColor=#666666;align=left;whiteSpace=wrap;" vertex="1" parent="IHwOswf_s_p_pypsUOWP-43">
          <mxGeometry x="60" y="12" width="110" height="26" as="geometry" />
        </mxCell>
        <mxCell id="IHwOswf_s_p_pypsUOWP-45" value="https://www.draw.io" style="strokeWidth=1;shadow=0;dashed=0;align=center;html=1;shape=mxgraph.mockup.containers.anchor;rSize=0;fontSize=17;fontColor=#666666;align=left;" vertex="1" parent="IHwOswf_s_p_pypsUOWP-43">
          <mxGeometry x="130" y="60" width="250" height="26" as="geometry" />
        </mxCell>
        <mxCell id="IHwOswf_s_p_pypsUOWP-46" value="" style="strokeWidth=1;shadow=0;dashed=0;align=center;html=1;shape=mxgraph.mockup.containers.browserWindow;rSize=0;strokeColor=#666666;strokeColor2=#008cff;strokeColor3=#c4c4c4;mainText=,;recursiveResize=0;" vertex="1" parent="1">
          <mxGeometry x="1240" y="50" width="550" height="380" as="geometry" />
        </mxCell>
        <mxCell id="IHwOswf_s_p_pypsUOWP-47" value="Page 1" style="strokeWidth=1;shadow=0;dashed=0;align=center;html=1;shape=mxgraph.mockup.containers.anchor;fontSize=17;fontColor=#666666;align=left;whiteSpace=wrap;" vertex="1" parent="IHwOswf_s_p_pypsUOWP-46">
          <mxGeometry x="60" y="12" width="110" height="26" as="geometry" />
        </mxCell>
        <mxCell id="IHwOswf_s_p_pypsUOWP-48" value="https://www.draw.io" style="strokeWidth=1;shadow=0;dashed=0;align=center;html=1;shape=mxgraph.mockup.containers.anchor;rSize=0;fontSize=17;fontColor=#666666;align=left;" vertex="1" parent="IHwOswf_s_p_pypsUOWP-46">
          <mxGeometry x="130" y="60" width="250" height="26" as="geometry" />
        </mxCell>
        <mxCell id="IHwOswf_s_p_pypsUOWP-49" value="" style="strokeWidth=1;shadow=0;dashed=0;align=center;html=1;shape=mxgraph.mockup.containers.browserWindow;rSize=0;strokeColor=#666666;strokeColor2=#008cff;strokeColor3=#c4c4c4;mainText=,;recursiveResize=0;" vertex="1" parent="1">
          <mxGeometry x="1250" y="60" width="550" height="380" as="geometry" />
        </mxCell>
        <mxCell id="IHwOswf_s_p_pypsUOWP-50" value="Page 1" style="strokeWidth=1;shadow=0;dashed=0;align=center;html=1;shape=mxgraph.mockup.containers.anchor;fontSize=17;fontColor=#666666;align=left;whiteSpace=wrap;" vertex="1" parent="IHwOswf_s_p_pypsUOWP-49">
          <mxGeometry x="60" y="12" width="110" height="26" as="geometry" />
        </mxCell>
        <mxCell id="IHwOswf_s_p_pypsUOWP-51" value="https://www.draw.io" style="strokeWidth=1;shadow=0;dashed=0;align=center;html=1;shape=mxgraph.mockup.containers.anchor;rSize=0;fontSize=17;fontColor=#666666;align=left;" vertex="1" parent="IHwOswf_s_p_pypsUOWP-49">
          <mxGeometry x="130" y="60" width="250" height="26" as="geometry" />
        </mxCell>
        <mxCell id="IHwOswf_s_p_pypsUOWP-52" value="" style="strokeWidth=1;shadow=0;dashed=0;align=center;html=1;shape=mxgraph.mockup.containers.browserWindow;rSize=0;strokeColor=#666666;strokeColor2=#008cff;strokeColor3=#c4c4c4;mainText=,;recursiveResize=0;" vertex="1" parent="1">
          <mxGeometry x="80" y="800" width="550" height="380" as="geometry" />
        </mxCell>
        <mxCell id="IHwOswf_s_p_pypsUOWP-53" value="Page 1" style="strokeWidth=1;shadow=0;dashed=0;align=center;html=1;shape=mxgraph.mockup.containers.anchor;fontSize=17;fontColor=#666666;align=left;whiteSpace=wrap;" vertex="1" parent="IHwOswf_s_p_pypsUOWP-52">
          <mxGeometry x="60" y="12" width="110" height="26" as="geometry" />
        </mxCell>
        <mxCell id="IHwOswf_s_p_pypsUOWP-54" value="Home" style="strokeWidth=1;shadow=0;dashed=0;align=center;html=1;shape=mxgraph.mockup.containers.anchor;rSize=0;fontSize=17;fontColor=#666666;align=left;" vertex="1" parent="IHwOswf_s_p_pypsUOWP-52">
          <mxGeometry x="130" y="60" width="250" height="26" as="geometry" />
        </mxCell>
        <mxCell id="IHwOswf_s_p_pypsUOWP-55" value="Login" style="strokeWidth=1;shadow=0;dashed=0;align=center;html=1;shape=mxgraph.mockup.buttons.button;strokeColor=#666666;fontColor=#ffffff;mainText=;buttonStyle=round;fontSize=17;fontStyle=1;fillColor=#008cff;whiteSpace=wrap;" vertex="1" parent="IHwOswf_s_p_pypsUOWP-52">
          <mxGeometry x="220" y="150" width="130" height="50" as="geometry" />
        </mxCell>
        <mxCell id="IHwOswf_s_p_pypsUOWP-29" value="Register" style="strokeWidth=1;shadow=0;dashed=0;align=center;html=1;shape=mxgraph.mockup.buttons.button;strokeColor=#666666;fontColor=#ffffff;mainText=;buttonStyle=round;fontSize=17;fontStyle=1;fillColor=#008cff;whiteSpace=wrap;" vertex="1" parent="IHwOswf_s_p_pypsUOWP-52">
          <mxGeometry x="215" y="230" width="130" height="50" as="geometry" />
        </mxCell>
        <mxCell id="IHwOswf_s_p_pypsUOWP-81" value="Products" style="strokeWidth=1;shadow=0;dashed=0;align=center;html=1;shape=mxgraph.mockup.buttons.button;strokeColor=#666666;fontColor=#ffffff;mainText=;buttonStyle=round;fontSize=17;fontStyle=1;fillColor=#008cff;whiteSpace=wrap;" vertex="1" parent="IHwOswf_s_p_pypsUOWP-52">
          <mxGeometry x="20" y="200" width="150" height="50" as="geometry" />
        </mxCell>
        <mxCell id="IHwOswf_s_p_pypsUOWP-60" value="Username:&lt;div&gt;Password:&lt;/div&gt;" style="strokeWidth=1;shadow=0;dashed=0;align=center;html=1;shape=mxgraph.mockup.containers.rrect;rSize=0;strokeColor=#666666;fontColor=#666666;fontSize=17;verticalAlign=top;whiteSpace=wrap;fillColor=#ffffff;spacingTop=32;" vertex="1" parent="1">
          <mxGeometry x="675" y="810" width="250" height="140" as="geometry" />
        </mxCell>
        <mxCell id="IHwOswf_s_p_pypsUOWP-61" value="Login Dialog" style="strokeWidth=1;shadow=0;dashed=0;align=center;html=1;shape=mxgraph.mockup.containers.rrect;rSize=0;fontSize=17;fontColor=#666666;strokeColor=#666666;align=left;spacingLeft=8;fillColor=none;resizeWidth=1;whiteSpace=wrap;" vertex="1" parent="IHwOswf_s_p_pypsUOWP-60">
          <mxGeometry width="250" height="30" relative="1" as="geometry" />
        </mxCell>
        <mxCell id="IHwOswf_s_p_pypsUOWP-62" value="" style="shape=ellipse;strokeColor=#008cff;resizable=0;fillColor=none;html=1;" vertex="1" parent="IHwOswf_s_p_pypsUOWP-61">
          <mxGeometry x="1" y="0.5" width="20" height="20" relative="1" as="geometry">
            <mxPoint x="-25" y="-10" as="offset" />
          </mxGeometry>
        </mxCell>
        <mxCell id="IHwOswf_s_p_pypsUOWP-63" value="Cancel" style="strokeWidth=1;shadow=0;dashed=0;align=center;html=1;shape=mxgraph.mockup.containers.rrect;rSize=0;fontSize=16;fontColor=#666666;strokeColor=#c4c4c4;whiteSpace=wrap;fillColor=none;" vertex="1" parent="IHwOswf_s_p_pypsUOWP-60">
          <mxGeometry x="0.25" y="1" width="90" height="25" relative="1" as="geometry">
            <mxPoint x="-45" y="-33" as="offset" />
          </mxGeometry>
        </mxCell>
        <mxCell id="IHwOswf_s_p_pypsUOWP-64" value="OK" style="strokeWidth=1;shadow=0;dashed=0;align=center;html=1;shape=mxgraph.mockup.containers.rrect;rSize=0;fontSize=16;fontColor=#666666;strokeColor=#c4c4c4;whiteSpace=wrap;fillColor=none;" vertex="1" parent="IHwOswf_s_p_pypsUOWP-60">
          <mxGeometry x="0.75" y="1" width="90" height="25" relative="1" as="geometry">
            <mxPoint x="-45" y="-33" as="offset" />
          </mxGeometry>
        </mxCell>
        <mxCell id="IHwOswf_s_p_pypsUOWP-65" style="edgeStyle=orthogonalEdgeStyle;rounded=0;orthogonalLoop=1;jettySize=auto;html=1;entryX=0.018;entryY=0.57;entryDx=0;entryDy=0;entryPerimeter=0;" edge="1" parent="1" source="IHwOswf_s_p_pypsUOWP-55" target="IHwOswf_s_p_pypsUOWP-60">
          <mxGeometry relative="1" as="geometry" />
        </mxCell>
        <mxCell id="IHwOswf_s_p_pypsUOWP-66" value="..." style="strokeWidth=1;shadow=0;dashed=0;align=center;html=1;shape=mxgraph.mockup.containers.rrect;rSize=0;strokeColor=#666666;fontColor=#666666;fontSize=17;verticalAlign=top;whiteSpace=wrap;fillColor=#ffffff;spacingTop=32;" vertex="1" parent="1">
          <mxGeometry x="675" y="1020" width="250" height="140" as="geometry" />
        </mxCell>
        <mxCell id="IHwOswf_s_p_pypsUOWP-67" value="Register Dialog" style="strokeWidth=1;shadow=0;dashed=0;align=center;html=1;shape=mxgraph.mockup.containers.rrect;rSize=0;fontSize=17;fontColor=#666666;strokeColor=#666666;align=left;spacingLeft=8;fillColor=none;resizeWidth=1;whiteSpace=wrap;" vertex="1" parent="IHwOswf_s_p_pypsUOWP-66">
          <mxGeometry width="250" height="30" relative="1" as="geometry" />
        </mxCell>
        <mxCell id="IHwOswf_s_p_pypsUOWP-68" value="" style="shape=ellipse;strokeColor=#008cff;resizable=0;fillColor=none;html=1;" vertex="1" parent="IHwOswf_s_p_pypsUOWP-67">
          <mxGeometry x="1" y="0.5" width="20" height="20" relative="1" as="geometry">
            <mxPoint x="-25" y="-10" as="offset" />
          </mxGeometry>
        </mxCell>
        <mxCell id="IHwOswf_s_p_pypsUOWP-69" value="Cancel" style="strokeWidth=1;shadow=0;dashed=0;align=center;html=1;shape=mxgraph.mockup.containers.rrect;rSize=0;fontSize=16;fontColor=#666666;strokeColor=#c4c4c4;whiteSpace=wrap;fillColor=none;" vertex="1" parent="IHwOswf_s_p_pypsUOWP-66">
          <mxGeometry x="0.25" y="1" width="90" height="25" relative="1" as="geometry">
            <mxPoint x="-45" y="-33" as="offset" />
          </mxGeometry>
        </mxCell>
        <mxCell id="IHwOswf_s_p_pypsUOWP-70" value="OK" style="strokeWidth=1;shadow=0;dashed=0;align=center;html=1;shape=mxgraph.mockup.containers.rrect;rSize=0;fontSize=16;fontColor=#666666;strokeColor=#c4c4c4;whiteSpace=wrap;fillColor=none;" vertex="1" parent="IHwOswf_s_p_pypsUOWP-66">
          <mxGeometry x="0.75" y="1" width="90" height="25" relative="1" as="geometry">
            <mxPoint x="-45" y="-33" as="offset" />
          </mxGeometry>
        </mxCell>
        <mxCell id="IHwOswf_s_p_pypsUOWP-71" style="edgeStyle=orthogonalEdgeStyle;rounded=0;orthogonalLoop=1;jettySize=auto;html=1;entryX=0.015;entryY=0.642;entryDx=0;entryDy=0;entryPerimeter=0;" edge="1" parent="1" source="IHwOswf_s_p_pypsUOWP-29" target="IHwOswf_s_p_pypsUOWP-66">
          <mxGeometry relative="1" as="geometry" />
        </mxCell>
        <mxCell id="IHwOswf_s_p_pypsUOWP-82" value="" style="strokeWidth=1;shadow=0;dashed=0;align=center;html=1;shape=mxgraph.mockup.containers.browserWindow;rSize=0;strokeColor=#666666;strokeColor2=#008cff;strokeColor3=#c4c4c4;mainText=,;recursiveResize=0;" vertex="1" parent="1">
          <mxGeometry x="-72" y="1430" width="550" height="380" as="geometry" />
        </mxCell>
        <mxCell id="IHwOswf_s_p_pypsUOWP-83" value="Page 1" style="strokeWidth=1;shadow=0;dashed=0;align=center;html=1;shape=mxgraph.mockup.containers.anchor;fontSize=17;fontColor=#666666;align=left;whiteSpace=wrap;" vertex="1" parent="IHwOswf_s_p_pypsUOWP-82">
          <mxGeometry x="60" y="12" width="110" height="26" as="geometry" />
        </mxCell>
        <mxCell id="IHwOswf_s_p_pypsUOWP-84" value="Products" style="strokeWidth=1;shadow=0;dashed=0;align=center;html=1;shape=mxgraph.mockup.containers.anchor;rSize=0;fontSize=17;fontColor=#666666;align=left;" vertex="1" parent="IHwOswf_s_p_pypsUOWP-82">
          <mxGeometry x="130" y="60" width="250" height="26" as="geometry" />
        </mxCell>
        <mxCell id="IHwOswf_s_p_pypsUOWP-86" value="" style="strokeWidth=1;shadow=0;dashed=0;align=center;html=1;shape=mxgraph.mockup.containers.marginRect2;rectMarginTop=32;strokeColor=#666666;gradientColor=none;whiteSpace=wrap;" vertex="1" parent="IHwOswf_s_p_pypsUOWP-82">
          <mxGeometry x="40" y="120" width="400" height="200" as="geometry" />
        </mxCell>
        <mxCell id="IHwOswf_s_p_pypsUOWP-87" value="Cust." style="strokeColor=inherit;fillColor=inherit;gradientColor=inherit;strokeWidth=1;shadow=0;dashed=0;align=center;html=1;shape=mxgraph.mockup.containers.rrect;rSize=0;fontSize=17;fontColor=#666666;gradientColor=none;" vertex="1" parent="IHwOswf_s_p_pypsUOWP-86">
          <mxGeometry width="60" height="25" relative="1" as="geometry">
            <mxPoint x="10" as="offset" />
          </mxGeometry>
        </mxCell>
        <mxCell id="IHwOswf_s_p_pypsUOWP-88" value="Partner" style="strokeWidth=1;shadow=0;dashed=0;align=center;html=1;shape=mxgraph.mockup.containers.rrect;rSize=0;fontSize=17;fontColor=#ffffff;strokeColor=#008cff;fillColor=#008cff;" vertex="1" parent="IHwOswf_s_p_pypsUOWP-86">
          <mxGeometry width="60" height="25" relative="1" as="geometry">
            <mxPoint x="75" as="offset" />
          </mxGeometry>
        </mxCell>
        <mxCell id="IHwOswf_s_p_pypsUOWP-89" value="Del." style="strokeColor=inherit;fillColor=inherit;gradientColor=inherit;strokeWidth=1;shadow=0;dashed=0;align=center;html=1;shape=mxgraph.mockup.containers.rrect;rSize=0;fontSize=17;fontColor=#666666;gradientColor=none;" vertex="1" parent="IHwOswf_s_p_pypsUOWP-86">
          <mxGeometry width="60" height="25" relative="1" as="geometry">
            <mxPoint x="140" as="offset" />
          </mxGeometry>
        </mxCell>
        <mxCell id="IHwOswf_s_p_pypsUOWP-90" value="" style="strokeWidth=1;shadow=0;dashed=0;align=center;html=1;shape=mxgraph.mockup.containers.topButton;rSize=5;strokeColor=#008cff;fillColor=#008cff;gradientColor=none;resizeWidth=1;movable=0;deletable=1;" vertex="1" parent="IHwOswf_s_p_pypsUOWP-86">
          <mxGeometry width="400" height="7" relative="1" as="geometry">
            <mxPoint y="25" as="offset" />
          </mxGeometry>
        </mxCell>
        <mxCell id="IHwOswf_s_p_pypsUOWP-91" style="edgeStyle=orthogonalEdgeStyle;rounded=0;orthogonalLoop=1;jettySize=auto;html=1;entryX=0.37;entryY=-0.004;entryDx=0;entryDy=0;entryPerimeter=0;" edge="1" parent="1" source="IHwOswf_s_p_pypsUOWP-81" target="IHwOswf_s_p_pypsUOWP-82">
          <mxGeometry relative="1" as="geometry" />
        </mxCell>
        <mxCell id="IHwOswf_s_p_pypsUOWP-115" value="User" style="shape=table;startSize=30;container=1;collapsible=1;childLayout=tableLayout;fixedRows=1;rowLines=0;fontStyle=1;align=center;resizeLast=1;html=1;" vertex="1" parent="1">
          <mxGeometry x="975" y="900" width="220" height="210" as="geometry" />
        </mxCell>
        <mxCell id="IHwOswf_s_p_pypsUOWP-116" value="" style="shape=tableRow;horizontal=0;startSize=0;swimlaneHead=0;swimlaneBody=0;fillColor=none;collapsible=0;dropTarget=0;points=[[0,0.5],[1,0.5]];portConstraint=eastwest;top=0;left=0;right=0;bottom=1;" vertex="1" parent="IHwOswf_s_p_pypsUOWP-115">
          <mxGeometry y="30" width="220" height="30" as="geometry" />
        </mxCell>
        <mxCell id="IHwOswf_s_p_pypsUOWP-117" value="PK" style="shape=partialRectangle;connectable=0;fillColor=none;top=0;left=0;bottom=0;right=0;fontStyle=1;overflow=hidden;whiteSpace=wrap;html=1;" vertex="1" parent="IHwOswf_s_p_pypsUOWP-116">
          <mxGeometry width="30" height="30" as="geometry">
            <mxRectangle width="30" height="30" as="alternateBounds" />
          </mxGeometry>
        </mxCell>
        <mxCell id="IHwOswf_s_p_pypsUOWP-118" value="UniqueID" style="shape=partialRectangle;connectable=0;fillColor=none;top=0;left=0;bottom=0;right=0;align=left;spacingLeft=6;fontStyle=5;overflow=hidden;whiteSpace=wrap;html=1;" vertex="1" parent="IHwOswf_s_p_pypsUOWP-116">
          <mxGeometry x="30" width="190" height="30" as="geometry">
            <mxRectangle width="190" height="30" as="alternateBounds" />
          </mxGeometry>
        </mxCell>
        <mxCell id="IHwOswf_s_p_pypsUOWP-119" value="" style="shape=tableRow;horizontal=0;startSize=0;swimlaneHead=0;swimlaneBody=0;fillColor=none;collapsible=0;dropTarget=0;points=[[0,0.5],[1,0.5]];portConstraint=eastwest;top=0;left=0;right=0;bottom=0;" vertex="1" parent="IHwOswf_s_p_pypsUOWP-115">
          <mxGeometry y="60" width="220" height="30" as="geometry" />
        </mxCell>
        <mxCell id="IHwOswf_s_p_pypsUOWP-120" value="" style="shape=partialRectangle;connectable=0;fillColor=none;top=0;left=0;bottom=0;right=0;editable=1;overflow=hidden;whiteSpace=wrap;html=1;" vertex="1" parent="IHwOswf_s_p_pypsUOWP-119">
          <mxGeometry width="30" height="30" as="geometry">
            <mxRectangle width="30" height="30" as="alternateBounds" />
          </mxGeometry>
        </mxCell>
        <mxCell id="IHwOswf_s_p_pypsUOWP-121" value="User attributes..." style="shape=partialRectangle;connectable=0;fillColor=none;top=0;left=0;bottom=0;right=0;align=left;spacingLeft=6;overflow=hidden;whiteSpace=wrap;html=1;" vertex="1" parent="IHwOswf_s_p_pypsUOWP-119">
          <mxGeometry x="30" width="190" height="30" as="geometry">
            <mxRectangle width="190" height="30" as="alternateBounds" />
          </mxGeometry>
        </mxCell>
        <mxCell id="IHwOswf_s_p_pypsUOWP-122" value="" style="shape=tableRow;horizontal=0;startSize=0;swimlaneHead=0;swimlaneBody=0;fillColor=none;collapsible=0;dropTarget=0;points=[[0,0.5],[1,0.5]];portConstraint=eastwest;top=0;left=0;right=0;bottom=0;" vertex="1" parent="IHwOswf_s_p_pypsUOWP-115">
          <mxGeometry y="90" width="220" height="30" as="geometry" />
        </mxCell>
        <mxCell id="IHwOswf_s_p_pypsUOWP-123" value="" style="shape=partialRectangle;connectable=0;fillColor=none;top=0;left=0;bottom=0;right=0;editable=1;overflow=hidden;whiteSpace=wrap;html=1;" vertex="1" parent="IHwOswf_s_p_pypsUOWP-122">
          <mxGeometry width="30" height="30" as="geometry">
            <mxRectangle width="30" height="30" as="alternateBounds" />
          </mxGeometry>
        </mxCell>
        <mxCell id="IHwOswf_s_p_pypsUOWP-124" value="role (bit-flag)" style="shape=partialRectangle;connectable=0;fillColor=none;top=0;left=0;bottom=0;right=0;align=left;spacingLeft=6;overflow=hidden;whiteSpace=wrap;html=1;" vertex="1" parent="IHwOswf_s_p_pypsUOWP-122">
          <mxGeometry x="30" width="190" height="30" as="geometry">
            <mxRectangle width="190" height="30" as="alternateBounds" />
          </mxGeometry>
        </mxCell>
        <mxCell id="IHwOswf_s_p_pypsUOWP-125" value="" style="shape=tableRow;horizontal=0;startSize=0;swimlaneHead=0;swimlaneBody=0;fillColor=none;collapsible=0;dropTarget=0;points=[[0,0.5],[1,0.5]];portConstraint=eastwest;top=0;left=0;right=0;bottom=0;" vertex="1" parent="IHwOswf_s_p_pypsUOWP-115">
          <mxGeometry y="120" width="220" height="30" as="geometry" />
        </mxCell>
        <mxCell id="IHwOswf_s_p_pypsUOWP-126" value="" style="shape=partialRectangle;connectable=0;fillColor=none;top=0;left=0;bottom=0;right=0;editable=1;overflow=hidden;whiteSpace=wrap;html=1;" vertex="1" parent="IHwOswf_s_p_pypsUOWP-125">
          <mxGeometry width="30" height="30" as="geometry">
            <mxRectangle width="30" height="30" as="alternateBounds" />
          </mxGeometry>
        </mxCell>
        <mxCell id="IHwOswf_s_p_pypsUOWP-127" value="nullable deliverer attributes" style="shape=partialRectangle;connectable=0;fillColor=none;top=0;left=0;bottom=0;right=0;align=left;spacingLeft=6;overflow=hidden;whiteSpace=wrap;html=1;" vertex="1" parent="IHwOswf_s_p_pypsUOWP-125">
          <mxGeometry x="30" width="190" height="30" as="geometry">
            <mxRectangle width="190" height="30" as="alternateBounds" />
          </mxGeometry>
        </mxCell>
        <mxCell id="IHwOswf_s_p_pypsUOWP-144" value="" style="shape=tableRow;horizontal=0;startSize=0;swimlaneHead=0;swimlaneBody=0;fillColor=none;collapsible=0;dropTarget=0;points=[[0,0.5],[1,0.5]];portConstraint=eastwest;top=0;left=0;right=0;bottom=0;" vertex="1" parent="IHwOswf_s_p_pypsUOWP-115">
          <mxGeometry y="150" width="220" height="30" as="geometry" />
        </mxCell>
        <mxCell id="IHwOswf_s_p_pypsUOWP-145" value="" style="shape=partialRectangle;connectable=0;fillColor=none;top=0;left=0;bottom=0;right=0;editable=1;overflow=hidden;whiteSpace=wrap;html=1;" vertex="1" parent="IHwOswf_s_p_pypsUOWP-144">
          <mxGeometry width="30" height="30" as="geometry">
            <mxRectangle width="30" height="30" as="alternateBounds" />
          </mxGeometry>
        </mxCell>
        <mxCell id="IHwOswf_s_p_pypsUOWP-146" value="nullable partner attributes" style="shape=partialRectangle;connectable=0;fillColor=none;top=0;left=0;bottom=0;right=0;align=left;spacingLeft=6;overflow=hidden;whiteSpace=wrap;html=1;" vertex="1" parent="IHwOswf_s_p_pypsUOWP-144">
          <mxGeometry x="30" width="190" height="30" as="geometry">
            <mxRectangle width="190" height="30" as="alternateBounds" />
          </mxGeometry>
        </mxCell>
        <mxCell id="IHwOswf_s_p_pypsUOWP-147" value="" style="shape=tableRow;horizontal=0;startSize=0;swimlaneHead=0;swimlaneBody=0;fillColor=none;collapsible=0;dropTarget=0;points=[[0,0.5],[1,0.5]];portConstraint=eastwest;top=0;left=0;right=0;bottom=0;" vertex="1" parent="IHwOswf_s_p_pypsUOWP-115">
          <mxGeometry y="180" width="220" height="30" as="geometry" />
        </mxCell>
        <mxCell id="IHwOswf_s_p_pypsUOWP-148" value="" style="shape=partialRectangle;connectable=0;fillColor=none;top=0;left=0;bottom=0;right=0;editable=1;overflow=hidden;whiteSpace=wrap;html=1;" vertex="1" parent="IHwOswf_s_p_pypsUOWP-147">
          <mxGeometry width="30" height="30" as="geometry">
            <mxRectangle width="30" height="30" as="alternateBounds" />
          </mxGeometry>
        </mxCell>
        <mxCell id="IHwOswf_s_p_pypsUOWP-149" value="nullable customer attributes" style="shape=partialRectangle;connectable=0;fillColor=none;top=0;left=0;bottom=0;right=0;align=left;spacingLeft=6;overflow=hidden;whiteSpace=wrap;html=1;" vertex="1" parent="IHwOswf_s_p_pypsUOWP-147">
          <mxGeometry x="30" width="190" height="30" as="geometry">
            <mxRectangle width="190" height="30" as="alternateBounds" />
          </mxGeometry>
        </mxCell>
        <mxCell id="IHwOswf_s_p_pypsUOWP-150" value="Product" style="shape=table;startSize=30;container=1;collapsible=1;childLayout=tableLayout;fixedRows=1;rowLines=0;fontStyle=1;align=center;resizeLast=1;html=1;" vertex="1" parent="1">
          <mxGeometry x="1395" y="900" width="180" height="210" as="geometry" />
        </mxCell>
        <mxCell id="IHwOswf_s_p_pypsUOWP-151" value="" style="shape=tableRow;horizontal=0;startSize=0;swimlaneHead=0;swimlaneBody=0;fillColor=none;collapsible=0;dropTarget=0;points=[[0,0.5],[1,0.5]];portConstraint=eastwest;top=0;left=0;right=0;bottom=1;" vertex="1" parent="IHwOswf_s_p_pypsUOWP-150">
          <mxGeometry y="30" width="180" height="30" as="geometry" />
        </mxCell>
        <mxCell id="IHwOswf_s_p_pypsUOWP-152" value="PK" style="shape=partialRectangle;connectable=0;fillColor=none;top=0;left=0;bottom=0;right=0;fontStyle=1;overflow=hidden;whiteSpace=wrap;html=1;" vertex="1" parent="IHwOswf_s_p_pypsUOWP-151">
          <mxGeometry width="30" height="30" as="geometry">
            <mxRectangle width="30" height="30" as="alternateBounds" />
          </mxGeometry>
        </mxCell>
        <mxCell id="IHwOswf_s_p_pypsUOWP-153" value="UniqueID" style="shape=partialRectangle;connectable=0;fillColor=none;top=0;left=0;bottom=0;right=0;align=left;spacingLeft=6;fontStyle=5;overflow=hidden;whiteSpace=wrap;html=1;" vertex="1" parent="IHwOswf_s_p_pypsUOWP-151">
          <mxGeometry x="30" width="150" height="30" as="geometry">
            <mxRectangle width="150" height="30" as="alternateBounds" />
          </mxGeometry>
        </mxCell>
        <mxCell id="IHwOswf_s_p_pypsUOWP-154" value="" style="shape=tableRow;horizontal=0;startSize=0;swimlaneHead=0;swimlaneBody=0;fillColor=none;collapsible=0;dropTarget=0;points=[[0,0.5],[1,0.5]];portConstraint=eastwest;top=0;left=0;right=0;bottom=0;" vertex="1" parent="IHwOswf_s_p_pypsUOWP-150">
          <mxGeometry y="60" width="180" height="30" as="geometry" />
        </mxCell>
        <mxCell id="IHwOswf_s_p_pypsUOWP-155" value="" style="shape=partialRectangle;connectable=0;fillColor=none;top=0;left=0;bottom=0;right=0;editable=1;overflow=hidden;whiteSpace=wrap;html=1;" vertex="1" parent="IHwOswf_s_p_pypsUOWP-154">
          <mxGeometry width="30" height="30" as="geometry">
            <mxRectangle width="30" height="30" as="alternateBounds" />
          </mxGeometry>
        </mxCell>
        <mxCell id="IHwOswf_s_p_pypsUOWP-156" value="Product attributes..." style="shape=partialRectangle;connectable=0;fillColor=none;top=0;left=0;bottom=0;right=0;align=left;spacingLeft=6;overflow=hidden;whiteSpace=wrap;html=1;" vertex="1" parent="IHwOswf_s_p_pypsUOWP-154">
          <mxGeometry x="30" width="150" height="30" as="geometry">
            <mxRectangle width="150" height="30" as="alternateBounds" />
          </mxGeometry>
        </mxCell>
        <mxCell id="IHwOswf_s_p_pypsUOWP-157" value="" style="shape=tableRow;horizontal=0;startSize=0;swimlaneHead=0;swimlaneBody=0;fillColor=none;collapsible=0;dropTarget=0;points=[[0,0.5],[1,0.5]];portConstraint=eastwest;top=0;left=0;right=0;bottom=0;" vertex="1" parent="IHwOswf_s_p_pypsUOWP-150">
          <mxGeometry y="90" width="180" height="30" as="geometry" />
        </mxCell>
        <mxCell id="IHwOswf_s_p_pypsUOWP-158" value="" style="shape=partialRectangle;connectable=0;fillColor=none;top=0;left=0;bottom=0;right=0;editable=1;overflow=hidden;whiteSpace=wrap;html=1;" vertex="1" parent="IHwOswf_s_p_pypsUOWP-157">
          <mxGeometry width="30" height="30" as="geometry">
            <mxRectangle width="30" height="30" as="alternateBounds" />
          </mxGeometry>
        </mxCell>
        <mxCell id="IHwOswf_s_p_pypsUOWP-159" value="" style="shape=partialRectangle;connectable=0;fillColor=none;top=0;left=0;bottom=0;right=0;align=left;spacingLeft=6;overflow=hidden;whiteSpace=wrap;html=1;" vertex="1" parent="IHwOswf_s_p_pypsUOWP-157">
          <mxGeometry x="30" width="150" height="30" as="geometry">
            <mxRectangle width="150" height="30" as="alternateBounds" />
          </mxGeometry>
        </mxCell>
        <mxCell id="IHwOswf_s_p_pypsUOWP-160" value="" style="shape=tableRow;horizontal=0;startSize=0;swimlaneHead=0;swimlaneBody=0;fillColor=none;collapsible=0;dropTarget=0;points=[[0,0.5],[1,0.5]];portConstraint=eastwest;top=0;left=0;right=0;bottom=0;" vertex="1" parent="IHwOswf_s_p_pypsUOWP-150">
          <mxGeometry y="120" width="180" height="30" as="geometry" />
        </mxCell>
        <mxCell id="IHwOswf_s_p_pypsUOWP-161" value="" style="shape=partialRectangle;connectable=0;fillColor=none;top=0;left=0;bottom=0;right=0;editable=1;overflow=hidden;whiteSpace=wrap;html=1;" vertex="1" parent="IHwOswf_s_p_pypsUOWP-160">
          <mxGeometry width="30" height="30" as="geometry">
            <mxRectangle width="30" height="30" as="alternateBounds" />
          </mxGeometry>
        </mxCell>
        <mxCell id="IHwOswf_s_p_pypsUOWP-162" value="" style="shape=partialRectangle;connectable=0;fillColor=none;top=0;left=0;bottom=0;right=0;align=left;spacingLeft=6;overflow=hidden;whiteSpace=wrap;html=1;" vertex="1" parent="IHwOswf_s_p_pypsUOWP-160">
          <mxGeometry x="30" width="150" height="30" as="geometry">
            <mxRectangle width="150" height="30" as="alternateBounds" />
          </mxGeometry>
        </mxCell>
        <mxCell id="IHwOswf_s_p_pypsUOWP-163" value="" style="shape=tableRow;horizontal=0;startSize=0;swimlaneHead=0;swimlaneBody=0;fillColor=none;collapsible=0;dropTarget=0;points=[[0,0.5],[1,0.5]];portConstraint=eastwest;top=0;left=0;right=0;bottom=0;" vertex="1" parent="IHwOswf_s_p_pypsUOWP-150">
          <mxGeometry y="150" width="180" height="30" as="geometry" />
        </mxCell>
        <mxCell id="IHwOswf_s_p_pypsUOWP-164" value="" style="shape=partialRectangle;connectable=0;fillColor=none;top=0;left=0;bottom=0;right=0;editable=1;overflow=hidden;whiteSpace=wrap;html=1;" vertex="1" parent="IHwOswf_s_p_pypsUOWP-163">
          <mxGeometry width="30" height="30" as="geometry">
            <mxRectangle width="30" height="30" as="alternateBounds" />
          </mxGeometry>
        </mxCell>
        <mxCell id="IHwOswf_s_p_pypsUOWP-165" value="" style="shape=partialRectangle;connectable=0;fillColor=none;top=0;left=0;bottom=0;right=0;align=left;spacingLeft=6;overflow=hidden;whiteSpace=wrap;html=1;" vertex="1" parent="IHwOswf_s_p_pypsUOWP-163">
          <mxGeometry x="30" width="150" height="30" as="geometry">
            <mxRectangle width="150" height="30" as="alternateBounds" />
          </mxGeometry>
        </mxCell>
        <mxCell id="IHwOswf_s_p_pypsUOWP-166" value="" style="shape=tableRow;horizontal=0;startSize=0;swimlaneHead=0;swimlaneBody=0;fillColor=none;collapsible=0;dropTarget=0;points=[[0,0.5],[1,0.5]];portConstraint=eastwest;top=0;left=0;right=0;bottom=0;" vertex="1" parent="IHwOswf_s_p_pypsUOWP-150">
          <mxGeometry y="180" width="180" height="30" as="geometry" />
        </mxCell>
        <mxCell id="IHwOswf_s_p_pypsUOWP-167" value="" style="shape=partialRectangle;connectable=0;fillColor=none;top=0;left=0;bottom=0;right=0;editable=1;overflow=hidden;whiteSpace=wrap;html=1;" vertex="1" parent="IHwOswf_s_p_pypsUOWP-166">
          <mxGeometry width="30" height="30" as="geometry">
            <mxRectangle width="30" height="30" as="alternateBounds" />
          </mxGeometry>
        </mxCell>
        <mxCell id="IHwOswf_s_p_pypsUOWP-168" value="" style="shape=partialRectangle;connectable=0;fillColor=none;top=0;left=0;bottom=0;right=0;align=left;spacingLeft=6;overflow=hidden;whiteSpace=wrap;html=1;" vertex="1" parent="IHwOswf_s_p_pypsUOWP-166">
          <mxGeometry x="30" width="150" height="30" as="geometry">
            <mxRectangle width="150" height="30" as="alternateBounds" />
          </mxGeometry>
        </mxCell>
        <mxCell id="IHwOswf_s_p_pypsUOWP-170" value="Note&lt;div&gt;ASP.Net Identity has its own way with roles to do this...&lt;/div&gt;" style="shape=note;strokeWidth=2;fontSize=14;size=20;whiteSpace=wrap;html=1;fillColor=#fff2cc;strokeColor=#d6b656;fontColor=#666600;" vertex="1" parent="1">
          <mxGeometry x="1155" y="860" width="110.00000000000001" height="80" as="geometry" />
        </mxCell>
        <mxCell id="IHwOswf_s_p_pypsUOWP-173" style="edgeStyle=orthogonalEdgeStyle;rounded=0;orthogonalLoop=1;jettySize=auto;html=1;entryX=0.03;entryY=-0.062;entryDx=0;entryDy=0;entryPerimeter=0;" edge="1" parent="1" source="IHwOswf_s_p_pypsUOWP-170" target="IHwOswf_s_p_pypsUOWP-160">
          <mxGeometry relative="1" as="geometry" />
        </mxCell>
        <mxCell id="IHwOswf_s_p_pypsUOWP-174" value="deliverer" style="edgeLabel;html=1;align=center;verticalAlign=middle;resizable=0;points=[];" vertex="1" connectable="0" parent="IHwOswf_s_p_pypsUOWP-173">
          <mxGeometry x="-0.1207" y="-1" relative="1" as="geometry">
            <mxPoint as="offset" />
          </mxGeometry>
        </mxCell>
        <mxCell id="IHwOswf_s_p_pypsUOWP-175" style="edgeStyle=orthogonalEdgeStyle;rounded=0;orthogonalLoop=1;jettySize=auto;html=1;entryX=-0.012;entryY=0.095;entryDx=0;entryDy=0;entryPerimeter=0;startArrow=ERone;startFill=0;endArrow=ERmany;endFill=0;" edge="1" parent="1" source="IHwOswf_s_p_pypsUOWP-170" target="IHwOswf_s_p_pypsUOWP-150">
          <mxGeometry relative="1" as="geometry" />
        </mxCell>
        <mxCell id="IHwOswf_s_p_pypsUOWP-176" value="partner" style="edgeLabel;html=1;align=center;verticalAlign=middle;resizable=0;points=[];" vertex="1" connectable="0" parent="IHwOswf_s_p_pypsUOWP-175">
          <mxGeometry x="-0.379" y="1" relative="1" as="geometry">
            <mxPoint as="offset" />
          </mxGeometry>
        </mxCell>
        <mxCell id="IHwOswf_s_p_pypsUOWP-177" style="edgeStyle=orthogonalEdgeStyle;rounded=0;orthogonalLoop=1;jettySize=auto;html=1;entryX=-0.002;entryY=0.113;entryDx=0;entryDy=0;entryPerimeter=0;" edge="1" parent="1" source="IHwOswf_s_p_pypsUOWP-170" target="IHwOswf_s_p_pypsUOWP-157">
          <mxGeometry relative="1" as="geometry" />
        </mxCell>
        <mxCell id="IHwOswf_s_p_pypsUOWP-178" value="customer" style="edgeLabel;html=1;align=center;verticalAlign=middle;resizable=0;points=[];" vertex="1" connectable="0" parent="IHwOswf_s_p_pypsUOWP-177">
          <mxGeometry x="-0.1039" relative="1" as="geometry">
            <mxPoint as="offset" />
          </mxGeometry>
        </mxCell>
        <mxCell id="IHwOswf_s_p_pypsUOWP-179" value="Note&lt;div&gt;A Partner &#39;sells&#39; many products&lt;/div&gt;&lt;div&gt;A product can only belong to one partner&lt;/div&gt;&lt;div&gt;--&lt;/div&gt;&lt;div&gt;A Customer has no relationship with a product&lt;/div&gt;&lt;div&gt;--&lt;/div&gt;&lt;div&gt;A deliverer has no relationship with a product&lt;/div&gt;" style="shape=note;strokeWidth=2;fontSize=14;size=20;whiteSpace=wrap;html=1;fillColor=#fff2cc;strokeColor=#d6b656;fontColor=#666600;" vertex="1" parent="1">
          <mxGeometry x="1195" y="1130" width="415" height="170" as="geometry" />
        </mxCell>
        <mxCell id="IHwOswf_s_p_pypsUOWP-180" value="Note&amp;nbsp;&lt;div&gt;A Customer Buys the product&lt;/div&gt;&lt;div&gt;An order is created&lt;/div&gt;&lt;div&gt;A Partner Assigns the order to a Deliverer&lt;/div&gt;&lt;div&gt;A Deliverer Delivers the Product&lt;/div&gt;" style="shape=note;strokeWidth=2;fontSize=14;size=20;whiteSpace=wrap;html=1;fillColor=#fff2cc;strokeColor=#d6b656;fontColor=#666600;" vertex="1" parent="1">
          <mxGeometry x="230" y="1700" width="415" height="170" as="geometry" />
        </mxCell>
        <mxCell id="IHwOswf_s_p_pypsUOWP-181" value="" style="shape=image;verticalLabelPosition=bottom;labelBackgroundColor=default;verticalAlign=bottom;aspect=fixed;imageAspect=0;image=data:image/png,iVBORw0KGgoAAAANSUhEUgAAA/kAAANJCAYAAABXj/x5AAAAAXNSR0IArs4c6QAAAARnQU1BAACxjwv8YQUAAAAJcEhZcwAADsMAAA7DAcdvqGQAAP+lSURBVHhe7N0HfBTXuT7+Z3e16r333lcNIYpAiGKa6WDTmwtObMeO4yS/OHZu4pbce/O/uddxjzu2AZvgQhyaqcY0gwHTLIFAEggJCaHey+7sf2Y1Ao0aEs3S6vl+PNZOOWfOvEg7886cmVEFBoUa0QlXF0eUlVfJYzfmVtTh7+eN/IIieezG9JVtYTyUGA8lxkOJ8VBiPJQYDyXGQ+lm62AslBgPJcZDifFQYjyUGA+lOxUPtfyTiIiIiIiIiPo5JvlEREREREREZoJJPhEREREREZGZYJJPREREREREZCaY5BMRERERERGZCSb5RERERERERGaCST4RERERERGRmWCST0RERERERGQmmOQTERERERERmQkm+URERERERERmgkk+ERERERERkZlQJSUlGeXPfZKtrS3q6urkMWI8lBgPJcZDifFQYjyUGA8lxuMaxkKJ8VBiPJQYDyXGQ4nxULpT8VAFBoV2muS7ujiirLxKHrsxt6IOfz9v5BcUyWM3pq9sC+OhxHgoMR5KjIcS46HEeCgxHko3WwdjocR4KDEeSoyHEuOhxHgo3al4sLs+ERERERERkZlgkk9ERERERERkJpjkExEREREREZkJJvlEREREREREZoJJPhEREREREZGZYJJPREREREREZCaY5BMRERERERGZCSb5RERERERERGaCST4RERERERGRmWCST0RERERERGQmmOQTERERERERmQlVYFCoUf6s4OriiLLyKnnsxtyKOvz9vJFfUCSP3Zi+si2MhxLjocR4KDEeSoyHEuOhxHgo3WwdjIUS46HEeCgxHkpSPNLT0+UxGmje+WKd6addY6cp9h37e2GS30OMhxLjocR4KDEeSoyHEuOhxHgo9YU6GAslxkOJ8VBiPJSkeEhJ/t69e+UpNBBkFhfioTlz+0ySz+76RERERERERGaCST4RERERERGRmVCNGDGi874ERERERERE1Cvsrj/wtO+uH+XuZfr5U+E9+T3EeCgxHkqMhxLjocR4KDEeSoyHUl+og7FQYjyUGA8lxkNJigeT/IGH9+QTERERERER0W3BJJ+IiIiIiOg20motERERdd3B189fLnHrCYId3IOj4O9mLX62h+/gMYj3tZPnkjlhkk9ERERERHSbqFRqPPHk7zB4SCqiYuIx9q5J0MUnmT5LQ+qI0eK84abPCxYtRdqo0XLJWy0QyTMXYeIgX8AuDqnpYzEqNRpaQYB1cDrGjB8BXwtBXrZ/6K/tvt2Y5BMREREREd0mrm5uaGiox5dffoFt27bC1tYGe/ftNX2WhvKKcmTn5Jg+r/1kLRITB8klb6PaQ9jy6cf4bMsPaFarYeUVC11CDNws5Pn9RH9t9+2mcXJ2eU7+rGBjY4X6hkZ57MbcijocHe1RVV0jj92YvrItjIcS46HEeCgxHkqMhxLjocR4KN1sHYyFEuOhxHgoMR5KUjyCgoKQl5cnTxGnOTgiKWkwBqekICVlCHz9fBEeHo7ByYNN46FhoQgODkZiQiLCIyKg0Whw6OABuXQnbIIw6K6ZGD16HAbFx8BDU4L8ggoIKhUE2MAvZRrGjp2EIYMT4G2hguvQ2RjpfgU/XtAiPDUOjleO42i2I4bMmoxYiwKU+c/F3Uk+sLa0h3tYPKKcKsRlyyAIFnBPuNtU17BhgxHiaY3qojxUN8vt6IQgBGPEkkVItFfBOWkSRo8YhmA3PYrzjAgdNxPpo+9CUqQ3jMXZuFLXcvVdsPCCbvQsjBk3UWzzIAS5qVB28SLqBJVpflfb6z78wV63u7V9CfZquCZPxdgxiVCfPYKiRnldN6iktgaDY3Q4mplhGrc0mH50cKf+Xngln4iIiIiI6DZqEJOyf65daxquFF/BV1/96+p4xo8ZOLD/gOnz9m1fyyU6JwjOSJq1DCMinFCTl4VLNY4IG7MAo8JtxHkqeKetwMz0ODg0XERBYT08hk/HkBAvuDjayDW0soGDuzjdwQqNlRdRXN0kTmtAReEFXCqrEesC3Ic9gHsnJMFFfwkX8ythHTYes+ZOgqe6u67xLfUGDZsInWMdSiq18EmciZkPiG0O1KKquBRqz0EYPX0s3MWVmLZnzgqMTQyAujwXeUXNcNFNxcxJ8bBond/F9t5Yu1vaFyi2L8G9GVcuFqC6i4S8P2OST0REREREdBsZjQaUlZeZBr2+GRUVFVfH6+vrUVNbY/pcVVUtl+iCJgj+3hZoyt6KjVv/je2frcT2PQdR2GAJWCVg6GB3GM5twNp1n2HX16vwyb9/QN11LlJXnt6GQ9kV4qdyZO/+N/acLBTrisfw4X7QZ36OT8S6dm9dg3Ubj6HRNRUpMdqWgt1Qle/Hv1atwdeff4yjl9WwtyvG/jUfYNumj7H1eDlUzsHwdxQX1BhRknUIR7a9h7Wff4YdX72HA9l6WAVEwFuqqJvtrcz4+obbran4Dp+/+x6+3vQ1smvNLyVmkk9ERERERNQfGM4jr6AJljHzcN/SpbgrPQJ1GfuQeaka8PCDh5g0F50/Db26Jc3T555GwY1cqXYX69IaIbgPwdR7l2P6nKWYmuILI1RwdfOSF+paw6U8lJvaUIHaWvFH3RWU1JtmoaKqTPy/FbSWYjJqrMSljKPIN0Zi5NSluGfpYxgVZgHY2MFOKt7d9srbqNDDdtfn56Css/Jmwny3jIiIiIiIyIyo1ZU49vlb+HrfcZQYPRCWMh33rHgCE2IcAQsLaMR0trm57U3zAoQbSfLFDFwr1iUYBBgFeTBUojgnC1ekpP06jMbuuvRfI2iCMUpM7GdOGo1QVzXqS3OQc+naPevdbm9netxuo/zTPDHJJyIiIiIi6gcErQv8I4LQmPkVNqz5O95965/IqndG5KAE2JZeQbmY3vkGhEg377cUcA+Al2XLx+tTQ6ORP0p1GdWoydqADetXm4avNu5C5pkDOHiqUF7oFvCJR6STCgW7X8PHqz/Gpk3bUNRsLc/sfnttWrfxp2h3H8ckn4iIiIiI6Dapra2Fq5s7tNrr38vu7eOD2ro6eawT1lFInTwDk6dNQ1y0DjHxcfCyAxrLSlBXdRSnzjXAOmYKJg5PRkTMSEyaNhKuqus/Ob62phpGeCEibTTig5yA6qM4drYe3sMX464hSQiLTkHarMWYfPe9SPa5hSlkTSVqjSo4hwxBVGQSUsYvxrDgNu/D62Z7pd7/P1m7+zgm+URERERERLdJjZiIfndgL5789a/x9NPPwNnZBY/94nHTZ2kYPHgwpk6Zavp8113jsPHfX8olO1H5HbZv+wHVTikYM3U+xqVFAOe/waZdGVBrGpH59Wp8d0GN4JGzMfHuu+BbdQzZ5dfvmt6UuR37c+vgqhuPUSnhsBJT6LNfr8S3OUaxrlm4e+oMJHnW49w3q/BNjjOCkoYivpMh2s9KrrGHyvZh595zEPzTMX7aLKSEGZF/XrpnX9bN9kr35Pem3btzunn3n5lRBQaFdvqv7uriiLLyKnnsxtyKOvz9vJFfUCSP3Zi+si2MhxLjocR4KDEeSoyHEuOhxHgo3WwdjIUS46HEeCgxHkpSPNLT07F37155yu0hqLSwdbCDqq4S9fpO0jmtA+w1daip88CIFY8gruhTvL0pU57ZOan3u4W1mKQ31UNocy1YUFnBwV6Lxpoq6I1qCOpBmPmrWQjqpIdA9ZF38eE3efJYL1jYw8nWgKqKWhg7eSBed9vb03bfTpnFhXhozly888U607hdY+cnVu7U3wuv5BMREREREfUjamMzGqoqOk/wJc3VqGkwiEmvxbX71a9Dyq2FpkZFoixRGxtRW11zLVHWH8fm1/4Tb736lw7Dmj03kOBL9DWorKrvNMGXdLe9PW73ADLwtpiIiIiIiGhA0KO29BKuVHRzn38vqdUC9GJS3dzZcCNP8qdbTpWUlNTF6Z++wdbWFnXdPXxigGE8lBgPJcZDifFQYjyUGA8lxuMaxkKJ8VBiPJQYDyUpHneiuz71Le276wfYOph+tnen/l54T34PMR5KjIcS46HEeCgxHkqMhxLjodQX6mAslBgPJcZDifFQkuLBJH/g6Wv35DPJ7yHGQ4nxUGI8lMwpHosWzpM/EVFn2h7QmMv3B79LlRgPJcZDifFQkuLBJH/gYZLfS/ziUGI8lBgPJcZD6VbEQ0ryuaMm6qizAxpz+f7gd6kS46HEeCgxHkpSPKQknwYWaV/IJL8X+MWhxHgoMR5KjIfSrYgHk3yizjHJ7565xELCeCgxHkqMh5IUD9OV/AMH5Sk0EGQW5vWpJJ9P1yciIiIiIiIyE0zyiYiIiIiIiMwEk3wiIiIiIqLbSKu1RER45HUHXz8/uQTRjWOST0REREREdJuoVGo89tgv4eLsCo3GAtOmTUesLg7hEREdhvlzFyAtbZRckujGMMknIjITpqsEEVHXHXz9/OUS1yfAEZ6hUQhwt5Gn3DxBsICTXxSCfJyhEgR5agvBwhW+4vq8HG9s93S1bl8XaNrXbeeDoNBwuForpxMREd1Orm6uyM3JwfETx5Gbm4v8gnzs3LUdmzdv7DCsWvUREuIT5JJEN4ZJPhGRGZCuEjzx5O8weEgqomLiMfauSdDFJ5k+S0PqiNHivOGmzwsWLUXaqNFyye6pA8dg+qxFmDFtJFzbJc03zgmRdy3CtPnLMNzPUp4mc0zAaHF9IyJs5Qndsw5Ox5jxI+Br0do2ue5xCbCTp1wVkI5ps+Yh0UseJyIiugMs1Bo0NTXKY91r1jdDLS7flmC0RuSEFZiS5C5Pod4QjCoEpQYiwr7zJ95fz82W/ykwySciMgOubm5oaKjHl19+gW3btsLW1gZ79+01fZaG8opyZOfkmD6v/WQtEhMHySW7JghqBMfFwlpM7gXXBET73NpdhkrjjkF3T4K3ps3JA4OA3uxCrbxioUuIgZuFPIGIiMjMOPnHIcjXG15BOkSHesLZNx7RwW5QGVv2mIKtHyJjI+Fi44nQ2DC4OgYgIj4ZUcEesGyzVxWMGjj4xCA2IRHBHnaAXN7cqdWWiBobijjTOZK28VDBss21BkElzpOGVqbPxi7L92VM8omIzICFRgOthRYPP/yIafDx9cWyZcuvjg9OGYwJEyaYPs+YObPDVYJOaWMRE2aDymO7ca7RCZG6YCnzl2eKbIIwaNIyzH/gSSxZdj/uSvaHVjohIAQjdfGjmJaagsHTVmDRg09g7r2zkeSr7PJvrK5EtdMQjB8bAYvWeo1i+ZZPJlL3e7f4qZgy/zEseeARzJyUBl/5Er3nsAcwLclT/OSDwQsew/zRES0zeqqL9ku6W2/r9k1JHYZhM36GJT9/AEmOYrlu6iMiIrpRToHx8LYFrNyjoAv3gdotAWMnj0KgnMm5xk3BhGHBsLCOxvAJszFn/jwMixuMYVMewsKpibATk3nBaIXA0eL43GkYnDQGkxc+gtnJHuJ+t38krTcjdk4KxvrZYNgDabhvhLUYC8B7ZAL+8F+j8NtnxuCFp6IRa2+EZbgOzz8fDX8xuRc0zlj4l3RMD1B1KN8fMMknIjITDQ2N+OfatabhSvEVfPXVv66OZ/yYgQP7D5g+b9/2tVyie9bRSQjUViI781uczamHXfQg+MvnBgTBGUmzlmFEhBNq8rJwqcYRYWMWYFS4lMjbwMHdC4HDxQMJ90ZczruIRicdRs57CKleqpYKJCV7sPNICRzjZ2JUiHwCQEzyWw83pPzYXUzk752QBBf9JVzMr4R12HjMmjsJnmoBjZUXUVzdJC7ZgIrCC7hUVtNSsAe6a//11nt1+4ZNRIJ7M65cLEBVs2s38SAiIrpxefs/xckSoPr0V/h863GUnD6JixbhCAvSiAmrC8LDvVB++gdcNu1irVF5/AOsWvM2Pvp0LxrDxyNFTFThnorRScCJtS/hww9fxsodF+ExcjTCBkA2eOqzg9iRX4/v3t6LlfsbxVgEY/kMFTa8uBt/fnYX3shwx/LZbmg6k4G157yxYIId/KfqEHrkBDbkGTuW7weY5BMRmQmj0YCy8jLToNc3o6Ki4up4fX09amprTJ+rqqrlEl0TBDtExYbBoioD2YV65GWdRZN1DGLC5X5tmiD4e1ugKXsrNm79N7Z/thLb9xxEYYM4X74qoKo7hs0ff4gd277A+o++wnmjGxJHDIJl61UDlYDLez/H0VIHxE6ajiBLMYEWjNeu5FvFY/hwP+gzP8cn6z7D7q1rsG7jMTS6piIlRovK09twKLtCXLAc2bv/jT0nC1vK9UR37beM63a9rTQV3+Hzd9/D15u+xrmGburj1XwiIrqVmn5EVq4aIZFhUDvrEO5ehNMZxfLMcuTnlor7WBWE0ixcrLKFh5cjLH184Gy0R8TEFViy7GHMSfGDWuMBVxe52ABiGeMOvzogZFIkZs6OxBAXA7ShrvBQiQn9ugyUjkrF40llWLW+AkYxjv0Rk3wiIurIMQGR/mo0llTDMigcPoZylApWCInRtXStN5xHXkGTuKOch/uWLsVd6RGoy9iHzEvVpgMLSfPFM7hokHczjWdwocAIjYcP3FqmiFmyGip9AQ5u3o0S23iMmxgPG4PhWpLv7gcPrZj0uw/B1HuXY/qcpZia4gsjVHB1u8mn53XXfg//Hq23Pj8HZWp5+7qrr3UZIiKiW0CtMuBcZhbUIdGIj4mGa+EJZErnvE2sYW0rJ6Yqe1hbifvjZj0EvR5GYwnOHtqNgwfEYf8WbNu4Hdk97wRnNtRqFYwNDSjIr8YlacjIxeovLqNWnq+ysIBVP3/WD488iIioAxddInzEnaB12CTMmncfZt8zBr4aFbShiYiwkXaQlTj2+Vv4et9xlBg9EJYyHfeseAITYhzlGgCjoe0VbD2amwyAhRZX95sqtWknZLj8DbbtL4Bl5HSMi27zTHytJbRiai1ID+MT5MFQieKcLFxp3RN3IB7IiKuR1tP+qQMW4k5bXBsM4vxu29/j9V67j7En8SAiooGptq4OAQGBPbr93dfX17S8UjOamo2wcw+Ep7OtqcecPvcEsoUYpCZ74GLmSdRfveJsg+D4ZLjZO8E7aTCCtUW4mFcL/cVzyBc84ONmRGVxERo9hiA9xR8WzXIxsybGy2AJe+eWGDWcKUOxlzX0Jwpx5HARfqyzQYCNAXVGNeLn6+C17wBePyl14XeG2vSPpizfH6iSkpJ68Ov207G1tUVdh1/0gYvxUGI8lBgPpVsRj8mTJ2Pv3r3yWN/l5eWN2XPm4YOVK03jjzzyCFatXoVquWv+xImTUHS5CCeOH4ezkxPmzZuHV1/5X9O89gTxICD1gceQoj6Cr7ccw9WT/J6pmDouBqU7/xdf/GgB/7BQaC4dwcUqcZ6NDhOWzkNkzTa893EJ0n+9EBEVu7H6g+2oUKshIAzjH12GmPKteG9VJuLvfwJDm7/Ge6v3osE03w0pCx9BqocKejEZL979P/j8dDzm/mwysOf/8PnhSlMTBK0vIsKtUZqTi4pGI5yGPYwlIw3Y99ZbOFbbct46aNLTmBZTin3vv41jUttEgmCFiBlPYnLEZXzz+ns4aXTruv1f6jH14bu7XG9ZfTQmP7kA/j9+iPe358jzXbqs7/1V36LeDK/mZxYX4qE5c/HOF+tM4wG2Dqaf5oDfpUqMhxLjocR4KEnxSE9Px94DB+UpLcaOvQtpI9Og0XT/4NvKqiqsWbMKl8V9dltWwRMw7a4UeDUewJqPd6EMKviP/RVmx13C1rfW4myzCoJrOpYsjUXtBWv4BtlDZShHzrfrsPX4ZejF5Z0iJmPSuGR42ajQVFWAjN1rsS+nXl6DeXMbmYTHZ7miePMBvLajAYF3DcKDk+zQUGWEjbYOO948ggNOOvxpqYB3/5SJ8xauWPJ8HGre3oOvzivLv7GzY8wyC/N6tE+8U38vqsCg0E6TfFcXR5SVy0dHN+hW1OHv5438AuUveW/1lW1hPJQYDyXGQ6mvxGPRwnn9Ism3t3fAL3/1//DKKy+jubm52yQ/OjoagwcPxvvvvmma14HXJCxdPALN+1/Fp9+VyBPFRBZBGPvzB6Cr3oYPv2rG5BVT4Fr8PQ4czYXBMQ6DR8bCOvMTvL0RmCwl+Ro9yjJ34WhODewj0pESaY+8TS9hY4Ytht33SwzVb8NKMQGubU2AnYZh9rIp8LNUoeCb/w+ff9/ckpgHV+H0wf04X20Br/ixGBSgQuYX/4ud5w2w0C3GzyaF4MqPu3H69AmcvCAm5e6jMHfxeLjVn0fm8QyUNFrAOTAZunA31J1YhU+3ZqHJaQTmPnh3F+3PQcTMX3e53u05kR2TfIfhXdb37qYM6VK/aTlz0j7Jt2s0ms33B79LlRgPJcZDifFQkuLRWZJ/KwjQQKvSo1lQQa2yQcyMxzGy+V94f9NpCNI9+KYkPwjH3/gYZ7Rikl9fjWaj8uqzYFTD2laLproGMRPsP1embwVBrYKlUYBejomg0sDJzojqakOPYtG+fFvtk3xpn9iZO/X3Yn5HHUREA1BNTTW+O7AXT/7613j66Wfg7OyCx37xuOmzNEhJ/dQpU02f77prHDb++0u5pJJ0u72vLh6OxkvIymx9iE8LNS7gzJkKqLwTEaU9gO3bfkC1UwrGTJ2PcWkRwPlvsGmXmNDKO8qKrKOoDhiHCdPmYFioBgX7VmNHRpv+7nJ3/asqD2LHnmw0yf0Z1epGnP16Jb7NMSJ45CzcPXUGkjzrce6bVdid09K/sClzO/bn1sFVNx6jUsJbXuFXvAcbPt+G3AZv6EZOwdi7JiExRIui7/+Jr3ZmQS8l3JXfddl+tabpuuvtoJv6zDHBJyKiO08t3XImJZjSieUnfoOxPhexb09Lgn+NBhoLI/R1NR0SfIlaJaCpvnHAJfgStSDGpU1M1EYDqmvEA58exqJ9+b6MV/J7iPFQYjyUGA8lc4pHf7mS/1MRVFrYOthBVVeJen3L7kQQYkxXuj2O/AMf7y0W59tCX10J/U2cVxZUVnCw16KxpkrcwSrrkU5MWEhPFmqqh9BuHWpLZzjaNqOqorrDPEln7W+ru/V25nr1mRNeye+eucRCwngoMR5KjIeSFI/bdSW/laC2g7uHPepLilBvuJZ0Su929w2wQ21ePqqFgZfE/5R4JZ+IiMyG2tiMhqqKThNajYWF6apDQ3X1TSX4ErWxEbXVNZ0m2tKFcqGpsfMkvqkCFRW1nc6TdNd+SXfr7cz16iMiIrpZaqEWZZcvKxJ8idpQgaLzBUzwiUk+ERHdanWoLL6Eslq9PE5EREREdwqTfCIiuqXU6gs4+Mlb2PB9oTyFiIiIiO4UJvlEREREREREZoJJPhEREREREZGZ4NP1e4jxUGI8lBgPJXOKh/R0fSLqSHqCMJ+u3zVziYWE8VBiPJQYDyUpHrf76frU9/S1p+szye8hxkOJ8VBiPJTMKR6mV+hxR03UQWcHNOby/cHvUiXGQ4nxUGI8lKR4dJbka7WWCA4Klse6Vltfi0sFBfIY9Rd8hR4REREREdEAoVKp8dhjv4SLsys0GgtMmzYdsbo4hEdEdBjmz12AtLRRckmiG8Mkn4iIiIiI6DZxdXNFbk4Ojp84jtzcXOQX5GPnru3YvHljh2HVqo+QEJ8glyS6MUzyiYh6SepyFxEeed3B189PLkFEREQDlYVag6amRnmse836ZqjF5enWEYwqBKUGIsK+8y7013Oz5X8KTPKJiHqBXe6IiIjoThK0XgiNDYOrgw+CYpMRHeQOC2NLwimobOHqr4MuMQlB7raAOL11eTenAITrEhDoaiMewNjBIzQRuthQOGquJauCUQMHnxjEJiQi2MPOVN7cqNWWiBobijh3aazttqtgaSmPiASVOE8aWpk+G7ss35cxySci6oWb7XInwAX+ukT4tDkbLO1gXUMHIcJL3DnfpNb6fR3kCTJ730TEBjjLY0RERNRvOERh+IRZmDVvCdJT0pA+82e4d4SvmJR6Y9j8X2DB9HGI043CpIUrMC5MTOhbl793LoaljMeURUsxbc4DmJGeiuQxC7Fg1hDYSScDjFYIHP0QFs6dhsFJYzB54SOYnexhdol+7JwUjPWzwbAH0nDfCGtxuwHvkQn4w3+Nwm+fGYMXnopGrHhcZhmuw/PPR8NfTO4FjTMW/iUd0wNUHcr3B0zyiYh64aa73KkDMWj8ZMSK+9BrbBA0ZCpGRLnJ4zfBVP90TJ+SCuc2Z5vd4iZibGKAPEbmbiB2TSQiMm+WKP7uNXz44Sv4/PsyuMXEw9NKi4aLB7Hlo1fwyeo3sDvXDuFRIfLFZg0K9r6Gj1e+g0MlngjUfI81H7yJ1VszAP8oBGnFRdxTMToJOLH2JbHel7Fyx0V4jByNMDPLEE99dhA78uvx3dt7sXK/eAznHozlM1TY8OJu/PnZXXgjwx3LZ7uh6UwG1p7zxoIJdvCfqkPokRPYkGfsWL4fUCUlJfXpPbitrS3q6urkMWI8lBgPJcZD6VbEY/LkyYrX4Hh5emHw4BTs2LHTND5j5gxs+Xozqqs6vsrE2dkZSxYvw2uvvyJPEZMndSJmPj4ZdV/9N3bkqlqmGe0xeMGvkFD4IT789qK4jBP8I0LhbCxFfm4eqppNi4nLaeDkG4kAD0vUFZ7D+eIaCJbeCI+wR+UlPdyDXFBxVsDQh6YjwCjgyoF3se5QsXSPAQIn/AbTrbbi9Q0nTV373P1C4OOmRU1BFi5cqb1WT0ETXPxd0FR4FnnlaniEhMPTuhoXz2SjytDa3o7tkNZBfYjKChOfToXdml348rxpgmmylLxbWxnR1GQaNXVNNB3LidNNpK6J0lGByrrT8m21f11QgG277iP9GL9LlRgPJcZDifFQkuLR/hV6N33s4JqOJUsjcPr9d3G0WgUhYg4emyBgw2sbUBc7ErqwIPh6ecDJ3gaai5vwj2/sMX/ZteWjpv0H0hvX4p1tZyF43IVliwJx6t33cSpkEX4+1g9VFTUwSCtS28LRuQ5HPn4T35eZz35dMFpg4jNpsP94F9bnq2CRloL/u6sZ24/XtZwPcXTH2JAr+MtzZ3HF1hMPPpOAyOZL+MdfMnBBPPZpX74zPd0n3qm/F74nv4cYDyXGQ4nxUDKneLR/T/7tTvI/2Ctg5KJliLe6gvJGJ7jZnMe2jz/D2XprBI6+H1OSHFBf0QQ7Zy0u71mJz8/HYsmyIbCps4ChKR/HN56E/+IxqD9aiKAkF5z49F18f0WA//jfYKb1Vry6qQTD5i3BEJcGlFYCTm4qnNv4NrZXDBUPIMR6aoxo0AMODjXIL7SCl0MzmmzdYHP5a6z+7HtUo/N2fHn0irhHMZ8Dgv4u9p6RWDrOEarSKpzechjv72uEb1oC7p/qDFWTGtb1Rfj09Uxk+ejwx6UGvPPsaeSpXbD4xXjUvLkH2UOV5Tu7csH35HfPXGIhYTyUGA8lxkNJisftSvIz33sXP9SISWe4mORPFLBxox4TZoai6Pt9OFN4BdroORhr8+3VJL91+a6S/BMB8/DweDsc3XYQV6QsX9qPG5tQnncWZU3mm+Rbpg/B/6RW4aMd4oFQq8Za/HiiCnVikr/iT8mIa87Dy8/feJLP9+QTEdE1zmEIcavEia/exdqP38aWI5dhsNF02aUu3PQtrkHhnlewcuUqHDGdeVej/uxGfJNth5RJY+GpNkIwCNKCgJUFu/YNAAOxayIRUV9VW1eHgIDAHt3q7uvra1q+JzR2drDUl+DC6SwUN3kj2N9entMz+ovnkC94wMfNiMriIjR6DEF6ij8s5B6E5sMIvcES9s4tCXrDmTIUe1lDf6IQRw4X4cc6GwTYGFBnVCN+vg5e+w7g9ZPSftIZatM/mrJ8f8DDMiKivqQ0ExkF1kie/yQWzhkLt8pM5JcZYOnjA2ejPSImrsCSZQ9jToof1BoPuDqaCqGoQDwguHolXQW1qhZnt2/EOavhGD8yUNxJyUl+3WUUlqoQMGY5Fj/4K4wN1UBrbQMpf5fqKb7UKJatRm0N0FxeinqxTn1lFepgCUsrdN0OF1MF1EdZxrjDT/wVCZkUiZmzIzHExQBtqCs8VGJCvy4DpaNS8XhSGVatr4CRPTKIiG6pmppqZJ3NwlNP/Q5PP/00dLE6/ObJ3+K5Z1/oMEyaNAWbNm2QS3ZPf3oPDpV4Y9SyJ7B4ZjIsxfX0Ss0P2LX1JDRxczD//kdxd5QKWYcOorj1Fi4zoVYZcHJfMcKXj8Oj42yAohx8uEGDWS+m46k/pOH381xQeqEWltExmB9WhNUbK3F2/SmcS07AtBDpmKpd+X6AST4R0Z0k1KOh2QI2dmLGfJUdbMR9RkNDrbgjuYKjn72GNf/+BufK7RA75QGMi7SAoNfDaCzB2UO7cfCAOOzfgm0btyNbPtmvvDqgFhNv8f9NWfhmxzFYJM3AMO+WBwCqgydh1sREOJT9iMM71+HbLDGbb+N6Vxm6bIeyGupj1GoVjA0NKMivxiVpyMjF6i8uo1aer7KwkDp5EBHRbbJr1w68+Ofn8dzzf+p2eOmlv+HyZWV3bnXZt1jz8numrvem8XNf4I031iNPuIRDa/+Od94VhzffxPpPX8brXx6FoVy5/JkNfzZ11Zeor+zAqpc/wLFaKXkFqs9twT/f+m+88/bf8M77H2BfTr1pOXNTuu8Y/vTULry9q07cbiPydx7Fs7/fjzde3o/nnj2CPZdV0Gdl4E9/PI08oxib5nKseWYPvjI9l0ZZvj9gkk9E1As33eXOmIfc8w0IHDITCcFecHb1Q9Sou6FzKEFubhngNRqLHpqH0IZsnD7+I67UW8HFxanrLnV6ud52Wi/GNuZ+jR2nxGrl1/Np7GzZtW9AGHhdE4mIBiK1SkBzbQ2aO3lAak9JdTTVN7bpEWie1IK4b2vTS0FtNKC6Rujxdrcv35cxySci6oWb7XKnVjUga+c/8d0VDwyf8RCWLHsA42NUyNq6Dt8XGyEUHcGR8zZImPs47ls2DT6V+7DnWGmXXeoud3qyQWO6ki9Rq/S4+O1XOFnRsmDzmb3s2jcADMSuiURERNSCT9fvIcZDifFQYjyUzCke7Z+uf0tpbOFgI6Cmur7DfdCC2hZ2lo2or9crzjALRjWsbbVoqmu44TPuUh1W9rZAbfUNn/m/Fe2g209Qq2BpFK5eeRBUGjjZGVFdbejRv1v78m3x6frdM5dYSBgPJcZDifFQkuLR/un6ZP74dH0iImphqEN1TUOnDzpTC3Wob+iYiN2KLnXs2jdwDKSuiURERNSCST4RERERERGRmWCST0RERERERGQmmOQTERERERERmQkm+URERERERLeRVmuJiPDI6w6+fn5yCaIbxySfiIiIiIjoNlGp1HjssV/CxdkVGo0Fpk2bjlhdHMIjIjoM8+cuQFraKLkk0Y1hkk9ERERERHSbuLq5IjcnB8dPHEdubi7yC/Kxc9d2bN68scOwatVHSIhPkEt2ToAL/HVx8LLp+Jo2QeuFMF0UXDWdv8KNBgYm+URERERERLeJhVqDpqZGeax7zfpmqMXl2xKM1oicsAJTktxbJqgDMWj8OIQ7towqOERh2Pg0BNnI4yTGT4Wg1EBE2N/YiY+bLf9TYJJPRNRLKo0VLN0Srg4hIbyvjoiIiG4PJ/84BPl6wytIh+hQT2iNUrJpgGDhiWBdMmLCfWGj6lkCKl3pD40Ng6uDD4JikxEd5A4LU33iPJUtXP110CUmIcjdFhCnty7v5hSAcF0CAl1txAMhO3iEJkIXGwrHNj0GBKMGDj4xiE1IRLCHnal8X6BWWyJqbCjiTOdI2rZXBUtLeUQkSDFsG0fTZ2OX5fsy1YgRI/pHS4mIfgLp6enYe+CgPCZSqeE24v9QX5YNfVMFnILGIQZfws7KIC9wTXRUNL4/fAh79+6RpxCZj8zCPDw0Zy7e+WKdaTzK3cv0k4hooGt/7ODl6YXBg1OwY8dO0/iMmTOw5evNqK6qMo235ezsjCWLl+G111+RpwD+qfdjbJIf7JqKceXiQWzcZsSEX06CZ50AfV0l9PYesKncg/Vr96DYZTSWLI1A5nvv4ocalVzDNYJrujh/CKxr1GhuboSNsz2qvv8Aa74zYtj8pRji0oDSSsDJTYVzG9/G9oqhpuVtaoxo0AMODjXIL7SCl0MzmmzdYHP5a6z+7HtUwxqBo+/HlCQH1Fc0wc5Zi8t7VuLLo1fEY6eO7biTYu8ZiaXjHKEqrcLpLYfx/r5G+KYl4P6pzlA1qWFdX4RPX89Elo8Of1xqwDvPnkae2gWLX4xHzZt7kD1UWX7l/o69MvraPlEVGBTaaZLv6uKIsvKOv3i9cSvq8PfzRn5BkTx2Y/rKtjAeSoyHEuOh1FfisWjhPMWOWmPrDYe4X+LMjv80jUdN+BOqfvgvCI3lpvG2PNw9MHfuPLzx5uvyFHHnChcE6gIh5B3HpWp5osjeNxGBmgvIuFghT7n9pLPzEZHOKD99GiXaYCQP9kLhoYO43HxzO2NB5YqgWD805pxAUb2raXsNF46hUD7YkM70u4clwK32DM5erjNNu1F9KZ4DTfsDGrtGo9l8f/C7VInxUGI8lBgPJSketzrJF4w2SJ73G+guvYvV+4ogqBMx8/HpcPvxE3y87RyabZIwY8UUYNfL+KowpQdJ/khUbf87vjpVD48RD2NBTA7WrsmEz+AQ1B7bjXM1FoiZ/juMNqzHP77zwJJlw1G25e/YdNoKKQufwHBhOz5YewCNEXOwYqot9r6+CqecxmLp4mhkr30X+4v0sI2bj2Vj9djx+mfINv60Sb5gtMDEZ9Jg//EurM9XQXALxtO/c8Km547huHgY4jtjFJ50zsD/+7AMcfeNxpSi77HGehDu157Cf35WAQO0ivKd6Wyf2Jk79ffC7vpERL2gUlnAaGiSx7rX2X11LffRTcf0KalwbtPlyy1uIsYmBshjd0jb+/YcAhARHQsfh5ZZN8cfiePHIdJZ/Gja3smI9WiZ08IGQUOmYkSUmzx+E/pSPPuQgXj/IRHRwGLApQs5MEhXyevP4EKRBu6envK86ynGpbw6qMWiV0qKYbS2hW1dIQpLVQgYsxyLH/wVxoZqoLW2EdNbSSmKLzWKy1ejtkY8vikvRb24Xn1lFepgCUsrwNLHB85Ge0RMXIElyx7GnBQ/qDUeYkJqqqBPsYxxh5+Y3IdMisTM2ZEY4iKm8aGu8FAZcWpdBkpHpeLxpDKsWl8B40/cC+FGMcknIrrjjNB4jcGEIeLOWL5fzWgUTD8lpnvafGMQG5+AIA/7q8tcvS/OOQhRiUnwcvDs+X1yndxnp1BxFkcO7MOFSnFZGx+ExyYius0Q5dPydJ+u7rcTjFZwDoiHLj4O/mKTDe2q746gdoJv1CDERgbCseVowqSzdbWPgY+1tKLrxNNM7zHszkC8/5CIaGBRw9raWv5sCxvxo76HD/eTXN2VyT9VIZMxa2IiHMp+xOGd6/BtlpjNt3G9XZ+g14vLlODsod04eEAc9m/Bto3bka2spk9Qq1UwNjSgIL8al6QhIxerv7iMWnm+ysICVhbySD/FJJ+I6I6rRtYP5+A4fDaGeLZc6RfknaeULAeNfQgL50xCQvxIjF/wMO4d7g+1tHd1iMLwCbMwa+4CpCbp4OsR3TJ+71wMSxmPKYuWYtqcBzAjPRXJYxZiwawhsJMSWrUPhs3/BRZMH4c43ShMWrgC48LaPXbXVHc6gqXJ9mGISx6GxMQU6BJGIX3CdIyIcjW1LXC02La50zA4aQwmL3wEs5M9IAjWiJj4kKn++Lh0TJk/Hr4ttV6XoPbDyEWPYlraYOiGzsWi++5BmJi4d7Uu2LeLgZizdxvPrra9NZbXi11X7bje0c5PLHZOCsb62WDYA2m4b4S1KR7eIxPwh/8ahd8+MwYvPBWNWHsjLMN1eP75aPiLyb2gccbCv6RjeoCqQ3kiIrpxtXV1CAgI7NGuw9fX17S8UjOamo2wcw+Ep3PriXoVvGOHw9fBAW6RqYhwrcbFC8Uti98AjZ0dLPUluHA6C8VN3giWztj3gv7iOeQLHvBxM6KyuAiNHkOQnuIPi2Z5gZ+UEXqDJeydW67KN5wpQ7GXNfQnCnHkcBF+rLNBgI0BdUY14ufr4LXvAF4/6Y7ls51bjr/ale8PmOQTEd1xatSf3Yhvsu2QMmksPNVigmWQrzy7pyI9QYvTX76KT9e8iY+35MJ56ATEXe1Gr0HhnlewcuUqHDHdbq5Bwd7X8PHKd3CoxBOBmu+x5oM3sXprBuAfhSDpyriVBRouHsSWj17BJ6vfwO5cO4RHhUj7rE6pr+zF+lVv45M1H+NAkQB1zUns/C7X1LbRScCJtS/hww9fxsodF+ExcjTCvUcgNdaIk1+8ijVr3sDqw1dg1dP9oHMYQtwqceKrd7H247ex5chlGGzERL2rdZn2Wm1iUCatqJt4drvtPYhdF+0I6+N7z1OfHcSO/Hp89/belgcEuQdj+QwVNry4G39+dhfeyJAOXtzQdCYDa895Y8EEO/hP1SH0yAlsyDN2LE9ERDespqYaWWez8NRTv8PTTz8NXawOv3nyt3ju2Rc6DJMmTcGmTRvkki3UKj2yjx1CqftduHfaULT0gK9HuT4K0x54AosmR6L2+69w4KLeNEdihDN8o+MR1W7wM50c70h/eo+4L/TGqGVPYPHMZFiKbe6Vmh+wa+tJaOLmYP79j+LuKBWyDh1E8U98P75ErTLg5L5ihC8fh0fH2QBFOfhwgwazXkzHU39Iw+/nuaD0Qi0so2MwP6wIqzdW4uz6UziXnIBpIaqO5fsBJvlERHectMOoxdntG3HOajjGjwyEWu5ebuXrC+em88gpaNlRN+Rk4RJ84OXVupMsRVFBnVjFtfHr3SeHusvd3GfXNYfomZgcb8CxjRtwoUHV5f12HsE+cGo4j9xCg9gOoDYnR2xVD5VmIqPAGsnzn8TCOWPhVpmJ/DJD1/f2me4aaB+DruPZ/bab1z2G3RkI9x8SEfVlu3btwIt/fh7PPf+nboeXXvobLl/u+GC2xvPbsO69/w9vrd6FSuMJ/Pvl/8Xaz/6B9976O9594yWsP5CLJvH7W132Lda8/B6O1vkhduRYDG83RFu1zG99KJ/63Bd44431yBMu4dDav+Odd8XhzTex/tOX8fqXR2EoVy5/ZsOf8c62s6bP6is7sOrlD3CsVtoPA9XntuCfb/033nn7b3jn/Q+wL6fetFxfULrvGP701C68vUt6FoER+TuP4tnf78cbL+/Hc88ewZ7L4v4/KwN/+uNp5BnF7Wkux5pn9uCr8x3L9wdM8omI7ji1mCiK/2/Kwjc7jsEiaQaGebd0Mzc0N8NoYQ3pYraJmGlaqZrQ1HTtsnv77n7X6/6nDp7U7X12nXJNxeS7QlC+5zN8V9hywqHL++3qxDZr7WDX2mYbW1zt4C3Uo6HZAjZ20tmGVnawsQEaGmrFHe0VHP3sNaz59zc4V26H2CkPYFykRTfraqlBuc1dx/N623692PWnewy7MxDuPyQiMndqGGBoc2VcSqwNDTVo7PgWX6iFDGx/7xV82G7YlS0v0Am1SkBzbQ2acW0dvSXV0VTf2OZEfN+hFozQt42f0YDqGqHHbW1fvi9jkk9E1AtCczUs7LzEpLLN08u60Pl9dS1a9yeNuV9jxynAy6ul/5w+7yzyhRDoUkLgaO+KkCGD4FWfjfM38bYVjZ1tr+6zE7RBSJ8+Dm7Fe7D/vBHObl5wd7aV29bxfjvV+XMoRBBik4PgYO+O6EFRuLoGYx5yzzcgcMhMJAR7wdnVD1Gj7obOoQS5uWXiho/GoofmIbQhG6eP/4gr9VZwcXHq+t6+az0RFbqKZ2+3vb2+fY9hdwbe/YdERETUgkk+EVEvCE2VaMjfitgpf0XczFehtfXAow8/2uGeOmno7L66FhrTlWeJdJ/dxW+/wskK+ZJy7THs2noC2qRFWLbiF7g7ogFHN2/FhZt4d33zmb29u88udAgSXNSw9B+Puff9AkuW/Rzzx8eK5Tq/3+5y9VHs3JEFu6FLsezBnyPNvhrlclVqVQOydv4T313xwPAZD4l1PYDxMWK5revwfbERQtERHDlvg4S5j+O+ZdPgU7kPe46Voqt7+y53euW963j2etvb68P3GHZnIN5/SERERC1UgUGhnR4y9eQl+9dzK+rw9/NGfsFNXMIS9ZVtYTyUGA8lxkOpr8Rj0cJ52HvgoDx25whi4mpjp0VTTf0tuUdaMKphZW8L1FbfVDc8iVSXta3YtroGRRc3AVawtQMaapTTr9LYwsFGQE11x20S1Laws2xEfb1eWWcX6+qNW7Htt6IdPwVBrYKlUbjavVBQaeBkZ0R1taFH29G+fFuZhXl4aM5cvPPFOtO4XaPRbL4/+F2qxHgoMR5KjIeSFI/09PSf5NiBfjqd7RM7c6f+Xngln4ioD5Luu2usbbhlD0G7FffZterqfjs1GtFQ2819eIY6VNd0vk1qoQ71DR0Tz1txb5+532PYnYF0/yERERG1YJJPREREREREZCaY5BMRERERERGZCSb5RERERERERGaCST4REREREdFtpNVaIiI88rqDr5+fXILoxjHJJyIiIiIiuk1UKjUee+yXcHF2hUZjgWnTpiNWF4fwiIgOw/y5C5CWNkouSXRjVElJSZ0/37+PsLW1RV1dnTxGjIcS46HEeCjdinhMnjyZr8Eh6kT71wUF2DqYfpoDfpcqMR5KjIcS46EkxaP9K/Tc3N0xamQ6Nm/ebBqfMXMGtny9GdVVHV+D5uHugblz5+GNN1+Xp9DtJqit4O9txKWCG3+LTk/3iXfq74Xvye8hxkOJ8VBiPJTMKR6dvSdf6nIXHBQsj3Wttr5W3GEUyGNE5oXvye+eucRCwngoMR5KjIeSFI/2Sb6XpxcGD07Bjh07TePdJfnOzs5YsngZXnv9FXnKrSMYrRE9cQnCr6zHpmMl8lQSwqPxwiID3n0+C/ldJPmCUYWQEQGwPHkBZ2s6LsP35BMR9WPsckdERER3kqD1QmhsGNycgxCVmARva6OYdGrg4BuD2PgEBHnYA8ZrSWVX85z84xDk6w2vIB2iQz2hsfA01evqGICI+GREBXvAEm3qUdnC1V8HnbjOIHfbq/UIRis4B8RDlxAPX0d3+MbGwsOmdZ64bh9x3QmJCPawU7SrzzqbiedebEnwBam9qpY2a7Rq8WPLZ7XaElFjQxHnLo31/W1ikk9E1Auubq7IzcnB8RPHkZubi/yCfOzctR2bN2/sMKxa9RESxB1sWwJc4K8bhFjFEAN37c3vMATrICSNHAovsS7pgCBMFwVXTd/fEREREVE3HKIwfMIszJq7AKlJOvjYWiFo7ENYOGeSeJwxEuMXPIx7h/tDLSakUgLe1TynwHh4i7m6lXsUdOE+0DpEi/XOxpz58zAsbjCGTRHLTU2EnVSP2gfD5v8CC6aPQ5xuFCYtXIFxYTZi/baImPSQaXq8OH3KgvswdcIERDm3JP+Bo8U65k7D4KQxmLzwEcxO9uj7ib5fJJ57JgxOUjulz/+RiHm/GYVnXhiPv/93ElJcjIidk4KxfjYY9kAa7hthLRfsu5jkExH1goVag6amRnmse836ZqjF5RXUgRg0fgrSho/AoJTWIQm+4k73pjkEICI6Fj7SbWDiAcGw8WkIsmmZRQOL1K0wKDUQEfY3dmB1s+WJiOhW06BwzytYuXIVjqhGID1Bi9NfvopP17yJj7fkwnnoBMRJ+3/31C7n5e3/FCdLgOrTX+HzrcdRZ+p1bo3K4x9g1Zq38dGne9EYPh4pAeIMKws0XDyILR+9gk9Wv4HduXYIjwoBPFMxIsaIk5+L9X/yBlYfvAytVI1EXPfoJODE2pfw4YcvY+WOi/AYORph/S3jDLJH5Ud78Pzvt+HtM+6YNs4Rpz47iB359fju7b1Yub9nx4E/JSb5RER3nB7ZO1/D6g9fl4dPcKJSda07nlMAwnUJCHQVM3SVHTxCE6GLDYVjm6vynXahqziLIwf24UKlvBANWF11K5SSd0tLeUQkSF0S5W6JJqbPxn7XLZGIyPyVoqigTrpvEFa+vnBuOo+cAr1pTkNOFi7BB15e3c/rXDnyc0tN9QqlWbhYZQsPL0eg7jIKS1UIGLMcix/8FcaGaqC1toGtlzcc688jt8hgKl2bk43Wu/stfXzgbLRHxMQVWLLsYcxJ8YNa4wFXF3mB/uJiMQ4Xi/tCcZ/4Y0YZnJz7/pX79pjkExH1Fa3d8e6di2Ep4zFl0VJMm/MAZqSnInnMQiyYNaTbLnQt5dMRzKv3A177boWCmKd7j0zAH/5rFH77zBi88FQ0Yu2NsAzX4fnno+EvHsgIGmcs/Es6pgeo+l23RCKigaC117uhuRlGC2vYtHYWtLSClaoJTU3Gbud1zhrWtvIJAJU9rK2A5mY91MGTMGtiIhzKfsThnevwbVaNaRF9UyMEKwc4tp4wtndEa2dEQa8X21iCs4d24+ABcdi/Bds2bkd2S9H+Qy+g5RSJuE1C/zzVzSSfiOiOs0Dw6Icwf9GKlmFOGtyv3q+mQcHe1/DxyndwqMQTgZrvseaDN7F6awbgH4UgqU9cV13o+uNeiG6LDt0K3YOxfIYKG17cjT8/uwtvZLhj+Ww3NJ3JwNpz3lgwwQ7+U3UIPXICG/KM/a5bIhFRX1ZbV4eAgMAe3Zru6+trWr47+ryzyBdCoEsJgaO9K0KGDIJXfTbOF3U/T0zf0dRshJ17IDydpV6A0jQbBMcnw83eCd5JgxGsLcLFvFpo7GxhqS/BhdNZKG7yRrC/vbQwjOczcaE5BIPGDkNEzAiMH62DnWmOuO6L58R1e8DHzYjK4iI0egxBeoo/LJrlBfo1I/QGS9g7d9Ujom9hkk9EdMcZUZV/Amcy5OFsAerlOVJ3vOJLjVCrqlFbI+6Oy0tRr1JBX1mFOlhKJ+S77EJ39Z44onYsY9zhJx4zhkyKxMzZkRjiYoA21BUeKjGhX5eB0lGpeDypDKvWV8DYxeuDiIjoxtTUVCPrbBaeeup3ePrpp6GL1eE3T/4Wzz37Qodh0qQp2LRpg1yyC7XHsGvrCWiTFmHZil/g7ogGHN28VUy+xe/vbuapVXpkHzuEUve7cO+0oWjpRV+CMot0zHvwcdyb5o6C3V/hWLl4/HFmLw6VeGPUsieweGYyLMVtkKgaT2H7+h0odkzG8OHxsCs4h6LWkxc1P4jrPglN3BzMv/9R3B2lQtahgyg29v/9ilplwMl9xQhfPg6Pjuv7XSaZ5BMR3XEGlGUfxDFxR2saTuaitk1idb0z/V11oSPqilqtgrGhAQX51bgkDRm5WP3FZdTK81UWFlIHESIiuk127dqBF//8PJ57/k/dDi+99Ddcvqx8j7q67Fusefk9/CC/n138Skf1uS1Y+9Zf8c47/4O33v0Ih/Jbrv53N0/SeH4b1r33/+Gt1btQbqquFuc2/l1cVhxefw1bThRDEI9J1IYCHForTntXHN58E+s/fRmvf3kUTRpXBIXY4PyWf+DjD97CxnwjnFU1qBMPRVrX/c+3/hvvvP03vPP+B9iXc+0yRl+lvnQWz/0lB5XSdrf5bJp3+Af8+r0rps+l+47hT0/twtu7uu9p0RcwySci6oVb0+VODRtnP3h6+cqDF+wtelChrKsudETXKLsVNpwpQ7GXNfQnCnHkcBF+rLNBgI0BdUY14ufr4LXvAF4/KXXhdza9Zqm/dUskIhqI1DCgsbah0x5Y15tnuHp1XQONeAyiF7P05nZX3NUqAc214nS0na6BtWcyJt3/WyxZ9kusmB6H5jPfIbNKni2SyjXVN5oe5mdu1IIYq37QM4FJPhFRL9yaLncaBI9+EPMWtgxzFyxAkoc8qwe66kJH1KpDt8KiHHy4QYNZL6bjqT+k4ffzXFB6oRaW0TGYH1aE1RsrcXb9KZxLTsC0EKlLZ//qlkhERDeg8gR2/msbcnvx6BW1UILj61/B+6s/w4HDO7H1n69j1eZTplsLqe9QBQaFdnr5yNXFEWXlbU7J3IBbUYe/nzfyC5RdVnqrr2wL46HEeCgxHkp9JR6LFs7D3gMH5bG+QzCqYWVvC9RWtzvDTnSNoFbB0ihcveogqDRwsjOiutrQoyss7cu3lVmYh4fmzMU7X6wzjds1Gs3m+4PfpUqMhxLjocR4KEnxSE9P75PHDnT7dLZP7Myd+nvhlXwion6o8y50RErtuxWqjQZU1wg97kLZX7olEhER0TVM8omIiIiIiIjMBJN8IiIiIiIiIjPBJJ+IiIiIiIjITKiSkpJ6/t6mn4CtrS3qOn0F1cDEeCgxHkqMh9KtiMfkyZP58ByiTrR/yFCArYPppzngd6kS46HEeCgxHkpSPDp78J5Wa4ngoGB5rGu19bW4VFAgj1F/0dN94p36e+HT9XuI8VBiPJQYDyVzikdffbo+0U+NT9fvnrnEQsJ4KDEeSoyHkhSP9km+SqXGr371a+zbsxdV1VW4++67kZObi6amju+ui46KxveHD2Hv3j3yFOoP+HR9IiIiIiKiAcLVzRW5OTk4fuI4csXkPr8gHzt3bcfmzRs7DKtWfYSE+AS55I0TtF4I00XBVdOnO23TbcIkn4iIiIiI6DaxUGs6vWrfmWZ9M9Ti8jfNIQrDxqchyEYeH8AEowpBqYGIsL+xEx43W/6nwCSfiKiXVBorWLolXB1CQiIREd5x8PXzk0sQERER3ThB7QTfqEGIjQyEo1aeKBKMVnAOiIcuPg6+Du7wjY2Fhw2v3relVlsiamwo4tylsWuxkZJ3S0t5RCSoxHnS0Mr02dhl+b6MST4RUW+o1HAd/ldYeI4GnBPhlPgkAkKiER4R0WGYP3cB0tJGyQWJiIiIek9Q+2HkokcxLW0wdEPnYtF99yDM2igmqTaImPgQFkwfh/i4dExZsBxTJkxAlLNckExi56RgrJ8Nhj2QhvtGWItxA7xHJuAP/zUKv31mDF54Khqx9kZYhuvw/PPR8BeTe0HjjIV/Scf0AFWH8v0Bk3wiol7Q2HjC0FyH3EMf4OKxL9FcdwV79+3p8X11Alzgr0uEb7uHrtr7JiI24M7uldverydYByFp5FB4aW/+DLWgckWALh6eNmK9pu0dhFjFEAP3W7GeNm3mvYdERGS2nMMQ4laJE1+9i7Ufv40tRy7DYKMBPEcgNdaIk1+8ijVr3sDq74vR5sI0yU59dhA78uvx3dt7sXJ/I+AejOUzVNjw4m78+dldeCPDHctnu6HpTAbWnvPGggl28J+qQ+iRE9iQZ+xYvh9gkk9E1AsqlQWMhiZ5rHud3lenDsSg8dMxfUoqnNt0+XKLm4ixiQHy2B3S9n49hwBERMfC55a8Bc0fiePHIVI6Z2Ha3ilIGz4Cg1JahyT42rYseVPatpn3HioMxPsPiYjMVmkmMgqskTz/SSycMxZulZnILzPAytsbTg3nkVtogFoF1ObkoFQuQl2zjHGHXx0QMikSM2dHYoiLAdpQV3ioxIR+XQZKR6Xi8aQyrFpfAaNKDGw/xCSfiOiOM0LjNQYThniKH1uSKKNRMP2UCEYNHHxjEBufgCAP+6vLSFerQ2PD4OYchKjEJHg5eLaMOwUgXJeAQFcxw1XZwSM0EbrYUDi2uaotqGzh6q+DTiwX5C5m2HKdV1WcxZED+3ChUlzWxgfhsYmIbjNE+TiaFjO1zUdsW0Iigj3srrWtzT2B/mKTDYrq9cje+RpWf/i6PHyCE5Wqa9tzo+1v02ZSGoj3HxIRmSu16gqOfvYa1vz7G5wrt0PslAcwLtIChuZmGLV2sGu9nmBji/7RmfynpVarYGxoQEF+NS5JQ0YuVn9xGbXyfJWFBaws5JF+ikk+EdEdV42sH87BcfhsDPFs2TNL94e1/LRC0NiHsHDOJCTEj8T4BQ/j3uH+UEtJrUMUhk+YhVlzFyA1SQdfj+iW8XvnYljKeExZtBTT5jyAGempSB6zEAtmDYGdWE5Q+2DY/F+Y7tmL043CpIUrMC6s3SVvU93pCJYm24chLnkYEhNToEsYhfQJ0zEiytXUtsDRYtvmTsPgpDGYvPARzE72gCBYK+8JnD8evi21dq91e260/W3bTAoD8f5DIqK+qrauDgEBgR3Or3fG19fXtLyC12gsemgeQhuycfr4j7hSbwUXFyfoL2ajEEGITQ6Cg707ogdFwV4uQm0ZoTdYwt655ap8w5kyFHtZQ3+iEEcOF+HHOhsE2BhQZ1Qjfr4OXvsO4PWTUhd+55bjr3bl+wMm+UREd5wa9Wc34ptsO6RMGgtPtZhgGeQr+e6pSE/Q4vSXr+LTNW/i4y25cB46AXFXu9FrULjnFaxcuQpHKlrGC/a+ho9XvoNDJZ4I1HyPNR+8idVbMwD/KARJT+C1skDDxYPY8tEr+GT1G9ida4fwqJAuL9Cqr+zF+lVv45M1H+NAkQB1zUns/C7X1LbRScCJtS/hww9fxsodF+ExcjTCvdvdE3j4CqwU+0ELBI9+CPMXrWgZ5qTB/eqRzq1vPw3M+w+JiPqqmppqZJ3NwlNP/Q5PP/00dLE6/ObJ3+K5Z1/oMEyaNAWbNm2QS7YQio7gyHkbJMx9HPctmwafyn3Yc6xUrPgIdu7Igt3QpVj24M+RZluBEu4bO1CrDDi5rxjhy8fh0XE2QFEOPtygwawX0/HUH9Lw+3kuKL1QC8voGMwPK8LqjZU4u/4UziUnYFqIqmP5foBJPhHRHSftMGpxdvtGnLMajvEjA6GWu+tb+frCuek8cgr0pvGGnCxcgg+8vFqz5lIUFdSJVVwbL77UKNZXjdoaoLm8FPXiPH1lFepgCUsrcZG6yygsVSFgzHIsfvBXGBuqgdbaBm3ewNMph+iZmBxvwLGNG3ChQQVLHx84G+0RMXEFlix7GHNS/KDWeMAj2Oc69wQaUZV/Amcy5OFsAerlObez/XTNQLj/kIioL9u1awde/PPzeO75P3U7vPTS33D5cpFcqoVaVYOz297B+2+8hPff+is++OdOXGqSjiWAysx/YdUbf8N77/4N73/+A6pay5R9izUvv4cfavidLinddwx/emoX3t5VJ8bNiPydR/Hs7/fjjZf347lnj2DPZfHYIysDf/rjaeQZxdg2l2PNM3vw1fmO5fsDJvlERHecWkyOxf83ZeGbHcdgkTQDw7xbuu2b7q+zsIb00FwTMcu1UjWhqenaqfn23f2u1/1PHTwJsyYmwqHsRxzeuQ7fZonZ9PW4pmLyXSEo3/MZvitsOeEg6PXiukpw9tBuHDwgDvu3YNvG7ciuu949gQaUZR/EsWOHWoaTuahtk0jelvaTwkC4/5CIyNyphTrUNxjanOhvoUYjGmobIWg00DCn75JaMEIvJvCt1EYDqmuEDvHsSvvyfRmTfCKiXhCaq2Fh5yUm6dd/SU2n99XJWvcnjblfY8cpwMur5XHz+ryzyBdCoEsJgaO9K0KGDIJXfTbOK0/q94rGzhaW+hJcOJ2F4iZvBEtPxuuGoA1C+vRxcCveg/3njXB284K7s63cNg/4uBlRWVyERo8hSE/xh+r8uevcE6iGjbMfPL185cEL9hY970/Y2/aTZODdf0hENOAJuTj4r/U4VSKP04DFJJ+IqBeEpko05G9F7JS/Im7mq9DaeuDRhx/tcE+dNHR2X10LjelKvkSt0uPit1/hZIWc9NYew66tJ6BNWoRlK36BuyMacHTzVlxovvFkq/nMXhwq8caoZU9g8cxkWNZUy3O6EDoECS5qWPqPx9z7foEly36O+eNjxXI/iG07CU3cHMy//1HcHaVC1qGDuFx9VHlPoH01yuWqWmgQPPpBzFvYMsxdsABJHvKsHuh1+0n8vRp49x8SEQ10alTjyvkLqLiJYwYyD6rAoNBOL6e4ujiirLz1ro4bcyvq8PfzRn7BTVzCEvWVbWE8lBgPJcZDqa/EY9HCedh74KA8ducIYmJsY6dFU039LblHWjCqYWVvC9RWoxk3V59Ul7Wt2La6BkUXNwFWsLUDGmqU02+FW9n+gURQq2BpFK52LxRUGjjZGVFd3bG7Z2fal28rszAPD82Zi3e+WGcat2s0ms33B79LlRgPJcZDifFQkuKRnp7+kxw70E+ns31iZ+7U3wuv5BMR9UFqGNBY23DLHoKmVglorq25JQmyVFdTfWOHJLH1nsBbneBLbmX7B5KBdP8hERERtVAlJSX1/MbIn4CtrS3qurindSBiPJQYDyXGQ+lWxGPy5Mk8G0/UifZXLQJsr77nsd/jd6kS46HEeCgxHkpSPKQr+a3fjTRw9GSfeKf+Xthdv4cYDyXGQ4nxUDKnePxU3fWJ+jp21++eucRCwngoMR5KjIeSFA8pyaeBqa9012eS30OMhxLjocR4KJlTPJjkE3WOSX73zCUWEsZDifFQYjyUpHicKbksj9FAxXvyiYiIiIiIzISU4N3MIHX17mx6b4a+UkeUu1en03sz9Md4/NSY5BMRERERERGZCSb5RERERERERGaCST4RUS9ptZaICI+87uDr5yeXICIiIiK6M5jkExH1gkqlxi9/+SskJw9GZGQUFi9eglhdHMIjIjoM8+cuQFraKLkkEREREdHtxySfiKgXXN1c0dBQj/Xr12P79u0oKy/Hzl3bsXnzxg7DqlUfISE+QS7ZQoAL/HWDEKsYYuCuvfmHtAjWQUgaORReYl2C1gthuii4aq7VK2ic4B2WhMTBQxAd5AoL482tU7ALQsKoOZg6dTT8HQKvrvt2E1SuCNDFw9Pmp3+wze0gqK3g62sJ3OS/DxEREQ1MTPKJiHrBQq2Bvkkvj3WvWd8Mtbi8gjoQg8ZPQdrwERiU0jokwddWnn8zHAIQER0LHwfpcxSGjU9DkE3LLLgkYsqSRzFn0hjEJaRjzKxHsGT2UDirbiyRFMRiEaPmY2SoBSrKS1Fj1Wbdt50/EsePQ6SzPGpuQkPwsxVB4lZ2TTCqEJQaiAh7ngggIiIiJSb5RER3nB7ZO1/D6g9fl4dPcKJSZbr6HhobBjenAITrEhDoKmboKjt4hCZCFxsKx7ZX5VW2cPXXQZeYhCB325arvhVnceTAPlyolBeSCUYnJE2YAv+ab/HPd17Cx+//L95bswc1ARNx1yAXeRkNHHxjEBufgCAP+6tXkVvb5Orgg6DYZEQHuUMjAC7BQxDqZYnG8ssoLS5FbZt1X90O5yBEie3zcvDs+XZJ7fAR25GQiGAPu2vtMFrBOSAeuvg4+IvNM1wrYn7OZuK5F7OQrxJ/J6Ttl0/EaLRq8WPLZ7XaElFjQxHnLo1dC4aU/FtayiNtCGJdVlppvhHiR4X2ZVrXKZ3IsbbTXF0nERER9Q9M8omI+gqHKAyfMAuz7p2LYSnjMWXRUkyb8wBmpKciecxCLJg1BHZiwiWofTBs/i+wYPo4xOlGYdLCFRgXJibOpvLpCG69et/KJQHRPpU4+c1elDSroBaTvMbib7Hz693Iq7cWszpLBI19CAvnTEJC/EiMX/Aw7h3uD7WU3LW2ad4SpKekIX3mz3DvCD+4BcfD2xaw9IiCLsoftg7R19bdWmbuAqQm6eDrIc3rwXaJiXzgaLEdc6dhcNIYTF74CGYne0AQrBEx8SHT9sbHpWPK/PHwbdky8+QXieeeCYOTFH/p838kYt5vRuGZF8bj7/+dhBQXI2LnpGCsnw2GPZCG+0ZYmxJy75EJ+MN/jcJvnxmDF56KRqy9FFMVAsYPxgt/Tcdv/zAKv5mXgN/8TyyCTfHuvIxpnX8chPv/NA5/eCgAnnKziIiIqH9gkk9EdMdZIFhMZucvWtEyzEmDu5TQmWhQsPc1fLzyHRwq8USg5nus+eBNrN6aAfhHIUgrLmJlgYaLB7Hlo1fwyeo3sDvXDuFRIW0v6Cq5usFJuIKSUnlcJCX6ZVl78X1mEQSPEUhP0OL0l6/i0zVv4uMtuXAeOgFxV7veW6L4u9fw4Yev4PPvy+Aeq0PVrjU4WQJUn/4Kn2/8HuXtrg5L21G45xWsXLkKRypaxq+7Xe6pGJ0EnFj7kriul7Fyx0V4jByNcO8RSI014uQXr2LNmjew+vAVWHVYnxkLskflR3vw/O+34e0z7pg2zhGnPjuIHfn1+O7tvVi5v1GMXTCWz1Bhw4u78ednd+GNDHcsn+0mZvEhWD5Zjy+e/QYvPrsHa/XOiJCr7bKM9Hvkb4NL/9iFP/79PC63v/RPREREfRqTfCKiXmhsbkLW2TMwGPRiLtRVVn09RlTln8CZDHk4W4B6eQ5QiuJLjWISXo3aGqC5vBT1YpKlr6xCnZhsW1qJi9RdRmGpCgFjlmPxg7/C2FANtNY2kPLkTjU2oFmlhbbd4wFaWfn6wrnpPHIKWp410JCThUvwgZdXa3JXjEt5daYTA1dKimG0tsX1HyFQiqKCOul1BFfHr7ddlj4+cDbaI2LiCixZ9jDmpPhBrfGAR7APnBrOI7fQYGpDbU6OWNsAcrEYh4uN4rYb8WNGGZycreUZ11jGuMNPDHfIpEjMnB2JIS4GaENd4RvpCrfMSzgpzpNil39I/N25ThnTHQCmdQqm5YiIiKh/YZJPRNQLjQ0NsLWzw6xZs+Hi4oSyshJ5Tm8YUJZ9EMeOHWoZTuaits3V0qsX9bugDp6EWRMT4VD2Iw7vXIdvs8SsuTull1Fi9EFw6LV+/ILRAbFTHsaC0eEQmpphtLCGTetJADHjtlI1oanpWkOutqkX5zXab8f1tkvQ68VlSnD20G4cPCAO+7dg28btyK4T26e1g11r+2xs0THNNWN6Aa2PehTEvLuzMKrFDN4o/m4W5FfjkjRk5GL1F5dRKy6s1mpw9bdL/Nx6+32XZaSZghFM8YmIiPonJvlERL2wbNl9qK6uQlbWGTz4wM+wbds2eU5Hvr6+qK2rk8faUsPG2Q+eXr7y4AV7i55nzxo7W1jqS3DhdBaKm7wRLD2Jrjv1x3HoeANCxy7AiNgQeHpHIH7MbKSGW6Io5zyaL55FvhACXUoIHO1dETJkELzqs3G+SC5/h+gvnhPb4QEfNyMqi4vQ6DEE6Sn+UJ0/h0IEITY5CA727ogeFIXrbPEAYITeYAl755b0veFMGYq9rKE/UYgjh4vwY50NAmwMqMy4gouRAUj3UUNQWSIx3ROuphJdl7nWq4SIiIj6Iyb5RES94O7ugW+/3Y0TJ4+joCAfWkstHnn4F3ju2Rc6DJMmTcGmTRvkkm1pEDz6Qcxb2DLMXbAASR7yrB5oPrMXh0q8MWrZE1g8MxmWNdXynM6pVQIu7VmFTZl6hI1eiHni+kZFapC9/RN8m9cM1B7Drq0noE1ahGUrfoG7IxpwdPNWXGi+1rvgjqj5QWzHSWji5mD+/Y/i7igVsg4dxOXqo9i5Iwt2Q5di2YM/R5p9NcrlIgOVWmXAyX3FCF8+Do+OswGKcvDhBg1mvZiOp/6Qht/Pc0HphVqg9Dze/6gacT9Lx4svDEZiXhGy5Dq6LHOH/9mJiIjo1lKNGDGi55ePiIgGmPT0dOw9cFAeAx64fwUKCy+hrKwMY8fdhf/93/9Bc3OTPPfOEYxqWNnbigl6NZp7kZUJ0MDaxgJNdQ1t7pdvIc2zsdOiqaYexnbz7iRp26xtxXa0a6MAK9jaAQ01Hds+UAlqFSyNAvTGlngIKg2c7IyorjaYYiQ9Qd/N0xoVxS3/pqqIWPzXUj3+949ncEWOYfsyPZVZmIeH5szFO1+sM41HuXuZfhIREdFPSxUYFNppku/q4oiy8ip57Mbcijr8/byRX3BzfUb7yrYwHkqMhxLjodRX4rFo4TxFkq/VWmLkyJGws7PHvn17UFFhenQ8UZ8kWDhh9jPJiC2+jIxSC4QM8gB2HMDfd3R2G0nvtE/y7RqNZvP9we9SJcZDifFQYjyUGA8lxkPpTsWD3fWJiHpBumr/zTe7sHHjv5ngU5+n1lfiyz/vwXs7SlB0qRjbXtuNv283PVqPiIiIzBSTfCIiIjOmFvQoPluMg/uK8OMlPW91ICIiMnNM8omIiIiIiIjMBJN8IiIiIiIiIjPBJJ+IiIiIiIjITDDJJyIiIiIiIjITTPKJiIiIiIiIzASTfCKiXpLelR8RHnndwdfPTy5BRERERHRnMMknIuoFlUqNxx77JVycXaHRWGDatOmI1cUhPCKiwzB/7gKkpY2SSxIRERER3X5M8omIesHVzRW5OTk4fuI4cnNzkV+Qj527tmPz5o0dhlWrPkJCfIJcsoUAF/jrBiHWNCQgPMgHdhqjPLd/EFSuCNDFw9PGKG9PInzsr22DYLSAW+ggRHjZyFN6TtB6IUwXBdd+FhMiIiKivoJJPhFRL1ioNWhqapTHutesb4ZaXF5BHYhB46cgbfgIDEpJR9rUB7D0vnmIcuxPSa0/EsePQ6Sz+NG0PZMR69Eyp4UtgoZOxbBIF3m8FxyiMGx8Kvwt5XG6IYJRhaDUQES0OfnSGzdbnoiIiH46TPKJiO44PbJ3vobVH76G99/6AKf0UUgbEmaaI6hs4eqvgy4xCUHutoCxJckS1E7wjRqE2MhAOGpNk0w6m27vm4BofzHBFssKcIZfbAJ8HVrqUTmHIjo6ADbSPKMGDr4xiI1PQJCH/bV1ab0QGhsGN+cgRInt8LaWlrWCc0A8dPFx8BcXNfQi9+vtNknxMVp5IygmGTGhntDKy1PPqdWWiBobijh3aexa/KTk3bLNCRRBJc6Thlamz8YuyxMREVHfxySfiOinpL+EwivNsHZwgkrljWHzf4EF08chTjcKkxauwLgwGzEZ9sPIRY9iWtpg6IbOxaL77kGYlHh3MR1eyRg3YQg8pfo9B4ufZ2BMvJdpdT7JMzEuzktM0q0QNPYhLJwzCQnxIzF+wcO4d7g/1FJC7RCF4RNmYdbcBUhN0sHH1gYREx8ytSs+Lh1T5o+Hr6m26xPUPr3aphaeGHzPMqSnjMCoaQ9h/tiwlnZRj8XOScFYPxsMeyAN942wFpN7wHtkAv7wX6Pw22fG4IWnohFrb4RluA7PPx8NfzG5FzTOWPiXdEwPUHUoT0RERP0Hk3wiojtOBa2dCxwdXeERPBK6QAuUFubDYK1Fw8WD2PLRK/hk9RvYnWuH8KgQwCkMIW6VOPHVu1j78dvYcuQyDDYawLnz6VXZWShxDEKAk7hIYDDsmhrh6B8Ka6MHAv1tcVmc3+AxAukJWpz+8lV8uuZNfLwlF85DJyDOQW4iNCjc8wpWrlyFI5qRSI014uQXr2LNmjew+vAVWKnkxUwsEDxaTMYXrTANCxcvQoKbPMvKonfb1FIIJd+9ho8/fg2f7L0Exxgd+J6C3jn12UHsyK/Hd2/vxcr9jYB7MJbPUGHDi7vx52d34Y0Mdyyf7YamMxlYe84bCybYwX+qDqFHTmBDnrFjeSIiIuo3mOQTEd1xFggf/ziWPfALzJ8+DNbnN2Pr4WKg7jIKS1UIGLMcix/8FcaGaqC1toG2NAMZBdZInv8kFs4ZC7fKTOSXGYDSzM6nV57B+VJP+AW7ICDAEwWHD6DIMwhBLmHwd7mM3OxKWPn6wrnpPHIK9KYWNeRk4RJ84OXVmr2XoqigTnqdAKy8veHUcB65hQaoxdm1OTni3LaMqMo/gTMZrUMmShrkWb3dJpMruJQnrltUeaUYTZa2sFWcVKDesoxxh58Y0pBJkZg5OxJDXAzQhrrCQyUm9OsyUDoqFY8nlWHV+goYxX9zIiIi6r9USUlJfboPpK2tLerqWg72iPFoj/FQYjyUbkU8Jk+ejL0HDspjgJenFwYPTsGOHTtN4zNmzsCWrzejuqrKNN6Ws7Mzlixehtdef0WeInVfT8TMxyej8etXsPu8EfqGehggJ1VB07FiZgiKvt+HM4VXoI2eg7E23+KtL46gSWUF1yAdwkKiERvvj8tb/g9bzxogwLLT6e4jH8Ucl0vID3TBpY++hGbGCriXFSDMvQBrPt6Nqph5eHg8sO3Nf+KsQQXBJgX3PDQaZV/+DbtqR2PJ0ghkvvcufqhRQR0tL/vGWpwVxGW9JuD+BbHI/uff8e3lJNP21H3139iR27IdgtERKQt/idiC97Eqb3CvtmlL6UjFugX/KXjoHgfsfflTnGmNE12X9IaDic+kwf7jXVifr4Jl+hD8T2oVPtpRKS8haqzFjyeqUGfriRV/SkZccx5efj4DF6Tfh3blO5NZmIeH5szFO1+sM40H2F7tBtLv8btUifFQYjyUGA8lxkOJ8VC6U/FQBQaFdprku7o4oqy840Frb9yKOvz9vJFfUCSP3Zi+si2MhxLjocR4KPWVeCxaOE+R5NvbO2DxoiX44IOV0kXubpP82NhYDBs2Qlz2XXnKtSS/bVLcShM7Hz8fo8GeT/6NPJsYjJwyESGlm/DWPgfcOzMAWV99hTNNwRh1zww4nXgDay/EY8GMTqYfKjMl4vfNHwr7sn1iUr8LlmmP4d7Bzqg8/C5W778MwTYJs+6bCPWRf2Lnj1VwSb4Hd0ddweaVXyLXQZnkC3aDcc/94yB8txY7T9fBJ20BJkRpcLwHSf4npaN6tU2fnItjkn8LSA9VHPfUXfDftBWrTonjXmH441P22PD7YzjepIJ1bAgm21/GF9/VI/6B0ZhRchT/tEnEYuMJ/HldBfSwUJTvTPsk367RaDbfH/wuVWI8lBgPJcZDifFQYjyU7lQ82F2fiKgXamqqkXU2C0899Ts8/fTT0MXq8Jsnf4vnnn2hwzBp0hRs2rRBLnl9zWf24lCJN0YtewKLZybDUlyXxFh0GEfO2yBh7uO4b9k0+FTuw55jpRCKjnQ63eRyFi7UqVCbl40KlQrFF3LRqKpGbra8Y6k9hl1bT0CbtAjLVvwCd0c04OjmrbjQ3EkiXXMEO3dkwW7oUix78OdIs69GuTzrenq7TXRrqFUGnNxXjPDl4/DoOBugKAcfbtBg1ovpeOoPafj9PBeUXqiFZXQM5ocVYfXGSpxdfwrnkhMwLUTVsTwRERH1G7yS30OMhxLjocR4KJlTPNpfyb/dBKMaVva2YhJejeZ2V64FtS3sLBtRX6833SvfqqvpPSFAAxs7LZpq6q97L7YAK9jaAQ01Db1az41sE90agloFS6MAvbEltoJKAyc7I6qrDT2Kd/vybfFKfvfMJRYSxkOJ8VBiPJQYDyXGQ+lOxYNX8omI+hC1SkBzbU2HZFiiFupQ39AxOetqek+oYUBjbUOPHramRiMaaht7vZ4b2Sa6NdSCUZGgq40GVNcIPY53+/JERETU9zHJJyIiIiIiIjITTPKJiIiIiIiIzATvye8hxkOJ8VBiPJTMKR53+p58ov6C9+R3z1xiIWE8lBgPpf4QD2lfTnSzpP2dtK+7GXfq74VJfg8xHkqMhxLjoWRO8WCST9Q5JvndM5dYSBgPJcZDqT/Ew7Qv37tXHiPqncziwqv7u/6S5LO7PhEREREREZGZYJJPREREREREZCaY5BMRERERERGZCSb5RES9pNVaIiI88rqDr5+fXIKIiIiI6M5gkk9E1AsqlRqPPfZLuDi7QqOxwLRp0xGri0N4RESHYf7cBUhLGyWXvEYwqmDnHYu45FQkxobDWXtzD3G5HsE6CEkjh8Krl+u50+0kIiIiopvHJJ+IqBdc3VyRm5OD4yeOIzc3F/kF+di5azs2b97YYVi16iMkxCfIJVsIRkv4pz+EJfOmY3BsPOLT52HR8nmIspcXuB0cAhARHQsfB2n91oicsAJTktzlmZ3rrp09rYN+OtIJmqDUQETY39iJmZstT0TU15l65UVEXXfw9fOXS9x6gmAH9+Ao+LtZi5/t4Tt4DOJ97eS5RDeOST4RUS9YqDVoamqUx7rXrG+GWlxewSoOQwY5Ie/rl/Hhqrfx0dsf46Q+EimJPqbZglEDB58YxCYkIthD3NEbW5Ksa9MHIdSzZbqg9UJobARcNHIi5hSC6Cg/WFl4itPD4OYchKjEJPg0ZOHIgX24UCku4h+HIF9veAXpEB3qCWffeEQHu0HVuh5bP0TGRsLNrut2tq/DQmqLyhau/jroxPUFudu2aZ/YDqcAhOsSEOhqA6js4BGaCF1sKBzldrcu5+oYgIj4ZEQFe8ASTC5vhlptiaixoYgznYe5Fkspebe0lEdEgkqcJw2tTJ+NXZYnIjIHUq+8J578HQYPSUVUTDzG3jUJuvgk02dpSB0xWpw33PR5waKlSBs1Wi55qwUieeYiTBzkC4j73dT0sRiVGg2tIMA6OB1jxo+Ar4UgL0vUc0zyiYjuJKMeBqOlmFwHwE5MctXCRexZ+Res3lcoJmBWCBz9EBbOnYbBSWMweeEjmJ3sAUGwRNAYcfo9k5AQPxLjFzyKWeJ02Edh+IR0BIu5s0TtNxR3pSfC1SFanD4Ls+YuQGqSDr4e0njLck6B8fAWc3Ar9yjown2gdkvA2MmjECjvDVzjpmDCsGBYNHXdzvZ1WKh9MGz+L7Bg+jjE6UZh0sIVGBcmrsxBap/YjnvnYljKeEwRD5SmzXkAM9JTkTxmIRbMGgI76eSCabnZmDN/HobFDcawKeK2Tk1smUc3JHZOCsb62WDYA2m4b4S1+LsFeI9MwB/+axR++8wYvPBUNGLtjbAM1+H556PhLyb3gsYZC/+SjukBqg7liYjMiaubGxoa6vHll19g27atsLW1wd59e02fpaG8ohzZOTmmz2s/WYvExEFyyduo9hC2fPoxPtvyA5rValh5xUKXEAM3C3k+US+okpKS+vRRlK2tLerq6uQxYjyUGA8lxkPpVsRj8uTJ2HvgoDwGeHl6YfDgFOzYsdM0PmPmDGz5ejOqq6pM4205OztjyeJleO31V+Qp0pVU8eAiejLuGpUML8taXMnLwI9Hv8Ppgiro3cdi6eJoZK99F/uL9LCNm49lY/XY/mkJUhclIf+L17A73wD72Jm4O/IKdu62wKRlEch87138UKOCOnY+HhlZjS8+q8HYZcNR8fWr2JRZB8FtNJYsbVnuSLUtkuf9BrpL74oJexEEbQJm/Hwi6jb8H7bnOmHo4l8gMvctrNp/pet2ol0dNgFITA5B7bHdOFdjgZjpv8Now3r84zsPLBHbUbbl79h02gopC5/AcGE7Plh7AI0Rc7Biqi32vr4Kpxyl9qWj+cAbWHewFBDbu2BpCgo//z9xe+XAUa8IRgtMfCYN9h/vwvp8lfg7EIynf+eETc8dw3HxT8J3xig86ZyB//dhGeLuG40pRd9jjfUg3K89hf/8rAIGaBXlO5NZmIeH5szFO1+sM40H2DqYfpoDfpcqMR5KjIdSf4iHaV++d688Ju7LvbyxaPF94ndlSxrk6+eLy5cvw6A3mMZdXF3Q1NSE2ppa008LjRqvvvK/pnmdsgnCoPTRiPRzg1ZfgcJT2/Dt4TxTsi7ABv4pk5ASFQRHbR2KTx1Fuf8wBJdswtpvbTD5yQXw//FDvLtVwMilU+B97l/Yh0mYkOQPZzsBtWVlqM/dhrW7z0IQLOCROAnDYkPgamdAdcFJfC9u16VauR1d6a5916mz+/bjapu/PFjQsrz/BMwfF4icr9/Bkcvd1y8IwabyrucO4pJLLCJ93aCqysHJ3Vvw45WmlvralrcXUHPpFA7v/Rb51abZNx6TXsgsLry6v7vZfd2d+ntRBQaFdprku7o4oqy840Frb9yKOvz9vJFfUCSP3Zi+si2MhxLjocR4KPWVeCxaOO+WJvmtpKum/pGxCItIQFSwHfK/fgvbtdPx87F+qKqoEZMskdoWjs51+OG7KqQMqsa//vEV8nEt4RJc068m7x2T/Aicfv9dHK0WE7w2y3VI8o0aRE/7DUY1f4n3DnphwfJoZH34Do5Wtqyns3ZuOm1oV4clPGNSoQsLgq+XB5zsbaC5uAn/+MYe89u0I2rafyC9cS3e2SYeqHjchWWLAnHq3fdx1EpK8uORu+Y1HLgittfojVEPrIDPiVfw2ZGb+x0YqNon+RZpKfi/u5qxXczwTTt9R3eMDbmCvzx3FldsPfHgMwmIbL6Ef/wlAxcM0r+Bsnxn2if5do1Gs/n+4HepEuOhxHgo9Yd4mPbl7ZL8OfcsxPr1X5rGFy9ZgvX/+hK11S2Z4aj0dFy5cgWnMzNhb2+LyZPv7jLJFwRnJC9+HCPdKnD+dA7qHcMRHqzFufWvYvu5JninP4Z7hjqh6kIGLtXYwjciHE5aFfRnPsU/NqBNkm919fPn+WEYmjwYkd56FPyYidJLR7H7eCHch/0Mc0d5oOZCppjkWsM7PBJudQfw2UebUSx03kG7+/Y1dltnkV7T4/a/vz2nZX3h9+KRGeE4s+4/sfOC+jr160zlw1R6NJXnIq/MEr4hQbBvOIIv312PfL1YfrhYPs0bdfk/oqDGAb6hIbCv2Y8vTOW7r7+rmPRW2yRf2tfdjDv198Lu+kREd5JzOOITo+BmLMelzP3Y/a/3see8JUKjQqWb+GE0luDsod04eEAc9m/Bto3bkV3bDKPWFrby7f2CygrWdtawEIxiwqaBWu7KZ2tt2/JB1pPe7mqVAecys6AOiUZ8TDRcC08gs0Kc0U07Ne0qVgdPwqyJiXAo+xGHd67Dt1k18pwWPet1bw1rWzmZVNnD2koMhxgPujXUahWMDQ0oyK/GJWnIyMXqLy6j9UKHysICVvLvERHRQGA0GsREqcw06PXNqKiouDpeX1+Pmtoa0+eqKvmScVc0QfD3tkBT9lZs3PpvbP9sJbbvOYjCBkvAKgFDB7vDcG4D1q77DLu+XoVP/v0D6jo/d3pV5eltOJQt7YzLkb3739hzslCsKx7Dh/tBn/k5PhHr2r11DdZtPIZG11SkxGhbCnamu/ZZxnVfp3XiDbX/qh62WV3zPf79wUfY9u/38eX+AsA+AiEe4gyx/LBhYvmsL7H203XYuWkl/rn1MEoFfwR6iWnsjcZkAGCST0R0BwnwQuzoezA+XQdPF3f4hKci2leDqvJSNOWfQ77gAR83IyqLi9DoMQTpKf5Q5WYh3xAE3ZBgODh4IHbSz/HAPalwqipHlbh8ZEo8/IMHIy2xJ+/lb0ZTsxF27oHwdG55QJ4+9wSyhRikJnvgYuZJ1KtU3bbTIJ1xb1OHxs4WlvoSXDidheImbwT738irAmwQHJ8MN3sneCcNRrC2CBfzbmFfuwFH/Hc1WMLeueVIrOFMGYq9rKE/UYgjh4vwY50NAmwMqDOqET9fB699B/D6SXcsn+0MtemsjLI8ERF1wXAeeQVNsIyZh/uWLsVd6RGoy9iHzEvVgIcfPDRGFJ0/Db26Je3S555GQctdAb3jLtalNUJwH4Kp9y7H9DlLMTXFV/y2VsHVzUteqBPdts+/+zrdfW+u/T1sc+PFbBTL9VcUFaIBtjD1inf3h6dWwMUzJ9Ekz2/K+jfWffQeDhdK828wJgMAk3wiol6oratDQEBgj65O+/r6mpZXKD+AbTsyYBE9G/OWP4J7pw6DXf52fH0gH6j5Abu2noQmbg7m3/8o7o5SIevQQVyuOY5d207AInExlj/4MMb4leG7rftQasjAwb3nYR0zC9MmDYH+8kVxx9Y9tZigZx87hFL3u3DvtKFwliYKOTh9tgladTZOn5Hb200729dhf3oPDpV4Y9SyJ7B4ZjIsa65z1aNTJSizSMe8Bx/HvWnuKNj9FY6Vy7Oo16QeGif3FSN8+Tg8Os4GKMrBhxs0mPViOp76Qxp+P88FpRdqYRkdg/lhRVi9sRJn15/CueQETAtRdSxPRESdUqsrcezzt/D1vuMoMXogLGU67lnxBCbEOAIWFtCIe+bm5mZ5aYkA4UaSfK0ltGJdgkGAUZAHQyWKc7JwpZtz4t2273p13kj7Vab/WvSwzYKhTYVGcRn5I7RasbwBBrFcp24wJgOBxsnZ5Tn5s4KNjRXqG3r2mqiu3Io6HB3tUVWt7PrZW31lWxgPJcZDifFQ6ivxiI/XIS+/5WEyEukBPI6OTli0cCHS09Ph6eGJEakjMGbM2A6Df0AgvvjiM9TWXmuDSmVE/ZXTOHF4P07+eBQ/7N+JH87ko05QifPE+svO4dThfThx4iC+P3QYFyv016Yf2Y8TJw/h8MHDuFQjmOqqKzqJY+LyPxw+hOyzx/H90bOoabiAkwd/QFFTy25WVa8cN1Tk4McfDuCHkzmoNUoJnQ38E0bAt2Q3dp4ugVFcYXftbF9HvbEG+acO4vipIzi6fx8yxM/fny6EsV07SrO+xdGcMtNnVV0uThw8hqJmFYw2QUhItEXmmrex9dhRsY69yLpcZ2oH3bj6i0XYueM8juU2mQ6YqnILsWtHAU4evYitXxcgr1YFofQKdu0qQaV4SKYSGnByRx7OSD1E25UXf9taJrZRUlOJwTE6HM3MMI1bisdo5vL9we9SJcZDifFQ6g/xMO3L8/LkMcDe3h4x4vfXsWPHTONDhgwR968n0NTY8rC3sLBwU3d96WF81tbW0Ol0OHTwgGlee4LWBf7hIRByv8Hhw9/h6PErcI4djEi3Wpz6oQYBKRHwaMzDD2dLpIMAGN2SMGJwMCxLTuFwFhCeGgfHK8dxNNvi6ucfcsph7Z+ChEAg/+iRln2l3hWhgyPQ9MOH+NfO75F1+iROZ5dCMBbh7JmLaOgi8e62fUeqxfZFdllnfVPLOrtufz0CkgfBFwVi/C7CIM53iRyNxABrXMnYg9wyt27bXK93V2yzxOgYieQ4H1Sd2Y3sYql8FJyrz+Lk+UrT+uE+CCOHD4Jt9TmUVN1YTHqrRPxdaN3fSfu6m3Gn/l54JZ+IqJd27dqBF//8PJ57/k/dDi+99DfxAKHzh6uoYUBDdVWnOyC1SkBTvfjl3S7Jlco01taJ/2+XcAmGjtOuQ6rLICb4cBiOuU/8BmN9LmLfntMQOllnl+1srUP6LLa5WdwJNveyHddooLEwQl8n1iHXSTdPLYgxbRNPtdGA6hqhw+9WV9qXJyIyB7W1tXB1c4dWe/37tr19fDr2ymvLOgqpk2dg8rRpiIvWISY+Dl52QGNZCeqqjuLUuQZYx0zBxOHJiIgZiUnTRsK1B9/BtTXVMMILEWmjER/kBFQfxbGz9fAevhh3DUlCWHQK0mYtxuS770WyTzcpXXftq7lOnVU/XKf9hSi+LO75/UZj2t2TkDrxfswY6nXtSvyNtrmVXN45eR4mpw5GhC4NE6dOQ1KsC4RqcV92s/WbMSb5REQDWd1J7Pj0HXzw7hpk1vxEyVzlCez81zbk3txFHCIioh6pERPo7w7sxZO//jWefvoZODu74LFfPG76LA2DBw/G1ClTTZ/vumscNv675Sn8nar8Dtu3/YBqpxSMmTof49IigPPfYNOuDKg1jcj8ejW+u6BG8MjZmHj3XfCtOobs8uvf89eUuR37c+vgqhuPUSnhsEI9zn69Et/mGMW6ZuHuqTOQ5FmPc9+swjc5zghKGor4ToZo+5PdtK+pyzp35zRDrW7otv1qtbh9u75CVqkWXrqRiPNX4ezRTLT0h2iZ313919Nafk92MwJSZ2HS5IkItbyI77/6F842qm+6fnPGV+j1EOOhxHgoMR5K5hSP9q/QI6IWfIVe98wlFhLGQ4nxUOoP8Wj/Cr3bQVBpYetgB1VdJer1naRXWgfYa+pQU+eBESseQVzRp3h7U6Y8s3PSregW0utmmuohtLk2K71lx8Fei8aaKuiNagjqQZj5q1kI6qSHQPWRd/HhN3nXbV/7Ojvopv2mdlppITQ2Spm5aVp7163/OgS1DRzsBNRV1sPYyTputv7u8BV6REREREREA4za2IyGqorOE3xJczVqGgxism4BjfxK3OuRclmhqVGR4EvUxkbUVtdcS2b1x7H5tf/EW6/+pcOwZk/Lswiu174OdbbXTftN7ZQeztdFgi+5bv3XoRbqxfKNnSb4kput39wwCkRERERERHeEHrWll3Clopv7/HtJrRagb2pEc2fDLXr43DW3vv106zHJJyIiIiIiugPU6iIc/eItfLn/gjylf+nv7R8omOQTERERERERmQkm+URERERERERmgk/X7yHGQ4nxUGI8lMwpHp09XV+rtURwULA81rXa+lpcKiiQx4jMC5+u3z1ziYWE8VBiPJT6QzykfTnRjZL2c/3t6fpM8nuI8VBiPJQYDyVzikf7JF+lUuNXv/o19u3Zi6rqKtx9993Iyc1FU1PHl7xHR0Xj+8OHsHfvHnkKkflgkt89c4mFhPFQYjyU+kM8+Dpcuhlt93d8hR4RkRlydXNFbk4Ojp84jlwxuc8vyMfOXduxefPGDsOqVR8hIT5BLqkkaJzgHZaExMFDEB3kCgvjze00+hvBqIKddyziklORGBsOZ+3A2n4iIiKi20WVlJTUp4+sbG1tUVfHVzS0YjyUGA8lxkPpVsRj8uTJirP/Xp5eGDw4BTt27DSNz5g5A1u+3ozqqo5nVJ2dnbFk8TK89vor8hSZSyImz5iCULt6VNZr4OBojYYLW7H+X4dQISa/5k4wWsI//T5MH+SChrJyGOzd4ag/ix2frkNmtTWiJy5B+JX12HSsRC5BvSWdRAkZEQDLkxdwtqb3v1M9Kd/+Sn6ArYPppzngd6kS46HEeCj1h3i035cT9Ubb/d3N7uvu1N8Lu+v3EOOhxHgoMR5K5hSP9l38bjbJF4xOSJ7/KFIM32L9V3tR3KSClWc6Zi4YBeO+1/H50QpxGQ2c/CIR4KZFbVEOLhRXS/cJQNB6ITzCHhUX6+AQ4AOb2jycO38FemmeVMZXLONhjYaiLORcroFg6S0u74jyM1koN4iJmlMIor2bkJvdDL9IB1Re0sM9yAUVOZdgF3BtvPLMD7hUbyHXZ4m6wnM4X9xaX8/Xb++XCH/LApzJLYFRWsbWD9HBdrhy3h7pK+5C09evYvOZBgjqAIxetgyBZ9/HV+f9MHz8ZPhX7MGBk5k4l30ZTWo7uPuFwEeMR01BFi5cqb3alsqCJrj4u6Cp8CzyytXwCAmHp3U1Lp7JRpW4zVdjlt8EtyAPqKsvIvd8MZpg5idTVFaY+HQq7NbswpfnTRNMk6Xk3drKiKYm0ygElbGlS1/rySVxHNJRgcq60/Jtsbt+98wlFhLGQ4nxUOoP8eDzdehm9Mfu+honZ5fn5M8KNjZWqG/oeI9pb9yKOhwd7VFVXSOP3Zi+si2MhxLjocR4KPWVeMTH65CXf23nbm9nD19fX1NXfUlUdJSYiJ5DU2PHtlpbWyMhIRGHvr92YGF0GYqxaU4489XnpiukYu4Lfe0FXK4wQmOowqXiJgSOW4HZo6Ph7OiL6KEjEKbKw+n8KgjOgzFl9l2Ii0hEgLcfwpNSEabJxom8JgSNFcuMkcr4I0YsE9Cchcy6GEyZkwz9yaMoalJBHTYJ80a54Hy2I0bNuQvxkQnwE5PyuhJLDLr72nht7hloh67AnLvi4eEcgNghw8T6zsr19Xz9WdYjMHucD4qPnkalmCS6DFqAWYNUyPyhCr4psXCqz0fuxVLohSrkHduDkxdr4Bk3CfEBjrCxsoGdRSWyc1VInr8CkxID4OAYBN3QwXAqOYEcY6IpFvHhsfD2DkVcSgy8A4ZgcKQvPCOGYlBAPU5nFKDJFLPxSIjSwdvZDQEJoxDvWYVzWUVoloJvpmLvGY6Zifbwj/aCf2MxjuYZ4JOWgF8+EoWRI0IwYZg1Lh+/googHZ59wg3nvilBhcYFi/48FCFZebAYryx/7KJBrvmakppKDI7R4WhmhmncUlzEXL4/+F2qxHgoMR5K/SEe7ffl0vN1fvnLX+FK8RU0Nzdj6tSpsBCTfidnJ7i6uSmGMeljYGFhgby8PLk0DTRt93fSvu5m3Km/F96TT0R0J7m6wUm4gpJSeVykFnPNsqy9+D6zCILHCKQnaHH6y1fx6Zo38fGWXDgPnYC4q73DLFH83Wv48MNX8Pn3ZXCLiYeneyrSE61wZr1YZvVrWLM9C9qgSHjIJTqnQeGeV7By5SocqWg3rhqB0UnAibUviet5GSt3XITHyNEIN+0xer5+u8wTuGgRjrAgDQSjC8LDvVB++gdcbj6BvVuPoClsLpb//FeYO20CYn0doDYakbf/U5wsAapPf4XPtx5HnbUWDRcPYstHr+CT1W9gd64dwqNCWq42i20u2PsaPl75Dg6VeCJQ8z3WfPAmVm8Vk07/KARppWUk1qg8/gFWrXkbH326F43h45ESYL4JvuTUZwexI78e3729Fyv3iwcC7sFYPkOFDS/uxp+f3YU3MtyxfLYbms5kYO05byyYYAf/qTqEHjmBDXnGjuWJiMzIrXq+Dt08QdyhazQ3d3WcOmKST0R0JzU2oFmlhVYjj7dj5esL56bzyCnQm8YbcrJwCT7w8mpNSotxKa/OdGLgSkkxjNa2cPLzE8vkIDu/pUxNxr+wbv1+XOk2jy1FUUGddDmjw7iljw+cjfaImLgCS5Y9jDkpflBrPODqKC3Xi/U3ZyArV42QyDConXUIdy/C6YxiU9mKM1uw7oM3sH7X9yhSh2HEvT/DxOhO7nOru4zCUhUCxizH4gd/hbGhGmitbdCSv5ei+FKjWF81amuA5vJS1Ivt11dWoQ6WsLQyLSQqR35uqWnbhNIsXKyyhYeXaWMGDMsYd/iJ/7whkyIxc3YkhrgYoA11hYdKTOjXZaB0VCoeTyrDqvUVplsriIjMmYVa0+lbcTrTrG+GWlyebhPfSPzx92FwGmAPIL7dmOQTEd1JpZdRYvRBcKiNPEG6T9oBsVMexoLR4RCammG0sIZN6/GEmKlaqZrEg5FrO7+r+0H5p0Eqo7WFrVxGUFnB2s4aFoJROj8OtUXLdFsxIW+r/f60dVzQ68XPJTh7aDcOHhCH/VuwbeN2ZMvPienp+rXQ41xmFtQh0YiPiYZr4QlkSr0GnMMRnxgFN2M5LmXux+5/vY895y0RGhUKTbtGqYMnYdbERDiU/YjDO9fh2yxlF7f229A5a1jbyomryh7WYvLf3NxyQmKgUKtVMDY0oCC/GpekISMXq7+4jFp5vsrCAlby7wkREXVPet5LaGwYXB18EBSbjOgg96tvyRFUtnD110GXmIQgd3G/K05vXd7NKQDhugQEuorHACo7eIQmQhcbCsc2V7KlZ9w4+MQgNiERwR52Pd3R9RmC1F7p+S4yQfqfON52ukarFj92vl3Slf2eLC89Y8byao89mbi8uLczfZTKm85Zy+V6247+jkk+EVEv1NbVISAgsEf7XOnefWl5hfrjOHS8AaFjF2BEbAg8vSMQP2Y2UsMtUZRzHs0XzyJfCIEuJQSO9q4IGTIIXvXZON/NM1qEvCzkG4KgGxIMBwcPxE76OR64JxVOVeWoEjwQmRIP/+DBSEv0k0t0T3/xnNgGD/i4GVFZXIRGjyFIT/GHRRd5cZfrF+fpc08gW4hBarIHLmaeNF1pF+CF2NH3YHy6Dp4u7vAJT0W0rwZV5aUwqPRoajbCzj0Qns620NjZwlJfgguns1Dc5I1gf/uWlfaKDYLjk+Fm7wTvpMEI1hbhYl5remuujNAbLGHv3HJyo+FMGYq9rKE/UYgjh4vwY50NAmwMqDOqET9fB699B/D6SakLv7Ppton25YmIqA2HKAyfMAuz5i0R949pSJ/5M9w7wldM8L0xbP4vsGD6OMTpRmHSwhUYFyYm9K3L3zsXw1LGY8qipZg25wHMSE9F8piFWDBrCOzE717BaIXA0Q9h4dxpGJw0BpMXPoLZ4v6zXyX6fpF47plrV+Yt01Lw1yVuLdP/IxHzfjMKz7wwHn//7ySkuLTbLjdfPPziSEwPs+hyeUEs4j0yAf/x13T87g9j8MLvdUiU6/Galo4/zZZ7BfpH4bn3RuFuz5bRiIXj8PvJtj1rhxlgkk9E1As1NdXIOpuFp576HZ5++mnoYnX4zZO/xXPPvtBhmDRpCjZt2iCXbKFWCbi0ZxU2ZeoRNnoh5i1YgFGRGmRv/wTf5jUDtcewa+sJaJMWYdmKX+DuiAYc3bwVF5q7SbakMttOwCJxMZY/+DDG+JXhu637UGrIwMG952EdMwvTJg2B/vLF1ovv3av5QWzDSWji5mD+/Y/i7igVsg4dxOWuCnex/jLpFLqQg9Nnm6BVZ+P0GfmER/kBbNuRAYvo2Zi3/BHcO3UY7PK34+sD+WJ89Mg+dgil7nfh3mlDYX96Dw6VeGPUsieweGYyLMX4914JyizSMe/Bx3FvmjsKdn+FY+XyLDOlVhlwcl8xwpePw6PjxAPMohx8uEGDWS+m46k/pOH381xQeqEWltExmB9WhNUbK3F2/SmcS07AtBBVx/JERNROJ8+osbrJ58i4p3b6TJwwc8nYguxR+dEePP/7bXj7jDumjbt265za3QcPPRGMoo8O4t/n5Kfbdba8ezDum63Glhe/wQvPfoO/f2+PxYv9YG00ovBoMdQ6TziLn90T3GEsVCM6wQqC0U48XmvGiSPycUg37TAXfIVeDzEeSoyHEuOhZE7x6Oy1O7eKIO7wrW0s0FTXIH4bK5N4aZ6NnRZNNfU9vke6pYwV9LW1MLR95ZlaA42gV07rAcGohrWt2IZO2teZ9uuXzrarVTaImfE4Rjb/C+9vOg2hTT3S8rYOdkBdFRraPa1WmqcVE36DUapHDSt7W6C2Gs293QbXdCxZGoTjb3yMM1p7qOrFOlpfFzcACGoVLI0C9PI2CyoNnOyMqK4WA96Tf9N25dviK/S6Zy6xkDAeSoyHUn+Ixy1/Ha5p3xKB0++/i6PV4n4qYg4emyBgw2sbUBc7ErqwIPh6ecDJ3gaai5vwj2/sMX/ZteWjpv0H0hvX4p1tZyF43IVliwJx6t33cSpkEX4+1g9VFTXiflSktoWjcx2OfPwmvi/rH/suwTcCL9xvwEt/zkaluJ+xSEvBX0Jy8P92uOGFh4x49bmzKJX2P0MH4aX4fDyx2Rkv/NIV5SpnNK3fgTcPtHQbNNXTyfL/70wQ/keXhyf/cdm0HxNsA/Gb/3bG1seP4yScseC/o1H44mGoHx0G669LkDKmBn9dZYXf/lqLlf9xBpf8Ijut98n3rpjW25n++Ao9XsknIvqJqMVdeFN9Y6fJljSvsbahVw9BaylTZ0qwFQRDx2k9IPU66Kp9nemwfofhmPvEbzDW5yL27VEm+BJp+Ybqjgm+RJonJfimz2I7mmtrep3gX6OBxsIIfZ1YxwBK8CVqQdzuNtusNhpQXSP0/N+0XXkiIrrmai96+acqZPJNPUemy2fi3Nwb1+48tUrcj7ewsGiTbuoFtN75J4i7oqvhsDUie88VBE6JQJi2TZA6WV4l7b8M0r33MjGo0pi0FrWqEsd+tIFusDdibUtx4sRlnHX3wJBkD1ifKEJR676vq3aYESb5RER0e9SdxI5P38EH765BZs1PlChWnsDOf21DLt8CR0REspt+vk4XNHZ2N/UcmS6fidMsL9AfVDSi0t8diS4qCFpbDE9ylmd043IJ9vz7GN476Y4HH/KFYzf/MI1ZpbgS7Yt4WzFBF5dzGeoN/5wy5Mjzz/5QBr/pUXA/exkFqMCP550w825bZBytlJcYGJjkExHRbaEWalF2+TLqDT/dlWC1oQJF5wtQLfx0bSAior7lZp+v0xX9zT5Hpotn4hT3px5VtQXYussSs/86EX99VgeH4p4m1wZkrTuCbbaxeGSqI9Rd5flFufhokwZznkvHM38cjd+NbsQnqy6iVr5Kb8goxHlbC+SeqIBanJZ5vBI2mlIcyzbNHjB4T34PMR5KjIcS46FkTvG4nffkE/VnvCe/e+YSCwnjocR4KPWHeNzJffnNPEemVW+fidMnadXQNBlguE3tl54x42xvRHWVoVe3Nt4I3pNPREREREQ0QN38c2Ra6ujNM3H6pGbhtiX4EukZM1XVwm1P8PsrJvlEREREREREZoJJPhEREREREZGZYJJPREREREREZCZUI0aMuLmnBxARmbH09PQOD+vRai0RHBQsj3Wttr4WlwoK5DEi89L+wXtR7l6mn0REfU1n+3Kinmq7v+sv+zo+Xb+HGA8lxkOJ8VAyp3i0fyKvSqXGr371a+zbsxdV1VW4++67kZObi6amji9ij46KxveHD2Hv3j3yFECACwJ1wXA0jRnQVHMFhfmXUGuQ3ifrhYhIZ5SfPo2y2/jauZY2BELIO45Lbd7uY++biEDNBWRcrJCn3JiW+v3QnHMSl+v5QBxzxafrd89cYiFhPJQYD6X+EA++KYduBp+uT0Rk5lzdXJGbk4PjJ44jV0zu8wvysXPXdmzevLHDsGrVR0iIT5BLytSBGDR+CtKGj8CglHSkTX0AS++bhyhHcafhEIVh41Phbykve7uY2jAd06ekwhnXdlZucRMxNjFAHrsJpvrHIbzlTAb9BASjCkGpgYiwv7GDkZstT0RERD8dJvlERL1godZ0etW+M836ZqjF5TvSI3vna1j94Wt4/60PcEofhbQhYVfnGa28ERSTjJhQT2iN15IswaiBg28MYuMTEORhD8jzpB4AobFhcHXwQVBsMqKD3GHROk8q4yOWSUhEsIfd1TLiB2i8xmDCEM+r04xGwfSzpb4IuGjkZZ1CEB3lBysLT9N63JwCEK5LQKCrDaCyg0doInSxoXBsXd7EAEFcPlgnbke4L2xU1+Z11qbWbXBzDkJUYhK8rdvWRb2lVlsiauz/z959wDdxpXsD/kuyZBV3y70b925jU43BphN6EnoJhGyS3SRb793d5G56vt179+Zudpf0AoSSkEoKCaGGXkIvBtu44N67LVuWZr4ZaYwtWzIyGGLM+/wyQVPO0cyRzvF5NTNnghGj5ue6l70Ism4/IjH859LtszG+Zi2mJ4QQQsjgR0E+IYT8nHSlKKvqgNzeEcYY2R3D71+BtOQxGDfzESxMHwYxHwSztghIfwSL509FXOxYTFr0GB4Y5WtYx18BMGryXMxdsIxLl4q0Ob/AA2O8wTAy+I/n0jw4E8MTJmDa4scxL8nNEFQDTcg+cxUOo+Yhxd34QwTTGcsZ8ktDIBfD88Q+IzAxLR4u9hHG93ngQYxMnoQZS5Zj5vzVmJ02GkkTFmPR3BSohB8MACWiZqzA+IQkJE1ciaULx0HNBZD8cZjdJzvhGB5chNEJ0fDmYn9y86LmJyPdR4GRq1Px0Bi54bP1HBuHZ/46Dn94egJe/GMEouxYyEKi8cILEfDlPxuJExa/koZZfqJe6QkhZKjhx9cJDQm74eTt4yOkIOTuQUE+IYTccSJIVc5wcHCBW+BYRPvboKasGMbb8G1RfWwtNm5ci48OlcIhMhqG7oV6NNLipLjy5b/x8ZY3sXFHPpxGTEaMPb+SJ0Mll27Dhn/h859q4RoZC3cuzfgE4PzWf3DL/4n1e4rgNnY8QgwtvxianO34MVeF5KnpcBdzQZ7eeCa/bxKUHOL2b/27OFHtDn/JT9iy7k1s3pkJ+IYjQCpsxh2HPn8bNm16Fxs3fIdy9TiMiuIi9z73SYKyg//C+vWbcLqG7uW/FRc/O449xRoce+cQ1h9p58o9ECtni/DtS/vx8nP78EamGivnuUKblYmtVz2xaLIKvvdFI/jUeXxbyPZOTwghQwg/vs4TTzwFZycXSCQ2mDlzFqKiYxASGtprWvjgIqSmjhNSEnJ3oCCfEELuOBuETHoSK1b/CgtnjYS84HvsPFkprKtCaWGr4VVDVSW0MiWUXLxr6+0NJ20B8kp0hnVtedkohRc8PDqD4UpDOjE3W1VdCVauhCOfhrVD6JQ1WLbiMcxP9oFY4gYXJ357EbdtC3J2b8dV21GYNNYfYuFy/b7VoLK0nUvbhJZmoKOuBhqRCLqGRrRCBpmtsBn0KL2WBz23DposXCuXQO3uDpmXl/l9Mty/X4PyEu7Y+TRkQMki1fDhijZoahjmzAtDirMe0mAXuIm4gP7TTNSMG40nE2qxaVs9WCp/QsgQd8vj65ABw/C3D5rc7kcGAgX5hBByx3Uge8f/4t23/o63176KT3ac7jaaPtvttnnutfBS39EB1kYORect/lw0bSvSQqvt+sPYlc74j75Dxy2rRs6J/Th+lJuO7MCu7buRa/gNQcwF19z/tdn4cc9Z2CTMxkhPIXMuPfcnF2Ib46xSrjS+EFx/nz6JIZd3XuathIJ7qdO2g9H1tU/W5k36SywWgW1rQ0lxE0r5KTMfm7+oQIuwXmRjA1vh8yaEkKFuYMbXIQPCOwx/+dMwOFIHYEBRkE8IIT8DfXsr2rmgSw/rzprqCnNQzAQhOjkIDnYuCEpJhIcmFwV9PIWFKeLTuMHLlUVDZTna3VKQluwLG61xfecJ2/b8H7DnIuDhIQTzjbVo5NKFJcfCN3A4UuNv5n5EETyjRsHb3h6uYaMR6tKEomuV0BVdNb9PxgsUyIBhodPLYOdk/JDbsmpR6SGH7nwZTp0sx6VWBfwUerSyYsQujIbH4aN4/QJ/Cb+TcZyHHukJIYSYYsSO8A5PRFSYPxyu36rGj29jfsBbfkwaJ79YRMfGcH8b1fCOioKbYugFtgx/vN0GdDVcI2gYk6druUQq5l6aP3b+zL412xsGku1W7gbc9iI+PYdPb+jnCOn6ux93OwryCSGkH1paW+Hn52/VGWdvb2/D9gOi5Sz27TwPacISrFjzK0wPbcPp73fiWkcfQVjzGS7NBUhi5mPhql9iergI2SeOo4L7w8jf/955YkIs0qHowNe4UC8clC4Txw8VQB45FzOnpkBXUST8yewPDep04Zi5+tdYMi0MLT99jaNFXCRvcZ+EZGRAiEV6XDhciZCVGfhlhgIoz8OGbyWY+1Ia/vhMKv60wBk111ogi4jEwmHl2Ly9ATnbLuJqUhxmBvG3cvRITwgh5DpG7IOxS36JmanDET3iQSx56H4Mk/MBpPnBZRlGjtApj2DRrAzExqRhxqKVmDF5MsINt88NMT5heP7prjPzstRk/PcyV+Py/4rHgt+Pw9MvTsJrf0tAsnOPP/6u3njspbGYNczG4vadA8n+13+n4T+fmYAX/xSNeCEfj5lpeHaeMFiRbzief38cprsbZ0MXZ+BP05TW7ccQIPIPCDZ7VNY8ZP9GBiIPXx9PFJf0carKCoPlWKg8TFF5mKLyMDVYymPJ4gU4dPS4MGeUnj4RqWNTIZH0ffleQ2MjtmzZhIqKW9uH7hguOFeopNA2a6y+d5phxZAruTStbVyr348zs2IJJIzO6qsNeuL/EEsVdrDpaEa7XlgouOl9Iv3CiEWQsQx0hh92uHmRBI4qFk1N3AdiRbn3TN/d5bJCPDL/Qbz7xaeGeVU7O2TaD2pLTVF5mKLyMHU3lEfPv+Ue7h4YPjwZe/bsNczPnjMbO374Hk3c3+2enJycsGzpCqx9/V/CEq5tdEnDsuUxyNvyBo5U2iN4eDyQfwR54jQsXxqB3K3v4Ui5DsqYhViRrsPuT+owZnEk8re+iYNlDFSJy7FqvAvOf/IaDpUNrb+BjHcoXlylxz9ezkUD93fGhgvyXwnKw3/sccWLL7rh6J+P4PtKEWJXZeDBphN49qinYft/vtWKB34djIqNx/F1jt6Yj7ntf3TF0392ws7nzuBkswjqSSPxp8giPPvvErT6RuClVR34x0u5EM8Yi6dSpWjYexSv7pZi7stJ0P37AL61CTOb7/OfNwlH0Fv3v3f837pbcafqC53JJ4SQftq3bw9eevkFPP/Cs31O//jH/w5ogM8TcyF3e0tbvwZHE4sYaDXt/Q+mGf1NB/g8Lj6Evq13gM+76X0i/SJmWJMAXczq0dTMWF3uPdMTQgjh1FxGZokcSQt/i8Xz0+HacBnFtXqLg8u6BXrBsa0A+WV6w9/Glrw81AhZ3VOKKnGykuXKgMWlzFo4Oglj99i7YcV/xsPm+xOGAP86M9vzA8l65JTidLOxn1F9tAxlYWoM47cvLscllRtiVTaIjQaOflwGZZQaMhd3RKECpysMuVrejyGEgnxCCCGEEEIIsZJYVIXTn63Flm9+xNU6FaJmrEZGmE0fg8t2gJWqoOq8AFChxNALK7vhou/OINPGplu4qWPQOQQPw/CjvwiULHIPVsF/RiiGSbudKTezvYj/kVrP33svYPlBio3vJxY14OwlBaKHeyJKWYPz5yuQo3ZDSpIb5OfLUd75A7el/RhCKMgnhBBCCCGE3DNueXwdj/FY8sgCBLfl4sq5S6jS2MLZ2dHi4LKigqsoQwCikgJgb6dGRGI47ISshpz6djT4qhHvLAIjVWJUghUDD1RU4+A3Z/H+BTUefsQbDn18MO3ZNaiK8EaskgvQue2cR3jCN68WecL6nDO18JkVDnVOBUpQj0sFjpgzXYnM0w3CFvcGCvIJIYQQQggh94zm5iZk52Tjj3/8T/z5z39GdFQ0fv/bP+D5517sNU2dOgPfffetkNKIKT+FUwUKxD34JB5aMRNeDYdx8GwNl7GFwWWbTmPvnmyoRizHiocfRaqyHtVD8fQxr6UEO/fJMO+/p+C/n4uGfaW1wbUe2Z+ewi5lFB6/zwFiS+VTno8Pv5Ng/vNpePov4/Gf49vx0aYitAhn6fWZZShQ2iD/fD3E3LLL5xqgkNTgbK5h9T2DBt6zEpWHKSoPU1QepoZSeZgbeI8QQgPv3chQKQselYcpKg9Td0N53K6/5YxYCZWsHRqNzmSsE0uDyzKwhVIFtDWHYPqvJ6Hp06E38N51UjEkWj303Y5/IPEDyTrZsWhq1PdrnKKbQQPvEUIIIYQQQsg9QMy0QtPW+2kllgaXFaMdbS3tYCQSSIZobH9dB3PbAnweP5BsYxNz2wP8u5UoISFhUF8solQq0TpQz5keAqg8TFF5mKLyMDUQ5TFt2jQ6k0+IGT3P5PsphWcTDwHUlpqi8jBF5WHqbiiPwfa3nIE9PAJd0FFSgPoOClIHu+5/7271b92dqi90ub6VqDxMUXmYovIwNZTKgy7XJ8Q8uly/b0OlLHhUHqaoPEzdDeVBf8vJraDL9Qkh5B4glcoQGhJ2w8nbx0dIQQghhBBCyJ1BZ/KtROVhisrDFJWHqaFUHj1//ReJxPjd7/6A4qIiNDc3IyUlBWfOnoVW2y5s0SUiPAI/nTyBQ4cOCksIGTroTH7fhkpZ8Kg8TFF5mLobyoP/W97ZVhFyM+62M/kU5FuJysMUlYcpKg9TQ6k8egb5rmo1Fi1cjPfefc8w/+hjj2Hd+vfR1Nh7X93UbnjwwQV4483XhSX8fXjO8I8OhINhTg9tcxXKikvRouefJ+uB0DAn1F25glpu/nYx7oM/mMJzKG0SFnLsvOPhL7mGzKJ6YcnNMebvg468C6jQ3NpxMBJHeAcGwcNJivbqXFwtqIHuFgbZYVQBSEgaDj+HGpw7kA91nCfK+Mcb3eZ7IhmRCwKifNCedx6VNygTRmwLX08WpSW9B20aTCjI79tQKQselYcpKg9Td0N58H/LCblVFOQL7pWGw1pUHqaoPExReZgaLOXRM8j3cPfA3DnzsX7DesN8X0G+k5MTli1dgbWv/0tYwgdw8Zjz5Ex4NdejRSeCVOUIeXs29n36CS7bjMey5cG4+M46nL/F4Lgvxn2YBe/yPdi69QjqYXyvgCn/gZmyHXj92wuG+ZtlzH88aj/+Jw5X3MJxOMdj2uwZCFZp0KCRwN5BjrZrO7HtqxOoZ/ufL8P9tQud/p+Y4lGA8zmZuJTtiMlzQpHz5Tqcrb29wTQjisPsp9JR/8mNH5fEhETgxSV6vPdCNootBPkMd/xBY/wgu3ANOc23d98toSC/b0OlLHhUHqaoPEzdDeXRYvvztJNk6Llbgny6J58QQu44HXL3rsXmDWvxwdvrcFEXjtSUYdfXsbaeCIhMQmSwO6Rs1x8ThuUCXe9IRMXGIcDNDhDW8VcABEcNg4u9FwKikhARoIZN5zo+jReXJi4egW6q62m4F5B4TMDkFPfry1iWMfxrzC8UzhJhW8cgRIT7wNbG3fA+ro5+CImOg7+LAhCp4BYcj+ioYDh0bm+gB8NtHxjNHUeINxSirnXm9qnzGFydAhAenwAPmQMSJs+Ab/MBfPLuP7Dxg1fx/paDaPabgomJzl35WFkeEu7QnANTEOwhQ3tdBWoqa9BSn4NTRw/jWkNXmuvvb2/9sVoqY4a1hZNfLKJjY+DL7Z6+e/H0Jecynn/JGOAzfF5C2UmkYu6l8bVYLEN4ejBi1PxcV8Z88C+TCTPdMFxetlJ+Pdvr4oCeaTrfk/9RRK6SXH9PQgghhNwdJI5Ozs8Lr00oFLbQtPW+x7Q/BiIPBwc7NDY1C3M3Z7AcC5WHKSoPU1QepgZLecTGRqOwuESYA+xUdoiIiMTZc2cN88nJyTh79gy07b33VS6XI44L/E781HUlACvyRMTIEHRkHUJ+vQgs0wSZz2hEKEtwqsAWsfGh8AtJhL+HF4bFj0E4t/xifi0XMssRkP4w5o2PgJODNyJGjMEwUSGuFDeCcRqOGfMmIiY0Hn6ePghJGI1hklycL9TCf8IazJ8YCzcnP0SljIRfRw4ul9tz++CNijOF8EhOhE3+WZS2srAPHoMIm1ycqPTl8kuC7sJplGtFEA+bigXjnFGQ64Bx8yciNiQKnp5cgJkcCU+/FAwP84Z76Agk+mlwJbMEWjF/jBEIDOSCY1cXeESMQVIIUHjpGppZOfzHP9x7n1ojMYPPOywOPm5ytNYqEJHsiKyvPzecqeYDU13LNVTUs5DoG1FayR1bxhrry0Ochzr1GER520MhV0Alb0VRpRcy5huPs0xpTHP9/atlSJx+42Nt5z4Xc8eTWcogdOojmDN6GBwd/BCdGAZ7KYuazGMovMGZd9YnDC885YQzB2rRxr/+jS/cU8Iw775wzJ9kj+rT5XCaMQpz4u3gG+EB3/ZKnC7Uwys1Dk89Ho6xY4IweaQcFeeqUNEuhv/k4fj9Y6EYNdofKe6OGLtKjdIfKlELkdk0lW7ce/7WH4HjozA3hsGlY/VoMXNFQXVzA4ZHRuP05UzDvEw/dNoPaktNUXmYovIwdTeUB98+WTN5OjhA39xudp21U7CnJ9rqms2us3YaiP0YLHkMtfK4W+oLncknhJA7jr9M35lr6F3gFjgW0f42qCkrhvE2fFtUH1uLjRvX4qNDpXDggijDGP3q0UiLk+LKl//Gx1vexMYd+XAaMRkx1x/XKkMll27Dhn/h859q4RoZC3cuzfgE4PzWf3DL/4n1e4rgNnY8QgwtvxianO34MVeF5KnpcBezYPTGM/l9k6DkELd/69/FiWp3+Et+wpZ1b2LzTi7Q8w1HgFTYjDsOff42bNr0LjZu+A7l6nEYFaUyHIflfZKg7OC/sH79JpwSu8KRqUJ1jSEzAzFXPrXZh/DT5XIwbmP6VR7qqGg07tuCC9VA05Wv8fn2n1DXK27t9v6GYQmsOFZLx+M5BqOjWFz44t/YsuUNbD5ZhZu+WjTADg0fHsQLf9qFd7LUmJnhgIufHceeYg2OvXMI649wf+jVgVg5W4RvX9qPl5/bhzcy1Vg5z5XrkQRh5TQdvnjuR7z03EFs1TkhVMjWYhr+xL2vAqVv7cNfXitAhZkAnxBCCCGDFwX5hBDSD+0dWmTnZEGv13Gx0M1exmyDkElPYsXqX2HhrJGQF3yPnScrhXVVKC1sNbxqqKqEVqaEkouxbL294aQtQF6JzrCuLS8bpfCCh0dnAFZpSMcHwlXVlWDlSjjyaVg7hE5Zg2UrHsP8ZB+IJW5wceK3F3HbtiBn93ZctR2FSWP9IRYu1+9bDSpL27m0TWhpBjrqaqDhgkBdQyNaucBaZitsBj1Kr+VBzweImixcK5dA7e4OmZeX+X0yjERYg/IS7tj5NO1t6BBJIZUYMuvlZspDKayxrNv7C/M3OlZLx+MW6AXHtgLkl+kN+9CSl8fldpOKKnGykuXyYXEpsxaOTnJhRRdZpBo+3K4HTQ3DnHlhSHHWQxrsAu8wF7heLsUFbh2/H8UnKlB2gzSGOwAM72nN94EQQgghgw0F+YQQ0g/tbW1QqlSYO3cenJ0dUVtbLazpjw5k7/hfvPvW3/H22lfxyY7T3UbTZztv6eZedv2MoO/oAGsjh6Iz6OUiTFuRFlpt1w8NXemM/+g7dNyyauSc2I/jR7npyA7s2r4buVxgxzf/Yi4vsTYbP+45C5uE2RjpKWTOpWchgdjGOKvkAuTurLtFW2y4XcFICQX3UqdtB6Pra5+65V1TgWrWC4HBCmEBf6+4PaJmPIZF40PAaPtfHtboeWw3OlbLx8Ptn1QFVef+KZToHZpbScfA+FMG935c3G1ul8RcBM9y382S4iaU8lNmPjZ/UYEWbmOxVCIMrcjhXnfefm8xDb+SYUEhPiGEEHJ3oiCfEEL6YcWKh9DU1Ijs7Cw8vPoX2LVrl7CmN29vb7S0CtFrD/r2VsMPBvqu8KtPusIcFDNBiE4OgoOdC4JSEuGhyUVBHwO0MkV8Gjd4ubJoqCxHu1sK0pJ9YaM1ru88Yd2e/wP2XAQ8PIRgvrEWjVy6sORY+AYOR2q84YaBfhLBM2oUvO3t4Ro2GqEuTSi6Vgld0VXz+9QZxXbSnMOJc20ITl+EMVFBcPcMReyEeRgdIkN5XgE6DMfWv/K4HSwdj6jgKsoQgKikANjbqRGRGA47Ic3AYKHTy2DnZPwQ27JqUekhh+58GU6dLMelVgX8FHo0ZFahKMwPaV5iMCIZ4tPc4WJIYTmNRlhPCCGEkLsTBfmEENIParUbDhzYj/MXzqGkpBhSmRSPP/YrPP/ci72mqVNn4LvvvhVS3qKWs9i38zykCUuwYs2vMD20Dae/34lrfT3fvfkMl+YCJDHzsXDVLzE9XIRs/pnwhsfPSQxn8nlikQ5FB77GhXrhHLEuE8cPFUAeORczp6ZAV1HUn5PhAg3qdOGYufrXWDItDC0/fY2jRVwkb3GfhGQCsYhB6cFN+O6yDsPGL8aCRYswLkyC3N0f4UBhx82Vx+1g6XiaTmPvnmyoRizHiocfRapdE+qEJANBLNLjwuFKhKzMwC8zFEB5HjZ8K8Hcl9Lwx2dS8acFzqi51gLUFOCDD5sQ84s0vPTicMQXliNbyMNimjtchIQQQggZWPScfCtZyoN/hjYhg0X351XfrMFS9wdL+9HzOfmrV61BWVkpamtrkZ4xEa+++nd0dAinxu8AhgvOFSoptM0asNfvHe8bw4ohV3JpWtu63W9uBbEEEkZn9dUGPfGPYJMq7GDT0Yx2vbBQ0J994o9ZrrAxu+3NlMftYOl4GNhCqQLamvtZ9lZixCLIWAY6ww833LxIAkcVi6YmrsC59+M/A1d3OeorjeUjCo3CX5fr8OpfslAl7E/PNNai5+T3baiUBY/KwxSVhykqD1NUHqaoPEzdqfKgIN9KlvIwBACHDglzhPw8LleW9eps36zBUvcHS/vRM8iXSmUYO3YsVCo7HD58EPX1hmHYCRmUGBtHzHs6CVGVFcissUFQohuw5yhe22P+NpL+oCC/b0OlLHhUHqaoPExReZii8jBF5WHqTpUHXa5PCCH9wJ+1//HHfdi+/RsK8MmgJ9Y14MuXD+L9PdUoL63ErrX78dpuw9B6hBBCCBmiKMgnhBBChjAxo0NlTiWOHy7HpVLdbbltgBBCCCGDhyghIeHmr+u9A5RKJVotjE49GEybNo0u1yc/u56X6/sp7Q3/3usGov0w1PFul+sTQox6Xq4/lNqdwd73uNOoPExReZii8jBF5WGKysPUnSoPuiffSpbyoHvyyWBA9+SbNxDtR8978gkhRnRPft+GSlnwqDxMUXmYovIwReVhisrD1J0qD7pcnxBCCCGEEEIIGSIoyL8N+NG3Q0PDbzh5+/gKKW6MgQPcg8Php1YIS24dw9jA0SccAV5OEDGMsNSIsXGBN/d+Hg439xW5njeXh2EKHAYPFwfYiEzfpy8Mo4I6MBy+rnJhiZUkKjj7RCIiOg7+3LFJudLr1J88GcYO3sMnINZbJSwhhBBCCCGEkMGNgvwBJhKJ8dRv/gPDU0YjPDIW6ROnIjo2wfCan0aPGc+tG2V4vWjJcqSOGy+k7JvYfwJmzV2C2TPHwqVHQH7zHBE2cQlmLlyBUT4yYZnAIQ7jufcbE6oUFvRNHpiGCZPGwNumc9+Mec+at9Q43b8SD676Ax5+eCWG+1gbtPsjac4STEn0Fub7xheLXeAkzHvkP7B00WJMmvYAZi3+DVYsnYcwR2Gj/uSpisHotHSMGx0B6YCVOSGEEEIIIYTcPhTkDzAXV1e0t7fhyy+/wK5dO6FUKnDo8CHDa36qq69Dbl6e4fXWj7YiPj5RSGkZw4gRGBMFORdoMi5xiPAa2I9NJFEjcfpUeEq6BbJ6Bv25q9vWIwrRcZFwtREWCNian/DNxjfx8aZ38eU3P6CQGYZR902Fr3jgg2ax5yTMnjcObq3ncXDbe9iy7g18vesnNDolYeK86abHZ42WE9jx8UZ8tuMMOsRUVUgXw9U6IWE3nLx9fIQUhBBCCCGE3BkSRyfn54XXJhQKW2ja2oW5mzMQeTg42KGxqVmYuzm381hiY6NRWFgozHH7a++AhIThGJ6cjOTkFK6T742QkBAMTxpumA8eFozAwEDEx8UjJDQUEokEJ44fFVKbx9pEY8zUeIjP/4gilwgEiQpwNre26zFIigAkTpyD8eMzkBgbCTdJNYpL6qFjgzBm2RIk2LGwT5iB9HHjEDHMG7L6ayhv0oFllfBNGAkfphFN9kEIVhYj82oNGC5f1tYP0UnDwFw7gitlWvCX36vjpiM9fSpGjhyOIHc5msoL0dQBuI9cjekJXpDL7KAeFotwx3pcLNAY89ZfwfHD51HX2oSmmiIU6HwxPNIfbblHUNQi4vKVdss3AYFedmgtvYZGLl+WdUPI6Bg4VJ3Dmby6PveBYewRd9+DiJBdwa6Nn+BydSM0mmY0VuYgp8mDK+9YKGqPIafKxTRPGw9Ej5+LCRlTkDI8EQGuItQWFaGV4cqADUDK3GmIsilBZpGroSzj7URwSpiK8WNGItBVh8pCFsEZc5A2fiISwjzBVuaiqlX4McHC58KX70CrbmnmyjUapy9nGuZlesM/N2Ww1P3B0n4Y6nhxiTBnvFrnN7/5HVQqFey5+j5t2nToGQaOTo6GH/m6TxPSJsDGxsakjZCqwxER5A83dy/TyUWCJu57q7uF7wcDZ/hFR8LXJG9HMHXV0HDf6TvB/D44g62vMtSr/jDmFQJFcwVadKZpGakHQiJ9Iarljo21Ll9G5AJ/Lj+5mfwGE0ZsCx8v7vvQOLgfd1fd3NCr3Rkq7cdg73v0x0DkQeVhisrDFJWHKSoPU1Qepu5UedDpydugjSv0T7ZuNUxVlVX4+uuvrs9nXsrE0SNHDa937/pBSNE3eUQC/KUNyL18ADl5GqgiEuErMa5jGCckzF2BMaGOaC7MRmmzA4ZNWIRxIfy9+wrYqz3gP2omhqvbUVFYhHbHaIxd8AhGe3TrOFYfxN5T1XCInYNxQcI9/2zXmXz+SnU1F8g/MDkBzrpSFBU3QD5sEuY+OBXuYgbtDUWobNJyW7ahvuwaSmstf3Ht7R0hggb895LP1230Ki7f4XBly1BS0gxlQDpmLb0fgTLTs+432geIA+DrY4PmK8eQqzX9WrdnfYvPPt6A06XCAoGh7OavQXq8H8R1+Sgs74Bz9H2YMzUWNvwbCuXnbG97/XXAyCmIdmhFdYMUXvFzMGc1V/b+UjRW1kDsnojxs9Kh5tL2/bmQu5mLqwtXxzXYtm0bdu/ejdq6Ouzdtxvff7+917Rp04eIi40TUhrJveORmDyGm9KQOvE+pI7hX3NT/DDYCdvcNLE/EifNQOooIU/DFA/Pfg5rwbByhE1egxkJamFJP5jdhwR4W3fnjylDXhkIcRDmu7MPx8hJqQjoV5XyRTyXX5iTMDtYBQfhF2u4Nk2YNYdhRQgY7Y9Qu0H9FFxCCCGE/AwoyL8NWFbPdfxrDZNO14H6+vrr8xqNBs0tzYbXjY1NQgrL+IHiwqOGwaYxE7llOhRm50Arj0RkiHAPvYTrCHraQJu7E9t3foPdn63H7oPHUdbGrWeNnT9R61l8v3ED9uz6Ats+/BoFrCvixyRCJqyHiEHFoc9xusYeUVNnIYAPsBm2a7g621iMGuUD3eXP8dGnn2H/zi34dPtZtLuMRnKkFA1XduFEbj23YR1y93+DgxfKjOl4ck8ERSciPDoJsSNmISPeHWjOR1Ett842DiNHcvnmfImtH3+KfT9swSefHkCdKhZjkr2M6TvdYB/gooYT921uaKgWEnQRsy2oLS1EJX95QHcSFtXZJ3Bq1/vY+vln2PP1+ziaq4OtXyg8hU16EtUdwVebtuCHzzfidIUYdqpKHNmyDru+24id5+ogcgqELx+Q9PW5GH5AIHcrG7EEOq1OmOtbB1f/xdz23TWd/wSbN7yOjeu/Qz6XTdmRdw3zmz85gDafeET4OhvqLgMn+ETFwdteqMdOwYiI8IOCX8dKYO8diajYOAS42V2v60Y65O5da8zTMH2CS80iMCIlXHyjER2fgAA1F3ELaQx5eXF5xSUi2F1lWO7oG4MAb094BEQjItgdNn28J39GPZhro1ydAhDO5e0l55f33IePcL6B2wdhWxd7LwREJSEiQG3I25CPhf0D9GBs3BHItSGRId5QiDqXm+o6jngEuhmPw7jcFk5+sYiOjYEvt9t688kHl5zLeP6lbBSLuDLjj0M4ZolUzL00vhaLZQhPD0aM4XeYroPig39ZjyFWePwVRLZcU8nn1/PigJ5pOt+T+zMAuUpy/T0JIYQQcnegIH+wc4hDmK8Y7dVNkAWEwEtfhxrGFkGR0cazzfoCFJZoIYtcgIeWL8fEtFC0Zh7G5dImrpNm7Ml1FGWhSC981O1ZuFbCQuLmBVfjEq7nyHUcdSU4/v1+VCtjkTElFgo917EWVkPtAzcp1+FTp+C+B1Zi1vzluC/Zm+tWiuDi6iFsZJ7IMRrjZtyPydPmYvy4FLh35ODQN3tQyd/jzudrw6DoygVohXvedZXnkFsjgpOn7/XOv8GN9qFDy4UVXAAm6TEoQB/EbANKM0+jmA3D2PuW4/7lT2DcMC69QgWVhZrRVlqIOsO+1qOlhfuntQrVGsMq1DcafrmAlO8s9/W50P39xBKPJGRM5uoJ/9p9OPd6NibEGuuYV9IcZMR4cEGqLQLSH8Hi+VMRFzsWkxY9hgdG+XLfZ8uBGCP2wsiFv8KiWRmIiR6HqYvXIGOYggviuLwmcHnd35nXLzE3yQ2O/rHw5OJsW3U4okO8uLrYx3vah2PU5LmY++AijE6I7vuMfee2C5YhLTkVaXN+gQfGeHMBqKfZ/TNSImrGCoxPSELSxJVYunAc1D0Cff44/Mdz+/fgTAxPmIBpix/HPO44GEaO0CmPGPKNjUnDjIWTYN0wnj8znzA8//QwOPLly7/+r3gs+P04PP3iJLz2twQkO7OImp+MdB8FRq5OxUNj5IaA3HNsHJ756zj84ekJePGPEYiy4wN1EfwmDceL/52GPzwzDr9fEIff/z0KgVzeltIY3vMviVj1bAaeecTP+H0khBBCyF2Doo1Bzjk6Hl5iEeTDpnId44cw7/4J8JaIIA2ORyjXBxaLG3D287fxw+FzqGbdMCx5Fu5f82tMjuy6vpXVdz9zrOPiYS4ctpHiejgsEhu+CPqKH7HrSAlkYbOQEdHtsXFc1CrlwmmGH4yPESZ9AyrzslHFB7p9YGuO46t1/8LmdR/ibA0DsYhLV9FmXCmVcvnqoTfZvw7o9Nwuyfj37OZG+9BQhTotV17uXODB//jRDSPzQ/TodMT6mj4Kj5EEYhwX2M+ZOh7BLmJoavKQV9r3PTIsa5q3JdZ8LoT01JibjWqHAPg5Ak7+gVBp2+HgGww59x3y91Wiglvf5jYGaXFSXPny3/h4y5vYuCMfTiMmI8ZeyISr2YFcwLtwyRrjNCUOcpkN2oqOY8eH/8JHm9/A/nwVQsKDANdRSIu3RdY2Lq/Na7FldzakAWHQHP4IF6qBpitf4/Od59B6w/eUoOzgv7B+/SacquV/XOyxD/NTob7+I4QMlcfWYsOGf+Hzn2rhGhkLd1up+f0zpLGFPn8bNm16Fxs3fIdy9TiMiurxWEv1aIxPAM5v/QeX7z+xfk8R3MaOR4jnGIyOYnHhi39jy5Y3sPlkFWwH7y3ulgXYoeHDg3jhT7vwTpYaMzMccPGz49hTrMGxdw5h/ZF2rgwCsXK2CN++tB8vP7cPb2SqsXKeKxfFB2HlNB2+eO5HvPTcQWzVOSFUyNZiGr7YfRUofWsf/vJaASoG8bgAhBBCCOmNgvxBjGHcEBHpBbbuJHZ89B4+65z2XEKbOBjhkY5gpM7wDQ1A++Wv8e2W1/De258gW+OEsMQ4KIVOtczTB06dga84ED6+XPhcV4Ua4xI+IgXfheNPMFef+Bw/ldkgOC216+xNDRdAs2I0Z3+Lb7dtNkxfb9+Hy1lHcfxit0vzua+TxPTKZEDXjIbqStTVXsWJY1egtU/C2OFuxnU13HJWCk+fbufW5EHwdgE0XBpN947lDfchD1k5TZCFjsNwj66fB/gnE7gNn4Hxo5PhjB6/SHjFIsxRhJL9a7Fx80Z8990ulHf08+ZlC/r6XBQ9foQg5LqGLBTUuMMn0Bl+fu4oOXkU5e4BCHAeBl/nCuTnNsDW2xtO2gLklRhvGWjLy0YpvOBxfZwNFo3F55GVKUwFldC1lqGsRgS/CSux9OHfID1YAqlcAZUP1zZo85BbbMyrOfMrfLrtCKp6BHU3fs8alJe0Xr96qNc+5JRAuOCFU4nSwlaIuU2ruHrOypVQWtg/Y03Wo/RaHvR83posXCuXQO1uem5Z5uUFJ9YOoVPWYNmKxzA/2QdiiRvcAr3g2FaA/DK94f1a8vK62r27SVElTlay3DGwuJRZC0en3u2ULFINH+4jCJoahjnzwpDirIc02AXeYS5wvVyKC9w6vgyKT1Sgs9W2lMZwB4DhPamtIoQQQu5GFOQPsJaWFri4qiGVmpyHNsuT65i2tHI9LAvEXkng+meoyTyCq6WFKBem0rPHcLVFBO+oeNjbhmH0tNmYNnMmYiKiERkbAw8V0F5bjes5u47F9PvSEB6egJSZ9yFU3o68M6fR2tkhF3HBufEV94WowWku2C1lbSDtXN90GmdzNPActRQTUxIwLCIZqXOXYtr0B5AkPM6vpbmJ69Z7IDR1PGIDrj+U3kTblT04Wy2Cx4gpCOHv+286g7PZrXAavghTRyYhNGIEJtw/HQGSMpw9lSukEtxgH8RiPa7t/wG5bZ4YsehXmJGRjoSkVIyd9QvMG+WN1qu7cKq4R4e1uQEtrAhOQSkID0tA8qSlGBlo/eX+fZKHW/xcuoIdcjdq79AiOycLer2O+853np0eGGJRDfLy6+DpPwEBXuUounwRRbV+CBwVBPeabOQ1cCFvRwdYGzkUnZVWZgtbkRZabee+6FGbexxnz54wTtnlYIKmY+4Urr2ovYSTez/FgWzjFSt6LZeXlAuyOwfyFNlCrpKb3irDufF7Cifdr+uxDxfy0dLth4Pr2wr/ioKmmd0/IzHk8s6gVgkF91KnNR1RltHxTwupRs6J/Th+lJuO7MCu7buR28ofnwqqzv1WKDEwP+PdYTrGcDsSj/+N0PTTMRJzETzb1oaS4iaU8lNmPjZ/UcG1cdw6qcTwQ64B97rz9nuLafiV3cdlIYQQQshdhYL8AdbMBbvHjh7Cb3/3O/z5z0/DyckZT/zqScNrfho+fDjum3Gf4fXEiRnY/s2XQkpTfEfOOzoWDmwpsi9XCkuNxLiGrKx6iDzjES49it27zqDJMRkT7luIjNRQoOBHfLcv8/pZtfrs02jyy8DkmfMxMliCksObsSez21lt4XL96xqOY8/BXGiFnrhY3I6cH9bjQB6LwLFzMf2+2Uhw1+Dqj5uwP884mJ328m4cyW+FS/QkjEsO6RrUrxsxqnD26EW020Zg1OgAbl6DnJ0bcCBHC//RczBlxgxE2FXg9LYtOF1j2r20Zh/EbRewY+Mm/FTEwCNmPFLTpyAxWI6K059j2/bTXMe1x9e99jD2HroKxjcNk2bORfIwFsUF/H31A6DhmOXPhe7Jv6u1c0GRUqXC3Lnz4OzsiNra3oM93orKqzloC45GYGM+CprqUHRNg2FhwWjIy0I9V6d1hTkoZoIQnRwEBzsXBKUkwkOTi4JyIQMzJColZLpqXLuSjUqtJwL5Eeg4+sJsFOsDEJ0SCHt7N0RNfRSr7x8NR3RA28FCpfaHu5MSumvcdv16TzEUTj5w9/AWJg/Y2ZgLTY0kXHma2z8jETyjRsHb3h6uYaMR6tLElYlpm6grusrtnxu8XFk0VJaj3S0Facm+EBVcRRkCEJUUAHs7NSISw2/9CQaDBgudXgY7J2M735ZVi0oPOXTny3DqZDkutSrgp9CjIbMKRWF+SPMSgxHJEJ/mDhdDCstp6IdIQggh5O4m8g8INtvzcnF2QG1dozB3cwYiD18fTxSX9NF7tcLtPJYlixfg0KFDwtzPhxFJobRXQdTaAI3O+JEyTCSm/XYR3E69hY2HKrn1XGe9qQG6nsFuP/Bn+uztpGhvboSONc2H/2HCRm7LRfwaMP19D7ECdgodmpvabxgE97UPnRhw5aESQ9tixb7Y2MFRqUdjfQvYAQ7AzX0ut8PlyjI8Mv9BvPvFp4Z5VfvNv9dgqfuDpf0w1PGjx4U54NFHH8fly5mor6vHzJmz8f4H76JV04qmxt77GhUVhZEjx2DduveEJV0YNhRTf7UQ8v3/g28u8Y+gNGK4oDR9zXIEZm/AhgNF3EHMwMP3h+Dyx//EkQp+tHXAMXQapk1MgodCwtXpApz+4XOcKG4FI47HnCenofXrv2FPfteZc0bigxH3L8QILyVXP6tRWmcLn/aDeOvzU1CGT8e0jM688nFi+yc4Xa6FbeBkzJyYDI/2o9j84T4wYdx25t7TJQ3Llofi8vvv4Qw/ir9hH2YhwOTMfSPOffIaDrSPN902ZD6emMLg27dOwP2BRb33b5sOM56aDHlxC5x91ZAyLSg5uQ3fHclDm2tXXqeaRIYymWo4DhG0jSXI3L8VB3M1cI6ag/vSY+AsBTQlxWjzcUIhty+Hyrr2b7BhvEPx4io9/vFyLup8wq6/buDKlElOxGvxxfjd+1VwHZuAJ+e6oPL7o1i7pw3+ExPx8FQV2hpZKKSt2PPmKeznvv7qxEgsme0BN6kWOXtq4T5Tgi9+fwl5XNtoNo3E9D0tuVxW2KvdGSrtx2Dve/THQORB5WGKysMUlYcpKg9TVB6m7lR5UJBvJUt5DJYg35zOIN/z3Hv48EcuWCBDFgX55g1E+9EzyH/mmWfxyisvGl6vXLEKe/bt5rZZBqWi9wPbG7jAf8uWTaiouLV9MIeBBAqVFNpmDdg+ArFODCuGrR0XRLc0oaPr4m0DY1620LW0QN9tHb9cKtJBzxqX9fc9+6PP/eO+zlKFHWw6mtGuFxaawechV3L719p2/UomHgNbKFVAW7Pp8qGAEYsgYxnoOj8jkQSOKhZNTfwIpsYfhVzd5aivNH5motAo/HW5Dq/+Jev62As901iLgvy+DZWy4FF5mKLyMEXlYYrKwxSVh6k7VR4De9qSDDKtaKgsRW1L592chJBbVVZaiunTZmDkiFHw8vZGRXkF/ud//ornX3i21/SPf/zvbQnweWIuHG9vabM62BaLGHS0NPcKoHnGvFpNAnwev7wzwOf19z37o8/94xbp2/oO8Hl8HlpNe69AVYx2tLX0Xj4UiLkovjPA54lZPZqama5jlToi7fHR+NPj0ZjzYBx+vcoL5fuLTQZX7JWGEEIIIXc1UUJCws2f8rsDlEolWvsYnO7nNm3atEF7Jp/cO3qeyfdTXn+22T1tINoPQx3vdiZfKpVh7NixUKnscPjwQdTX1wtrCBmcGLENPIe5IMhdjOb8alwq6RiQgL7nmfyh1O4M9r7HnUblYYrKwxSVhykqD1NUHqbuVHnQ5fpWspTHYL5cn9w76HJ98wai/eh5uT4hxIgu1+/bUCkLHpWHKSoPU1Qepqg8TFF5mLpT5UGX6xNCCCGEEEIIIUMEncm3kqU8+LN8hPzc+DNpdCa/t4FoP+hMPiHm0Zn8vg2VsuBReZii8jBF5WGKysMUlYepO1UeFORbyVIeFACQwcBcZ/tmDZa6P1jaD6rjhJhHQX7fhkpZ8Kg8TFF5mKLyMEXlYYrKw9SdKg+6XJ8QQgghhBBCCBkiKMgnhBBCCCGEEEKGCArybwORxBYy17jrU1BQGEJDek/ePj5CCkLI3YR/jJ65Ot1zojpOCCGEEELuNAryB5pIDJdRf4ON+3jAKR6O8b+FX1AEQkJDe00LH1yE1NRxQkJCyN1AxNXxJ554Cs5OLpBIbDBz5ixERcdQHSeEEEIIIYMCBfkDTKJwh75Dg/wT61B09kt0tFbh0OGD+P777b2mTZs+RFxsnJDSiIEzfKMTuaCBn+IQEuADe5sbD6LGSD0wLDocLhLL2xrzjoeXXe9tGJEL/KJj4a64+QHbCLkXuLi6ID8vD+fOn0N+fj6KS4qxd9/uftZx8/Wwv6yp9zfLtC3qnCKhllr/XtSuEEIIIYTceRTkDzCRyAasXivM9a1D1wGxWCLMCcT+SJw0A6mjxiAxOQ3j7luJZSsXI9pJWG+JfThGTkpFgEKYN8eQ9zREuQnzJnwRPykDYTd6H9JvDCtCwGh/hN5kUHer6cnAsuHqrFbbLsz1zXIdt1QP+8lQ78fATy7M3wKGlSNs8hrMSFAbF5i0RZ1TAryVxtXWoXbl50LtDiGEEHLvoiD/Z9TQ0Iivvt4mzHWnQ+7etdi8YS3ef+t9nG0PwZgRoYY1DCuBvXckomLjEOBmB7DmO2CG7by47eLiEeimMrsdw9rCyS8W0bEx8OWy0lNf7rYQi2UITw9GjCF26ipkvhMtkwkzHEbEreOnTobXrMX0ZOjpq3531elEBLt3r9MsWMb4Su4RhYjIYXAUsxbz4s/+B0eFwrnz7L9jECLCfeDuE4MAb094BEQjItgdUsP2nW3R68L0Ec43iIQ8hsHF3gsBUUmICFDDpjN/alcGBWp3CCGEkHsXBfk/A7HMwXDfvmva22j2WgORpI/T7/oqVNd2QCJTQMTIEJD+CBbPn4q42LGYtOgxPDDKF+JugQCP72T7j+e2e3AmhidMwLTFj2Nektv1Tj6PYRUInfIIFs3KQGxMGmYsnARvYR0ZWFHzk5Huo8DI1al4aIycK3vAc2wcnvnrOPzh6Ql48Y8RiLJjIQuJxgsvRMCX62QzEicsfiUNs/xEvdKToYmvt5bqt2HdBG7d/Z3rfom5hjrNp+SCfO5fecA0zH9wGkKkDWjQWc6LP/s/anIaAoVmR+wzAhPT4uEbEAtPJWCrDkd0iBekxtXmGfKYi7kLliEtORVpc36BB8Z4g2Hk1K4MEtTuEEIIIfcuCvJ/Bsrg+6Ep+RHV+x+BtuY8lAEzhDWdxHDwT0BEVCLiR85GcpAYZYX50LuNQVqcFFe+/Dc+3vImNu7Ih9OIyYixF5J1Uo/G+ATg/NZ/YMOGf2L9niK4jR2PkO6ftvsYjI5iceGLf2PLljew+WQVbEXCOjKgLn52HHuKNTj2ziGsP9LOfT6BWDlbhG9f2o+Xn9uHNzLVWDnPFdqsTGy96olFk1XwvS8awafO49tCtnd6MjRx9dZi/ebXxdsiaxu3bvNabNmdDWlAGIxX/DOQ+U7DvFnRaDq0Ed+dqwJjbVvRTcXhj3ChGmi68jU+33kOrSK+QbBB4PhHsHDJGuM0PxXq6z8WylB5bC3XxvwLn/9UC9fIWLh7ULsyWFC7QwghhNy7KMgfYCzTzgXuZ6GUaiERC9fQ9iCW2ILtaDS8ZrTNEEl6niURwy1sPEaOmoDRo2IgyfqE67g3wtbbG07aAuSV6AxbteVloxRe8PAw7UXLvLzgxNohdMoaLFvxGOYn+3Dv6QaXbvfF2np6wrGtAPlleoi55C15eagR1pHbSxaphk8rEDQ1DHPmhSHFWQ9psAvcRFzH+tNM1KSOxpMJtdi0rR6sIdAi94K+6rdxXR5yi43rmjO/wqfbjqDK8PXwQ8r0FDiWHcDuM5VguO+MtW3FjbFoLD6PrExhyimBRlgDVKK0sNXQflRVV4KVK+Ho4UXtyiB1w3ZnHLU7hBBCyFBBQf4Ak6EZGdF6rFo6F1HB9mA15cKaLi3522AXtgLOKS9CFTQTrUXfC2s66ZC7+59Y9/6/sTOrFQ4evrDj+lz6jg6wNnIoOsfxktnCVqSFVtt5Zs2I0enAstXIObEfx49y05Ed2LV9N3K5Dl4nQ15SFVSdeSmUoAsy7wwxF/2wbW0oKW5CKT9l5mPzFxVoEdaLbGxgayPMkHtGX/XbWF+VUArrGJEt5Co5jA/eaEPh2Qto8k7DpDgXw205fbYVhv8kEAvfMSUXnFumR23ucZw9e8I4XchHS7cA8PpJfeFfalcGL2p3CCGEkHsHBfkDbMWKh9DU1Ijs7CysWf0LdBR8Iqzpom8tR82hJ2Bj54vqg0+BaasV1pgSi3TIO3YUVS4jMTbKDrrCHBQzQYhODoKDnQuCUhLhoclFQY/fEXRFV7nt3ODlyqKhshztbilIS/aFTbdB/3VFuShDAKKSAmBvp0ZEYjjshHVkoLHQ6WWwczIGR21Ztaj0kEN3vgynTpbjUqsCfgo9WlkxYhdGw+PIUbx+gb+U1kkYb8E0Pfl5tbS2ws/Pv/sQFxZ5e3sbtu9NDIWTD9w9vIXJBZJr2Rbrt6Hu6wMQnRIIe3s3RE19FKvvHw1HQ14NKDvzFb47VAWvCQ9ilJdN321FYy0aufYhLDkWvoHDkRrvY8gF6IC2g4VK7Q93Jy7wNxxgz/30gF0fj/RkuLaH2pXBop/tzmFqdwghhJChQjRmzBgruqrEkrS0NBw6elyYA5555lm88sqLhtcrV6zCnn27sWDBUq6jbXq27K2334Au8hXUHXsarL7FcNk+jxHHY86T09D69d+wJ18EfoTswClPYZZ/Nr5Y9y2ag6dj2sQkeCgk0DUV4PQPn+NEcSsYlzQsWx6Ky++/h1NNIjiGTsPUDH47EbSNJcjcvxUHC8Ku570rTwTnqDm4Lz0GzlJAU1KMNh8nFH7yGg6VUaduoLmOTcCTc11Q+f1RrN3TBv+JiXh4qgptjSwU0lbsefMUjjpG49nlDN579jIKbFyw7IUYNL9zEF8XmKZ/Y2/XBdOdLpcV4pH5D+LdLz41zIerPQz/klvXs47z0tMnInVsKiSSzlPW5jU0NmLLlk2oqOj6Jc5Yx2chwOSMeDZ2vfYxykIt1G+ulXYMm4ZphjrNr8vHie2f4KR2VLd6r0Lo9Ecw1acYO7Z8hiofS3mJ4Z60GLNSg2CrrcbVIg3CfKqw7Z3tqAmagpkTk+HRfhSbN9ci7anZPfazEee4NuJA+/jr73ummWunQubjiSkMvl37JRqi51K7MkhQu0MIIYTcm0T+AcFmg3wXZwfU1hnvG79ZA5GHr48nikt6X/LeH7fzWJYsXmASAKxetQZlZaWora1FesZEvPrq39HRYf65+e5TPoGuMQ/tFUfRkv+VsPTGGEigUEmhbdb0ee8k35mXK7ntWtu4T9r8dgxsoVQBbc2WtyEDgxGLIGMZ6FhjOTMiCRxVLJqa9FaVfc/03fXsbKvab/63u8FS9wdL+9Gzjt9ufdVv4zpb6FpaoIcV35m+2gqxBBJG1ysfPo1UxC038z2zFrUrg8edbneGSvsx2Pse/TEQeVB5mKLyMEXlYYrKwxSVh6k7VR50uf4A27jpQ2jaNFC7ueGtt163GODzWgu/R+2xP/UrwOeJuW55e0vbDQdHEosYaDXtfXbkxGhHW0vf25CBIWZYk46ymNWjqZmxuux7pidDU1/127iu1aoAn9dnW8HozebDp7mVAJ9H7crgQe0OIYQQcu+hIH+A8UH9jz/uw/bt36C+vl5Yal7zlXXCK0IIIYQQQggh5NZRkE8IIYQQQgghhAwRFOQTQgghhBBCCCFDBAX5hBBCCCGEEELIEEFBPiGEEEIIIYQQMkRQkE8IIYQQQgghhAwRFOQTQgghhBBCCCFDBAX5t4FUKkNoSNgNJ28fHyEFIeRuQnWcEEIIIYQMVhTkDzCRSIwnnngKzk4ukEhsMHPmLERFxyAkNLTXtPDBRUhNHSekJITcDfg6/tRTv0FS0nCEhYVj6dJl/arjDJzhGx0PLztWWHLzGKkHhkWHw0Vy63n1ZNzPRO7Yuk+RUEv7/17GvGLgoeid9maOgRG5wC86Fu5m8hsKGLEtvL1lADs0j48QQgghtxcF+QPMxdUF+Xl5OHf+HPLz81FcUoy9+3bj+++395o2bfoQcbFxQkpTjMQRnsMSED88BREBLrAROnvWdIgZeQASxo6ARz8641J1eI/OvDCF+0BOHU1CruPreFubBtu2bcPu3btRW1fXvzou9kfipGmIchPmb4V9OEZOGgM/uTB/CxhWjrDJazAjQW1cYNjPGUgdNQaJyZ1TAryVxtX9YsgrAyEOwnx3hmNIRYBCmLeKL+K5/MKchNmhJjgIv1gTwB2lZQwrQsBof4QOwI9FhBBCCBlaRP4BwWZ7CC7ODlzntVGYuzkDkYevjycXKJcLczfndh7LksULcOjocWEO8HD3wPDhydizZ69hfvac2djxw/doauyd1snJCcuWrsDa1/8lLBE4x2Pa7BkIVmnQoJHA3kGOtms7se2rE6h1Ho9ly0Nx+f33cKZZJCQwxbilYuHsEOR8uQ5na81v05N93ALMTuSjDhuoHO0BTR1atNys5gJ+2Lof1SLr8iG98Z3xoDF+kF24hhwLn1lfrEl/uawQj8x/EO9+8alhXtV+8x3/wVL3B0v7Ya6Oz50zH+s3rDfMP/rYY1i3/n2r6zgjjsecJ6eh9eu/YU++6efJsBI4+oTBz1WKlvI8XKts4i8d6Frnza1z49qD8mzkVTSDceXbg2BcfGcdzmtEkHtEIdClHWVZV1GntzGbF/9DYUioA+qysrltuLwdgxDhqUV1kxcSJ0+Db/1BHL1wGTn5npjx1HTz+2nIww71Ra2w9/OCoqUQVwuqoOPzFymh9gmCF/e+zSXZuFbVAkaSwB1zKqo/+wRlTn5QtJejILcEGu67zbikmbRpXccpQ2vZVRRUNhv3m7WFi38YfJxY1BWIEb8qHU2fvoZDZebrxN2MYVmI+Z/g+fLp9loiFYPR6rmX3DGLbDHlz6Oh2rIPXxbwqTq/J9z3wJaFlm+/u2G4NAobFhotC4lYZHKRQM80ne/JMCIo7SRob9YZ37MHc+3OUGk/Bnvfoz8GIg8qD1NUHqYGqjymTZsmzBFy7+lPH96aektBvpUs5THQQT7DOiJp4S+RrD+AbV8fQqVWBFv3NMxZNA7s4dfxaUGcaYfYXIda5nm9E18j5l/boaFEC2dfZ2jLclBYJ4ZbUAjc5U0oyspFI9/RFzBsKKb+aiHk+/8H31wy9vjsvOPgKytBVn61oaPHKH0QEahCVX49nIPsUV+shWuAG8RNRcgvqIT2emfTfGf9nmNlZ5wRcR1r/gW33ICbB187RXKz6bujIN+8gWg/7lSQzwexAemrMD1GjsbadqhcVWg48RG+OFYMHeQImMCti+XW1eng4KpA5cF1+KIgCstWBOHC2+uR4zEd82dFofHAh/j2bCP8Mlabz8vww0BXGyKOWojHxzbh8EUPxCb4QKWtRFXRcWzfxWKypSDfEJinQN4sRkdHOxROdmj8aR22HGMxcuFypDi3oaYBcHQV4er2d7C7IJw75ilwb2Wga22Azs4NioaD2Lb1ICq7/XB5qkkO//GrMCPBHpp6LVROUlQcXI/PTzUjdOoaTA6VoL6uA3YqOVilHllDNcj3DsWLq/T4x8u5qPMJw4sPK5DZ6ohwtQJqVGDj/5xFa0Yqlmc4QFTTiCs7TuKDw+3wTo3DqvucINKKIdeU4+PXL+NikxgBk5Pw8BQ7dHDl33qpHpKRenz2+0vI49oSs2kcuPdco0I+64KQpjys/Uc+KijI77ehUhY8Kg9TVB6mBqo8+CD/0KFDwhJC7g2XK8v63Ye3pt7S5fqDjXMcIrwacOHHQ6ju4DrgXL+qvfIA9v6wH4UaOcTdPndG7MV1qH+FRbMyEBM9DlMXr0HGMIXh8tdRk9MQyF/+ang9F3MfeBAjkydhxpLlmDl/NWanjUbShMVYNDcFqhtcjq9TxyJ92jj4C98Wl5gZmDwyEDbyCC7veZi/cAFGxgzHyBmPYPF98Yb8+IDFfzw3/+BMDE+YgGmLH8e8JLd78h7TqPnJSPdRYOTqVDw0Rs6VDeA5Ng7P/HUc/vD0BLz4xwhE2bGQhUTjhRci4MsF94zECYtfScMsP1Gv9GSIUo9GWpwUV778Nz7e8iY27siH04jJiLEX1sXbImsbt27zWmzZnQ1pQBiMV/wzkPlOw7xZ0Wg6tBHfnasC4zbGcl4WVBz+CBeqgaYrX+PznefQagjqbBDI1eOFS9YYp/mpUF+vwzJUHluLDRv+hc9/qoVrZCzcbaVoKzqOHR/+Cx9tfgP781UICQ8S6r0t9PnbsGnTu9i44TuUq8dhVJTKmFUn7jjHJwDnt/6Dy/efWL+nCG5jxyPEcwxGR7G48MW/sWXLG9h8sgq2Qy+2tyzADg0fHsQLf9qFd7LUmMkF9xc/O449xRoce+cQ1h9p58ouECtni/DtS/vx8nP78EamGivnuXKNTRBWTtPhi+d+xEvPHcRWnRNChWwtpuE/Ll8FSt/ah7+8VmA2wCeEEELI4EVB/mDj4gpHpgrVNcI8hw/0a7MP4afL5WC697VsbSx0qIX110lQcmgtNq5/Fyeq3eEv+Qlb1r2JzTszuY5cOAKkwmYWtF6+gCKbEAwLkHABqjNCQjxQd+UM1/Hj18rRcG4dNm15Bx9+fAjtIZOQzAWmljrrw+7Bb5y1nXFtVia2XvXEoskq+N4XjeBT5/FtIds7PRmSbL294aQtQF6JzjDflpeNUnjBw0MkrMtDbrFxXXPmV/h02xFUGeqgH1Kmp8Cx7AB2n6k0XJbdV179w6Kx+DyyMoUppwQaYQ1QidLCVkP7VFVdCVauhLK1DGU1IvhNWImlD/8G6cESSOUKGJsYPUqv5UHPB4yaLFwrl0Dt7m5Y00nm5QUn1g6hU9Zg2YrHMD/ZB2KJG9wCveDYVoD8Mr3h/Vry8tCtiRz6iipxspLljp3FpcxaODr1/rFPFqmGTysQNDUMc+aFIcVZD2mwC7zDXOB6uRQXuHV82RWfqEDZDdIYRmUwvCdj2I4QQgghdxcxf7rf3MQzt7w/072Qx4Brb0OHSAqpRJjvSyvXWbPYoe6uBpWl7VwHrwktzUBHXQ00XEdb19CIVsggsxU2s0R7Cdn5YgSFDYPYKRoh6nJcyawUVtahOJ/rbnP5MTXZKGpUws3DwWJn3cVZSHYPs9SxduM68Bc/zURN6mg8mVCLTdvqzd4Haw1z31Vrp1tNz09DLY/u2ju0yM7Jgl6v40LgXr+o3TR9RwdYGzkUnXWfq5i2Ii20Wta4TsoF0cI6RmQLuUoOG8Pbt6Hw7AU0eadhUpyL4ax5X3nxu8xCArGNcZWSC84t06M29zjOnj1hnC7ko6Xbd/L6SX3hX1HQNMydEg/72ks4ufdTHMjmGpzrxJDLO4NTJRTcS53W9EcrRseVKVuNnBP7cfwoNx3ZgV3bdyO3lT9+FVSdx6NQ4p66pkXHwPhzDVdGXNzdWezdibkInm1rQ0lxE0r5KTMfm7+oQAu3sZj7g3L9U+Ney4SXFtPwKxkW/Q3xO+tLzzrU32kw5HGr6fmJ8jCdKA/TifIwnQghRubqR8/Jmu3E/PX85iaeueX9me6FPAZcTQWqWS8EBncNNc2w9oia8RgWjQ8xuVxfHDi1jw61qVu5Sl4s0uPq5WyIgyIQGxkBl7LzuFwvrOS62nKl0H0U2UFuC3R06Cx31i3v4j2jz441R2Rjw1+kcUvMfVetnW41PT8NtTy6a+c+O6VKhblz58HZ2RG1tdXCmv4QQ+HkA3cPb2FygeRaNoqZIEQnB8HBzgVBKYnw0OSioJyL8QpzUKwPQHRKIOzt3RA19VGsvn80HA15NaDszFf47lAVvCY8iFFeNsbtLeSFxlo0Mm4IS46Fb+BwpMZ3Psu/A9oOFiq1P9yduMDf0Gj03E8P2Bl/WTBLwpWLTFeNa1eyUan1RKCvnbCGJ4Jn1Ch429vDNWw0Ql2aUHSt88dCI13RVW6/3eDlyqKhshztbilIS/aFqOAqyhCAqKQA2NupEZEYju4535tY6PQy2DkZ29+2rFpUesihO1+GUyfLcalVAT+FHg2ZVSgK80OalxiMSIb4NHe4GFJYTtN1tUb/dNaXnnWov9NgyONW0/MT5WE6UR6mE+VhOhFCjMzVj56TNdvR5foDrKW1FX5+/lYF1d7e3obtTWjO4cS5NgSnL8KYqCC4e4YidsI8jA6RoTyvwORyfYlK2UeHemDp8s8jl4nE6CQ3FF2+YLgSwEiBwNgkuNo5wjNhOAKl5SgqbLHYWbfpEJLdU6zrjLeyYsQujIbHkaN4/QJ/Cb8TxIYvkml68vNaseIhNDU1Ijs7Cw+v/gV27dolrOnNbB03kCBw/MNYsNg4PbhoMoJaz2LfzvOQJizBijW/wvTQNpz+fieudXCfewu3btd52MQvxcqHH8MEn1oc23kYNde/EixqTn+GPTkKJN03FyHsGct56TJx/FAB5JFzMXNqCnQVRYYzwyKRDrlnT6BGPREPzBwB40U3PfdzERL6ePSf7spBnKj2xLgVv8bSOUmQNTcJa3ga1OnCMXP1r7FkWhhafvoaR4s6z08Lmvn9vgBJzHwsXPVLTA8XIfvEcVQ0ncbePdlQjViOFQ8/ilS7JtQJSe5V/I+vFw5XImRlBn6ZoQD3BwIbvpVg7ktp+OMzqfjTAmfUXGsBagrwwYdNiPlFGl56cTjiC8uRLeRhMQ01NYQQQshdjUbXt5KlPHqOvM1LT5+I1LGpkEj6vua+obERW7ZsQkWF6fExIkcEp87CuBh/ONpKoGspxpXD3+LApUqTkbFPaXwx4v6FGOGlBLTVKK2zhU/7Qbz1ox0WrhC2kZmOpB0+87+Q1r4V7+7KAeM2ESuW+OPiex/gbIuxV2dudH0eP1icb/pvMC+mFDvf3oocLlgwjrAdhZZrcngH2EGkr0PegU+x81wFdFwv0TF0GqZmJMFDIYK2sQSZ+7ficN7NniO6u7mOTcCTc11Q+f1RrN3TBv+JiXh4qgptjSwU0lbsefMUjjpG49nlDN579jIKbFyw7IUYNL9zEF8XmKZ/Y2/vMqTR9c0biPajZx1/5pln8corLxper1yxCnv27ea2WQaloveD3i3V8b4wXGCtUEmhbdb0ul3DuM6WaxNaoLciEusrL4glkDC6XvnwaaRcwK/vfMpDPzGsGLZ2XJvU0oSOnnlzX0upwg42Hc1o1wsLzeDzkCu5/W5t4399EJby+2YLpQpoazZdfi9jxCLIWAY64fNiRBI4qlg0NXEFzJURX+au7nLUVxq/A6LQKPx1uQ6v/iULVUIZ9kxjLRpdv29DpSx4VB6mqDxMDVR5mBtdXyqVITAwSJizrKW1BaUlxcLcrWMYGzj7DYOTmVtaO+oLUFyt72N9PreeEdY3oTKvGBoz51VlLsHwcpKguYxrj1sc4JuSDNeyn3ChtPPaztuLYezuyHteL0u2EsXFNdAbngsrUHkjwEOJppJsVGvufBkMBrdrdH0K8q1kKQ9zQf5A4TvbcoVNr45ud311qAcK30kUixSInP0kxnZ8hQ++u8J1CjuD/ACce2MjsqRckK/h9qFHYGCps34vulFn/EZ6pu+OgnzzBqL96FnHV69ag7KyUtTW1iI9YyJeffXv6Ojo8VByQgYJxsYR855OQlRlBTJrbBCU6AbsOYrX9pi7wqR/KMjv21ApCx6VhykqD1MDVR49g3yRSIzf/8fTXGBYjObmZsPVcZVcW6bTGX8ldnF2gbajnVvXgrDwUJw4dgSHDu43rLtVDOOKkQ89hZFuvftcTafew7q9LRbX1x1/ExsPaA3rR6g1uPz5/2DvNdNRThhGjZGrnsAIVx2ubHsRu8rG4MHHpsOj8Gu8++lP6OgeCA8QeWAaRoXokP3jIZTqxGAUo277e/I6y3IEsxcbP9yHxu7vE7kYv5oegEuf/j/srba+DHoey92MHqF3DxJDD62mvc8AUCxi0NHSfNsCfAN7rhH49e+R7lWEwweNAX4XCSQ2LHSt3D6YCT75/bvRMdwrxAxXTt3KSMzq0dTMNfpWlk3P9OTnsXHTh9C0aaB2c8Nbb71OAT4Z1MS6Bnz58kG8v6ca5aWV2LV2P17bfe+cISGE3L1cXF3Rxv29/fLLL7Br104olQocOnzI8Jqf6urrkJuXZ3i99aOtiI9PFFIOHLbmJ3yz8U183G365lSpsNb8+u/OVAlr+S6eEiHxcZDyo6Z2I/YdgSjXbn26lhPY8fFGfLbjzG0Ltm09ohAdFwnXznGf7sB79ks/9qfXsZBeJI5Ozs8Lr00oFLZcR/bWHtc1EHk4ONihsenWRmu7nccSGxuNwuISYW5oYnV1qMi/iJ8OHUVZe1eDxGobUF1WhMraRmgp+PxZVTc3YHhkNE5fzjTMy/q4FPpGBkvdHyztR886zjB6FBQUICcnm+t8tAlLCRm8RCyDltoWlBQ1o6rJ+h8Wb8RcuzNU2o/B3vfoj4HIg8rDFJWHqYEqj5CQEBQWFgpLuHztHZCQMBzDk5ORnJwCbx9vwzbDk4Yb5oOHBSMwMBDxcfEICQ013CZ74vhRIfWtYVklfBNGwkd/BccPn0ddawtaW5oNk0bL9Lm+raPbegULsbMdNJdOoUJrbHsZRoJhafMRzUWorIhBzZX9yKsNRMrcaYiyKcGVkiYwUMAneRbS06ciZXgcvGxFcEmZh7HqKlwscMKYZUsQZyeGS9J9SJ8QD3HOKZTqPRE9fi4mZEzh0iQiwFWE2qIitDIiuI9cjekJXpDL7KAeFotwx3ouH3vT92SkUMdNN7znyJEJCPSyQ2vpNTR28PscaHjPeCUDu9hJGJ+Wgdhh7mCr8lHVKnQ6FQFInDgH48dnIDE2Em6SahSX1EMPlbEs2HycP1eA9u5/g9xiMSLUCVWZB5HfYFoGlvJTj3q417FculZr1f53LzOFTTjGTYyD6No5VLYJn406FXMemAl/3RXkVd2ZkzjV3Hemv314a+otncknNyRmWlBbUQGN3rRjKNbXo7ygBE1c40EIIYQQQshAauMCmU+2bjVMVZVV+Prrr67PZ17KxNEjRw2vd+/6QUgxuHQU5qAUfoiO8xSWcBTxiA5VoCEvBw3CIm4h7NUecLa35QJSEbzHrcHctGjYtxWhpKwVrimzkBLErXfgx/8xbus/cgri1B2oKirhAllnJMxfg/R4P4jr8lFY3gHn6PswZ2osbBgG7Q1FqGzig9Y21JddQ2kt/6NM9/fk4u3Rq/DA5OFwZctQUtIMZUA6Zi29H4Ey/ioE4T1Hz0CSB4vaqkbYeg/HhHnT4C1muPROSJi7AmNCHdFcmI3SZgcMm7AI40J6j1dkWff9sZyfuWOxev+7lVlVcQXE6nBEhneNKOweMRx+rnpUF3Z9MncrCvIJIYQQQgghgw7L6lFbV2uYdLoO1NfXX5/XaDRobmk2vG5s7P40lwGkHoP5j/0HVv7i98L0S4zy5oNGQa/1CxFu27Ve3HYJmbntcIkZCU8YlzvGcoGkuAyZlyyMYyBPQMpwNXRXv8HWTz/Dvh824+OvT0PT45yapP4YPn/vffzw3Q+42gZUZ5/AqV3vY+vnn2HP1+/jaK4Otn6h3PsCDVd24UQu//zrOuTu/wYHL5QZ8rjONg4jR/pAl/Mltn78KfeeW/DJpwdQp4rFmGQvYSPueJp/wjfrPsSubz7Al0dKALtQBPExsiQAvp420ObuxPad32D3Z+ux++BxlLXJ+A/RmLhXWf0eK9JDjOt66iO/hswfeh+LlftvUmZFZ5BVwcItNAb2DP9DhQdCw1zAlpzF5bs/xqcgnxBCCCGEEEJ60dagrOAqCq9PBajrfqder/Ul4MdT7iQS6ZFz/iI0drGIDZUZAsnoWF8whSdxqVFsfkQttTdcxSzK8q9AJ9ybrivIRnGPp85qivNQK6wXsw0ozTyNYjYMY+9bjvuXP4Fxw2wAhQoqa6I9tQ/cbBgUXbkAbed7Vp5Dbo0ITp6+sBEC9faiXFQK6+vLy9AGJZT23Iy+AIUlWsgiF+Ch5csxMS0UrZmHcbm0qesWsV5ldRXF1RZu8+grP3P361u5/yZlJq7HlSvFYN0jEerELXCPRbCTHoWZ59Bm7j3uMnf/ERBCCCGEEELIQGvMwtEdX2Lfzq+E6Ttk1XYLn3qtNx3tXSQWQX/tJ2TV2yI4Lh6qgBGIdG5H/oVz0IgkMPuwbS7AlEAPTUv3RybrwXa7gMCoaxR2RhKIcVxgP2fqeAS7iKGpyUNeaT/GSZBKIeXeQ6/v/iYd4B9kIJLJuHVGjL7bLxjcDnXugVjcgLOfv40fDp9DNeuGYcmzcP+aX2NypIOwBadXWX2FvRfMX81gVX7dWbn/3cuM15R5FiWMF4ZFuMItIgpOHTnIunLrT58ZDCjIJ4QQQgghhJABxj8GUMyU4OLFEkj8R2PGuFgomy/iQk47F4VZGNOqugw1jA28g0MhEUbll/iGwktmeGmeVyzCHEUo2b8WGzdvxHff7UJ5h1xY2Z0YEnO/LNRUoo6VwtPHW1jAkQfB2wXQVFdCc4MBWxmpM3xDA9B++Wt8u+U1vPf2J8jWOCEsMQ7Kzsv1+6Gv/BRCmZgcy83uf8sFZF/Twz10IpJCXNGeexa5Q+ShSRTk3wZSqQyhIWE3nLx9fIQUhJC7CdVxQggh5PZqaWmBi6ua+5vbdR7WEk8vL7S03oYzsMoARI8cj6SUcdenhGFc5GgtLsjnw8u686dRwrrBy0uO+ssnUMpyIZhYbD4Qaz2DE+frYBe3EAvvn4/xU5dg0bwRcOwr0G5uQAsrglNQCsLDEpA8aSlGBpo+X66luQksPBCaOh6xAY7CUkHTGZzNboXT8EWYOjIJoREjMOH+6QiQlOHsqVxhoz7IwzF62mxMmzkTMRHRiIyNgYcKaK+txk19Kn3kx1/f0OtYbnL/xeJ25GRmocMjFmEuGly9eAXMELhUn0dB/gDjf7F74omn4OzkAonEBjNnzkJUdIzh0R49p4UPLkJq6jghJSHkbsDX8aee+g2SkoYjLCwcS5cuozpOCCGEDLBmLpA7dvQQfvu73+HPf34aTk7OeOJXTxpe89Pw4cNx34z7DK8nTszA9m++FFKaYqBGQMIIxPaYYhLSMSYttddyforwMY4KL7IPwfC0ydx2XdOIcA/DOqtIRMb77lvPGgbgY5kSZJ4TnrPPn+U3vjIhFutRvPddfH3oCpqV/vD1VKLmxC5cbuzjjHjtYew9dBWMbxomzZyL5GEsigtqhZVG2su7cSS/FS7RkzAuOQSybmfYDcHuzg04kKOF/+g5mDJjBiLsKnB62xacrul1n0BvDcewe9cZNDkmY8J9C5GRGgoU/Ijv9mXyHSdho37oKz8uCO95LLZc6H+z+6/NOYcC/ux98wVcKbTi+XV3CZF/QLDZb4yLswNq6xqFuZszEHn4+niiuMTC6JNWup3HsmTxAhw6elyYA1zVaowbm4bvv//eMD97zmzs+OF7NDX2TuumdsODDy7AG2++Lizpwkgc4R0YBA8nKdqrc3G1oAY6rpIwUn7kRyfUXbmC2h6PtOvEyAOQNNwDZSeOo6LjxhWLYcVwCYqHly4fl4v50SqNGFYJz/BwODRk4WpF79/hrNkXcmdcLivEI/MfxLtffGqYV7X3/9KoToOl7g+W9sNcHV+0cDHee/c9w/yjjz2Gdevf738dZ2VwC42GW8tVXCm7TaMCW4mBM/yjA2F6p1srKrKuoEbXu253b2PK4NnvdoARuSAgygfteedRKQwXbKnNuxcxYluuU8eitKT95jpHd4i5dmeotB+Dve/RHwORB5WHKSoPUwNVHtOmTcOhQ4eEJQOHESdizm/mIqBHe8pyQS4/lp3UTDvbdOo9bPix65n9dxJ/NbrCdxSilZk4fdX42TCy4Zj7y9lwOPU2Nh0UfiQwx8YOjko9GutbwJo5I83nbSO35SJbDfe338K5XrECdgodmpv4Wwr6dz6YEUmhtFdB1NoAje7m+6Kd+srP4rH0c/8Z+5F44OEZUJx8C5sP9XjqwB1wubKs3314a+pt/z45ckM2Ygm0Wu5LZYUOXQf33TNzY4xzPGYs+yXmT52AmLg0TJj7OJbNGwEnEfeh24dj5KRUBPT12El7P4RGRMGLH+3SCmIRV0s8U5AxdRTXXe/2xbKPQ9q0ifBXdB9GtBtr9oVwwZwIAaP9EWp3c43draYnA4uv4zptjyFuLbBYx3mKGKROvw8Tp46A603crzagxP5InDQDqaPGIDG5c4qHp7nb+Xjd25ibagd8ET8pA2H8aLa8vtq8AcSwcoRNXoMZCWphySAVHIRfrAngSskyahcIIcRKunP4fu3/w9v/fqXH9Dd8+Ka55a9gy8GfJ8A3ckLomAkYfd8jmDN1KkalP4j5y6bCD9XIyb5BEKprRkOjxmyAz+MXM1ycYjHA5zH8owk7rAqQexKzHWhrrB+QAJ/XV34Wj8XK/WcYZ8TO+gWWLJ4Mr9aLOPpTibBmaOj/p0duK4Z1RMLkGfBtPoBP3v0HNn7wKt7fchDNflMwMdFZ2KoLI1LCxTca0fEJCFArjc+irM/BqaOHca2BWy/1QHDUMLg6+iEkOg7+LlxPXKSCW3A8oqOC4SAxVpraSxdQqYpEmE/Xr5lO4VFwb83ElQK9+ffpxvg+oXAW8oNjECLCfSDntmNYCey9IhEVF49AN1WvtEOdWCxDeHowYgxxRdex8510WbdBVBg+oOke1BhesxbTk7ubQ0QsfJqqUWcfgwivrnrXVV8SEezeVV9uvNy0fjFiR3iHJyIqzB8O3W5ntLSc6xkgd+9abN7wujB9gkvNohu2MT1Z3B/WFk5+sYiOjYGvHaA3LuaW37jNM+TpzeUZG4cANy5xZ54W2h1bG3dDu+di74WAqCREBKgNj89x9I1BgLcnPAKiERHsfv2ROoNOzmU8/1I2ivmrt/h9FNoFiVTMvTS+trZd6cRwedlynzefX8+TVr3aIuE9Ge4fuUpy/T0JIeRuJBYz0HHBYEePSdehgUbTe7lh+hmv2uYf7Xb+y/XYd7ECcp84RIVy/enmKzj6xQYcLxs6l5P/7CR2kEna0Vx4HLu3fY289qEVFosSEhIG9V9vpVKJ1tsxkMYAMVxa1O1SXg93Dwwfnow9e/Ya5vu6XN/JyQnLlq7A2tf/JSzhOldO47BkZSzyN72O4zXGnhjf0VKHp2KY5Cp+Kg/DkhWhuPz+ezjV6o2RC5YhxbkNNVxn29FVhKvb38Hu+hFYtlzYRjaee50CRTOLNh1gb9+M4jJbeNh3QKt0haLiB2z+7Cc0wR5JC36NxNqPsG53ruHy3ZSlTyCqZAM2HNRZ+T7G12e4wEActRCPj23CF2/vhmTCasxIsIemXguVkxQVB9fjy9NV3Lev9+VRQ1HU/WOxPMMBoppGXNlxEh8cbod3ahxW3ecEkVYMuaYcH79+Gdle0fjLcj3efe4KCsXOWPpSLJrfPIjcEabp1x/pfaVIz8tm/QwPLSUD0X6Yq+Nz58zH+g3rDfN9Xa5vro7z+MA2ZckTCMv/EOc8l2NE08dYb6h3cgRMWIXpsXI01ung4KpA5cF1+OJUIwLSV5td7m+mfn1+VoaxS1ci1rYKde2OcFUUYNfGz5Cj9cXYJSvMLE/AnCenofXrv2FPfrcfHMRe/ar7p5rk8B+/qvf+nGpG6NQ1mBwqQX1dB+xUcrBKPbI+fQ0HNGl9t3mXauGXwR17DHfste1QuarQcOIjfHGsGDpXC+3OZ81IX5HCdYrE6Ohoh8LJDo0/rcMhTEN6gg9U2kpUFR3Hdz+cveGIwT8HxjsUL67S4x8v56LOJwwvPqxAZqsjwtUKqFGBjf9zFq0ZqVa1KxebxAiYnISHp9iho5VB66V6SEbq8dnvLyEPIvNpHLj3XKNCPuuCkKY8rP1HPirMlNNQbncGe9/jTqPyMEXlYWqgyuN2Xa5PyGDW83L9gfpbKpHZKp/XtLWj56RQ2Bqu9Te3ztppIPJwcLBDRWWN2XXWTrfzWGJjo1FY3HV5h53KDt7e3sjPzzfMh0eE42ruVWjbewdmcrkccXHxOPFTVwDBeichNbQNF3+8hDrjUB2GWFhTU4jS6mYwygDExbui+sxplHGBoFrVgss/fIIDp06hxT0dSS4VOFms6tpGEsi99kfl3n/h893nwA6biGjRIWzc9CXO1KuRlOyFxlPnUc12oE7ih5Q4R5SfzkKD8whMGOOI3L27UMxY+z7G1+VaEURuMUjx1+LyNQ+kT3HDla1v4NvDR3GpxQ9j0vxRfzLz+vENdRWZZRDHe6Ny3QF8fEkPVh2IJ1bLsf3F4/h0VwGuuETiscQW7NhTiCr/GMzzqMK1qDhkVFzA+0fbeqU3p7q5AcMjo3H6cqZhXt9s+j3tzzRY6v5gaT/M1fGIiEicPXfWMJ+cnIyzZ89YXcd5rOsoZIyxx9V9u3FZ648Ric6oPH0F9a7jMHuyD/K/XIvth48jq8kN4cO4gL4qABOn+JpdPslc/cqVI3aUI6589jZ2HL2IGtiBbS5BnSIB480tb/dAxMgI+HiGIywqCTGx3OSlw9ViLZz6UffLHLj9n6LuvT/X3DAmQ42sz17H9qMncIUNQXKgAhWXjuGaww3aPDVfJl7I+4JLe+QELtV5YeT4SHRknkW5pXYnU4ug+CDUHvgXPtl1GNck0RgRKcO5r7ajLXgMHPM/wtYfcwftPf+svSvSE1kcO1CHNgfu9TxnXP2/w3jvqzwU+0Vjnk81tn5WYFW7sqvCC79eKcW2Z49xZVGIovBwzPfX4NDOKtSpg8ynyVMifY4jMv/nEN7bW48WC+Vkrt0ZKu3HYO979GcaiDyoPEwnKg/TaaDKIyQkBIWFP+dl8oTcedUtzf3uw1tTb+ly/cGmvQ0dIimkFm7jNdFagbIaEfwmrMTSh3+D9GAJpHIFej9opAaVpdyHLWoC9z1CRx3XEHOdNl1DI1ohg8zWuJXmygUUybhOfoAYrhFRcK2+iKxKboXV79Objbc3nFg7hE5Zg2UrHsP8ZB+IJW5w6X3nwT1DFqmGTysQNDUMc+aFIcVZD2mwC9xELC5+moma1NF4MqEWm7bVgx2kQci9rL1Di+ycLOj1OrA3efuER1QMnHXtsA9JQ6wLC41tOCKG2cCWry/aPOQWG+/5b878Cp9uO4JGHx+zyxss1S8mE5klciQt/C0Wz0+Ha8NlFNfquabgsvnlBiwai88jK1OYCiqhay3rV92XeXmZ3R+3QC84thUgv0xveCxwS14e1yoJbtDmGcukAHklxmNvy8tGKbzg4XGjulGJ0sJWw/tVVVeClSuhFNbcdYoqcbKS5Y6FxaXMWjg69R4swVK74h3mAtfLpbjArePLovgE157fII3hDgDDe/Y9IjEhhBBCBicaXd9KlvLoOfL2LV+uL0/E3EcyoN3xOnbkGAe8Y1h7xNy3FHEtu/Hxee/rl+ufcZ2NNXOCUP7TYWSVVUEaMR/pigN460c7LOy8pL/HZfThM/8Lae1b8e6uHDBuE7FiiT8uvvcBzrbw935KEH7f7zFefwiZHunwvvQ6PjtVDwTMuvH7SMdj6YoIZG94G6fqRbBLWoWVwyuw7YAKcyarcHrXcVTxsQQftLJa1BXmoFZ7o0760MCwNpjydCrsNu7DtmIRZGkp+PvoRny4p9sNze0tuHS+Ea1Kd6z5SxJidIX45wuZuKbnPxfT9ObQ6PrmDUT70bOOKxQKZGRMgoILdg8e2o/Jk6fgq6+/sr6Oww/jH16JsI5C1LQaPydbR184VW7HuuxwrJkixu43PkY2/9mLbKFUiqD3nYVHLC23UL+qtbZwCYjGsKAIRMX6omLH/2Fnjp57f1mv5TtyY8xerm9V3e/WxpzzXYDHJvXenwZ5EhZMAHa9sRU5DLf/HpOxalEUcj95DQfqkvps8z4tT8Sjk7m0b36CHP7YFcm4/5HxqP3yf7Gv2Xy7Y7xcv6vdY0Lm44kpDL5duwMuC/+A6NL3sPnwrX0vbqdel+sLrxu48mSSE/FafDF+816dVe1KtmM4Xo4pxm/fLDPcl88ERuJvT4jwzu8voXT8CLNpLlZ74s+ru97TEhpdv29DpSx4VB6mqDxMDVR58JfrE3Kv4f+G9rcPb029lTg6OT8vvDbBXwbAn+q/FQORB38JUGNTszB3c27nsfS8lJd/hjb/XOwzZ84a+rd9Xa4fHBwMdw9PnD17WljC9Yc7KtHIBfpjUsIh1TSgXeKGoOTJGB2lQtHRXcjr8Lt+eWqVWyJG+rfh/I9HUSoOQtzwSDhrcnCyQIYYM5fS8pezqsPSEKC/hNN5tWBVwYiPdUTl6TMo7xBx+8uiXq9G4ugR8FKU4MyuY6jklkt8rHifFgcEJifBW1aHesYPyaOS4CIuQ+aha7CPj4VDYxay8ysgCspARiSL3PMFaLlHLtdnueMMGBMKdVEezlcCHW0KJE9V4srmqzhT1II6JzcMVzXhfLEesctTMDzrJ6yvDcbyiAYcvNRmGDW0e3pzel42K+s8OXsTBkvdHyztR886/vDDj6CkpJibSrBo4RJ89vmnhlH0ra3jIt9UTEoQ49wnH2Df6fO4wp81b/VG0nAvNB25DGnMcHiIS1DSIMOw9IcwP0WG7KPFcI43s/xYCbfcTP2qCMTsxWPAXDqGrNIOqEOj4dR4AZd0I7B4Se/lF0sdETEyBB1Zh5DPBcudrKr73dqYkgZbeJvZn5wTZXBJSIRaX4zSRimCRk5ApFpsvFy/ru82L7fchsszGR6iUpQ2iOGVnIEEx2KcPHQF9W3m2x3j5fpd7R7rEokRw1hkn7gMSXgqQpQ1KKqoQ4tGa/whYpDpdbm+8Lqd21fW2wvTPBux47TGqnblbBb3HZ7nDen5MuS1yBA/OwLjPVoNl+tXtZtPc6HRweQ9LTHX7gyV9mOw9z36YyDyoPIwReVhaqDKg79cn/9Rnf+bSxNN98p0M314a+otXa4/wJqbm5Cdk40//vE/8ec//xnRUdH4/W//gOefe7HXNHXqDHz33bdCSiP+cXalBzfhu8s6DBu/GAsWLcK4MAlyd3+EA4UdwlZGfIf8RLUnxq34NZbOSYKMe+9bpcs7j9w27mtRdAFZQntt1fvoMnH8UAHkkXMxc2oKdBVFxguZm89g384LkMTMx8JVv8T0cBHX0T6OSvbeCPB5YpEeFw5XImRlBn6ZoQDK87DhWwnmvpSGPz6Tij8tcEbNtRbIIiKxcFg5Nm9vQM62i7iaFIeZQaLe6cnPSq12w4ED+3H+wjlDsC+VSfH4Y7+yqo4zrBgB0ZGQV1zElTphIUd79Tyu6QMRHpCLfbvOwyZ+KVY+/Bgm+NTi2M7DqGk9Z355y1mz9au87BROFSgQ9+CTeGjFTHg1HMbBszVgys0vt6TfbYyF+l7RdBp792RDNWI5Vjz8KFLtmtB5+Dds8wzHeB7ShCVYseZXmB7ahtPf78S1Dq4NsdTuWCAS6ZB79gRq1BPxwMwR6HyC393I2nYFNQX44MMmxPwiDS+9OBzxheXIFvKwmObeaZ4JIYSQIYku17eSpTx6Xso7kBhIIFfYQNvaZvFsEx802NopuY5wEzpuY8/M6vcRSyBhdND32IZPL1dK+zyWoY4RiyBjGeiEHzgYkQSOKhZNTXqryqRn+u7ocn3zBqL96FnHV69ag7KyUtTW1iI9YyJeffXv6OjQCmsHBl/3FSpb6FpaTOqSxeUW6hcjVkIla4dGo7NquTk308ZY3B/YQqkC2prNtwN9tXnGY+fybNb0HqvCQrtjCZ+XlAv49UPgx8YbtSv8kwpc3eWorzSWmyg0Cn9drsOrf8lClVCO/W2LOtHl+n0bKmXBo/IwReVhaqDKo+fTbAi5F9xMH96aektn8gcxMddl1Wra++x08WfBOlqab2uAz7P6fRi92Y42n/5GxzLUibnedvcAXczq0dTMWF0mPdOTn8fGTR9C06aB2s0Nb731+oAH+Dy+7re3tPaqSxaXW6hfYqaV29fegZul5ebcTBtjcX/QjrYWy+1AX22e8djbzA9GaaHdsYTPaygE+LwbtitSR6Q9Php/ejwacx6Mw69XeaF8f/H1AJ/X37aIEELuFKlUhtCQsBtO3j4+QgpCCI+CfEII6Qc+qP/xx33Yvv0b1NfXC0sJGZzEugZ8+fJBvL+nGuWlldi1dj9e290irCWEkMGLH+fqqad+g6Sk4QgLC8fSpcsQFR2DkNDQXtPCBxcZxsQihBhRkE8IIYQMYWJGh8qcShw/XI5LpTe+RYMQQgYDF1cXtLVpsG3bNuzevRu1dXXYu283vv9+e69p06YPERcbJ6Q0YuAM3+hERBmmOIQEeEElufnbGTsxIhf4RcfCXXFrefG3tjkFJiLS13SEGIZVwj0sESEet/bgV0YegISxI+AhvfVjJncfCvIJIYQQQgghg4qNWAKdVifM9Y1/yo2Y296E2B+Jk2YgddQYJCanIfW+1Vj+0AKEO9xq0OuL+EkZCLuJ0VsZVo6wyWswI0FtuLUNninImDoKnt2HjbWPQ9q0ifBXtAkLbpK9H0IjouBlL8yTfmNYEQJG+yPU7ua+M7ea/lZQkE8IIYQQQggZgnTI3bsWmzesxQdvr8NFXThSU4aBkXogOGoYXJ0CEB6fAE85ywVkEth7RyIqNg4BbnYA2xWYMawtnPxiER0bA19ulV5YZcwnFM6dVwg4BiEi3AdyLq0hPy8uv7hEBLurDPk5+sYgwNsTHgHRiAh2R9OlC6hURSLMp+sKK6fwKLi3ZuJKgb5bHvEIdDPmYXbfxY7wDk9EVJg/HKRCRvU5OHX0MK41GGctHV9nfi72XgiISkJEgBo23Y79XiYWyxCeHowYNT/X/fsggkwmzHAYEbeOnzoZXrMW098JNLq+lSzlwY+8TcjPjR+Rk0bX720g2g+q44SYZ67dGSrtB42eborKwxSVh6mBKo+eo+t7uHtg7pz5WL9hvWH+0ccew7r176Opsff+Ojk5YdnSFVj7+r+EJVzgJY7HnCenofXrv2FPvvFpI6H3/RHTZDvxxn57LF6RAkWrDfTaYpz75lNUx63G9Bg5GmvboXJVoeHER/jiWDF0UCJ0ysOYHCpBfV0H7FRysEo9sj59DQfax2PZ8lBcfv89nGkWQRy1EI+PbcIXb++GTTqXXyyXX50ODq4KVB5ch5PyWUhP8IFKW4mqouPYvuMqIhb+Bom1H2Hd7lzDLQYpS59AVMkGbPixEv7jV2FGgj009VqonKSoOLgenxdEYVn3fd++D/JpKxFrW4W6dke4Kgqwa+NnyFF27dupJjkC0leZPz5XfrsUyJvF6Ohoh8LJDo0/rcPHR0rv+du7ou4fi+UZDhDVNOLKjpP44HA7vFPjsOo+J4i0Ysg15fj49cvI9orGX5br8e5zV1AodsbSl2LR/OZB5I4wTb/+SLuQc5fbNbo+BflWspTH7XyEHiHWokfomTcQ7QfVcULMo0fo9W2olAWPysMUlYepgSqP2xPkT0fHnrdwpFAMqXMkxk6fAOWZd7AlJ5ILbEeh/od/47vLrWDU6Vi+NBZFn7+BAyV6yELvx4pp9jixbh3OKiZhxZII5G99EwfLGKgSl2PVeBec/6SPIP/zFmQsS0DxF2uxv1gPu6g5mB5Whb1fnIbfwj8guvQ9bD5sLDPb2CVYPboJ37zzNQqd0rBkZRzyt6zFUYbfpwjkbn0PR8p1UMYsxIp0HXZ/VIVRy7rtuyFIj0HeljdwpNIewcPjgfwjyBOldgX5tn0cn4xPPxaNu1/D1xc1cBvzGBZF5uGT938weRLLvYhhbTDl6VTYbdyHbcUirqwD8ef/dMR3z5/FuVbAe/Y4/NYpE/+xoRYxD43HjPKfsEWeiFXSi/h/n9VDD6lJenPoEXqEEEIIIYSQe0J7hxbZOVnQ63Vgb/pSZxuETHoSK1b/CgtnjYS84HvsPFkprKtBeQkXqXGBrK23N5y0BcgrMY4B0JaXjVJ4wcODW+fpCce2AuSX6SHm4rSWvDwuZd9sfHy4/PKQW2zMrznzK3y67YjZoFlz5QKKZOEICxDDNSIKrtUXkcXtoszLC06sHUKnrMGyFY9hfrIPxBI3uDjwqbr2HTWXkVkiR9LC32Lx/HS4NlxGca3ekHenvo7PqBKlha2G46uqrgQrV+LWhv0bmmSRavhwxR40NQxz5oUhxZkL44Nd4CZicfHTTNSMG40nE2qxaVu9+Uf+3kEU5BNCCCGEEEIGlfa2NihVKsydOw/Ozo6ora0W1vRHB7J3/C/efevveHvtq/hkx2nU6ruCr85bz/UdHWBt5FB0jt0ns4WtSAutljWuk6qg6lynUEIuvOR/e2AhgdjGOKvkgmMeo+XTcIGykIYR2UKukpu/112biaw8MYIjRiMyTI2KK+dQzwWIjE7H7V81ck7sx/Gj3HRkB3Zt341cLsjkdWYlFlXh9GdrseWbH3G1ToWoGauRESbskKCv4+t0fdfM7CIxEotFYLnvZUlxE0r5KTMfm7+oQOeDaUU2NrA1LfqfDQX5t4FUKkNoSNgNJ28fHyEFIeRuIpLYQuYad30KCqI6TgghhAykFSseQlNTI7Kzs/Dw6l9g165dwprevL290dIqRL896NtbDT8Y6GH5zKquMAfFTBCik4PgYOeCoJREeGhyUVDOrSvKRRkCEJUUAHs7NSISw2EnpENjLRoZN4Qlx8I3cDhS441/95nCbBTrAxCdEgh7ezdETX0Uq+8fDUd0QNvBQqX2h7uT0hBZi0V65F7JAsImIM6pGFlX6gx56IqucvvkBi9XFg2V5Wh3S0Fasi9sej5wwGM8ljyyAMFtubhy7hKqNLaGH0W66+v4SF9Y6PQy2DkZvzttWbWo9JBDd74Mp06W41KrAn4KPVpZMWIXRsPj8FG8fkGNlfOcIDb8amKa/k4SJSQkDOrfa5RKJVotVNrBoOf9QyKRGL/5ze9w+OAhNHIN0/Tp05GXnw+ttvdACxHhEfjp5AkcOnRQWELIzel5P4+fkp6XwhuI9qNnHQdXx13H/B80tbnQaZFTOEQAAL8CSURBVOvhGJCBSHwJla3ppXE8c3WcH1THP9of+mtnUdZs2ujzz94NiPJBe955VGru/B8EQvpjKLc7g73vcadReZii8jA1UOXR8+/tM888i1deedHweuWKVdizbzeWLF4GpUJhWNZdQ2MjtmzZhIqKrqi158B73TEuaSb30vOD8jmGTsO0iUnwUEigayrA6R8+x4niVsM656g5uC89Bs5SQFNSjDYfJxTy9+SXSuCetBizUoNgq63G1SINwnyq8OXb29EcPh3TMjrzy8eJ7Z/gdLkWtoGTMXNiMjzaj2LLxn3Gs/YIwsRHliK8+jt88MUpaPllwj5NNeQhgraxBJn7t+JgfUqPfbdD+JTFGBvuDpWERWvpUfzw1V4U23UfeE9k+fh6lkXIfDwxhcH217/EtZ/5kvPBwHVsAp6c64LK749i7Z42+E9MxMNTVWhrZKGQtmLPm6dw1DEazy5n8N6zl1Fg44JlL8Sg+Z2D+LrANP0bezVCrl1u199SGnjPSpby6Dkol6tajXFj0/D9998b5mfPmY0dP3xvdpAQN7UbHnxwAd5483VhCQUAgw0jtoWvJ4vSknb+Fxxh6eBzM4N2WDJY6v5gaT961nGJ0hP2MU8ha8//M8yHT34WjWf+Cqbd+Mt7d2breF+dDlEcZj+Vjnqu43CojOo4uXn8432CxvhBduEacnr8LbGGNenNtTtDpf2ggdVMUXmYovIwNVDl0TPIX71qDcrKSlFbW4v0jIl49dW/o6NDK6y9PRhIoFBJoW3W9LqnmoEtlCqgrbmtd59QLIGE0fW6WsCYny10LS0m6/jlUhG3PdfW3gjDiiFXcvvUauZ9u2HESqhk7dBodBa36+v4iGWMWAQZy0AnfF6MSAJHFYumJr1V8UHP9N3dTB/emnpLl+sPMBuukps7a29Oh64DYm57E2J/JE6ahig3Yd6EL+InZSDMSZglt19wEB5ZE8CVvGV8ZzhgtD9C7W4+sCZ3D5HIBqzeuk6G2Treg6Vn7xJyK+7mZ/sSQghv46YPoWnTQO3mhrfeev22B/g8MReKt7e0mQ2AxWhHW4uFkz6M3uztAMb8Wnut45dbE+DzxCIGWs2NTzaJmVauvPoOOvs6PmKZmGFNAnQxq0dTM3PDz6RTz/R3AgX5P6OGhkZ89fU2Yc48CgB+ZjmX8cJL2SjmKjHD31sjdIYlUjH30vja2s50J4bLy1bKr2d7tQ29OuDCe/KXbMlVkuvvSe4ON6rjDKtA6JRHsGhWBmJj0jBj4SR4C+sIuRVR85OR7qPAyNWpeGiM3NCGeI6NwzN/HYc/PD0BL/4xAlF2LGQh0XjhhQj48u2MxAmLX0nDLD9Rr/SEEHKn8UH9jz/uw/bt36C+vl5YSgixBgX5PwMHpRh/e0SNd37rhl9MbIFcZv6XHQoABgGfMDz39DA48sE19/r5/4rHgt+Pw9MvTsJrf0tAsjNrdWeaD+D9Jg3Hi/+dhj88Mw6/XxCH3/89CoEwBvHm0hje/y+JWPVsBp55xA/uwm6Rwc3aOg73MRgdxeLCF//Gli1vYPPJKtje2R96yRB18bPj2FOswbF3DmH9kXZAHYiVs0X49qX9ePm5fXgjkx8YyBXarExsveqJRZNV8L0vGsGnzuPbQrZ3ekIIIYTcNSjI/xnMH2ePfWc0eOT/KnAuT4v7RqqENT1QADD4BNih4cODeOFPu/BOlhozMxys7kzDMwgrp+nwxXM/4qXnDmKrzgmhQrYW03BxPnwUKH1rH/7yWgEq6PKqu4K1dfxmnr1LyM24m57tSwghhJBbQ0H+AGvv0KKmphZ6vY6Lz/gIrTeFTIRmDWN43dTKWDzLRwHAIFRUiZOV/ONOWFzKrIWjk7zXHViWOtPeYS5wvVyKi9w6/vMsPlGBshuk4e8AEBXz72n8vpCfH8u0Q1tzFkqpFhKx+c/F2jre57N3CRlAd9OzfQkhhBBya2h0fStZyqPnyNsKhQIZGZOgkCtw8NB+jE+bgO97jK7v6SLB8yvUqKzXw8VBjOfW1aCGH52R033k7X22C/HYJGDXG1uRw4jAeEzGqkVRyKWRt+8YxjsUL6zS47WXc1HnE4YXudf/4F438PfoJyfitfhi/Pa9Okx+OhV2G/dhW7EIsrQU/H10Iz7c0yDkwmlvQbZjOF6OKcbv3iyDnk8fGIm/PSHCO3+4hNK0EWbTXKz2xJ9Xd72nJTS6vnkD0X70VccPcHW83XMpmq6sMxldv2cdf5ar47Vm6viuymTcvyoDzLGt2HulFV6pizA5XIJzVMfJLWJYCTL+OBG+3+3EpovcvMcw/OWPdvj2T2dxTiuCPCoI0+wq8MUxDWJXj8fs6tP4RBGPpex5vPxpPXSwMUlvDo2u37ehUhY8Kg9TVB6mBqo8+NH1CbnX8H9D+9uHt6beUpBvJUt59AwAHn30cVy+nIn6unrMnDkb73/wLlo1rb0eoWcjEeHd37nj4f+tMNyP3YkCgMHFuiC/FunWdKavuuE//8sdJ//nJPZWSBG/fDR+FVeFv3FBfp5HiPk0RT54gQvy+fenIL//BqL9uFEdf+2NdWhra+n1CD2r6nieyOKzd6mOk1t1p5/tS0G+qaFSFjwqD1NUHqYGqjx6PkKPkHsBPULvLqFWu+HAgf04f+EcSrgOu1QmxeOP/QrPP/eiyaR28zB0/NVONrBXWujMN5/C3j3ZUI1YjhUPP4pUuyb0fhI3+bmJRXpcOFyJkJUZ+GWGAijPw4ZvJZj7Uhr++Ewq/rTAGTXXWoCaAnzwYRNifpGGl14cjvjCcmQLeVhMQ3HeoNOzjrs4iPCbJx61uo6LmXP45p//bXhGvphb3HD5K2x643/x/nv/iw8+XY8t//wnBfhkQNQcPotn/7gP7+xrNdxiVLz3NJ770xG88c8j3Hf0FA5WiKDLzsSzf7mCQpb7PnbUYcvTxgC/Z3pCCCGE3D3oTL6VLOXR8yzf6lVrUFZWitraWqRnTMSrr/7d4nM9P/mLF/LKO3AsU4NthzvvjOyNgS2UKqCtuY37xKjzP1gxXMQmY5nrz8FkRBI4qlg08Zdp82f+uZrm6i5HfaXGMLCVKDQKf12uw6vPZqFKiOZ7prEWnck3byDajztRxwm5G9GZ/L4NlbLgUXmYovIwNVDlQWfyyb2IzuTfJTZu+hCaNg3Ubm54663XLXb+ed+daMWf3q2+YedfjHa0tbRTgD/IibkovjPA54lZPZqama7PTeqItMdH40+PR2POg3H49SovlO8vvh7g83qlIYPO7ajjhBBCCOlNJLGFzDXu+hQUFIbQkN6Tt4+PkIIQwqMgf4DxHf4ff9yH7du/QX19vbDUvPU/dBtkjQx5Yl0Dvnz5IN7fU43y0krsWrsfr+2m4O9uQ3WcEEIIuQNEYriM+m/YuI8HnOLhGP9b+AVFICQ0tNe08MFFSE0dJyQ0YuAM3+hEDHOzFZZ04xCMqOhouMtZMPIAJIwdAQ/pzV8F2Zdbzd94HPHwsuudnhG5wC86Fu6K27Pv5O5FQT4hd5CY0aEypxLHD5fjUqmOztgTQgghhJghUbhD39GK/BPrUHT2S3S0VuHQ4YP4/vvtvaZNmz5EXGyckFIg9kfipPswNT0RdmxXEMywYgSOnof0SekItucW2PshNCIKXvzrAcCwcoRNXoMZCfyDkDm3mr/hOKYhyk2YN+GL+EkZCHMSZsmAYlgRAkb7I9TMDyzWuNX0t4KCfEIIIYQQQsigIhLZgNVbviWuuw5dB8RiiTBnSuSVhEgh3jawjUFMqEKY4dTn4NTRw7gmXHzHsLZw8otFdFwsvB3U8I6KgpuCBSP1QHDUMLg6BSA8PgGe/FUAIiVcfKMRzc0HqJUAy8LRNwYB3p7wCIhGRLA7pHXZPfKXwN47ElGxcQhwszOkMSwX8nex90JAVBIiAtSw6fbjRKfr+xcbA18uuf7Ox4/3DLFYhvD0YMQYvj9dBc0H7zKZMMNhRNw6fupkeM1aTH8n0MB7VrKUBz8oV+dACYT8nGjgvd4Gov2gOk6IZTTwnmVDpSx4VB6mqDxMDVR59Bx4z0blC1XEGmT/+L+G+fDJz6LxzF97PbKWJxKJ4evri6KiQmEJF3gZHlmbBvsaFaQlH2PD3nx+Q9glPoQVsXLUO9sgb8u/cUQ/HsuWh+Ly++/hVJMKoVNXY3KIBPV1HbCzV0Kk6MDlT17DgXZ+uxQoWm2g1xbj3PY9sJm0HCnObajhAnhHVxGubn8H2R6LkZ7gA5W2ElVFx7H9J0fMX9GZvxwB6aswPUaOxtp2qFxVaDjxEb44VgydqzF/ebMYHR3tUDjZofGnddhyzA1znpouPHpXidApD2NyqLB/KjlYpR5Zn9Kjd2+HqPvHYnmGA0Q1jbiy4yQ+ONwO79Q4rLrPCSKtGHJNOT5+/TKyvaLxl+V6vPvcFRSKnbH0pVg0v3kQuSNM068/0i7k3OV2DbxHQb6VLOXBBwDk1vCNcnFxsTBHbgUF+aYGov2gOj64jBgxAidOnBDmyGBAQb55Q6UseFQepqg8TA1UedxMkO+gFOPppS5wtZegvFaHV7bUok1r7AMZg/zRqD5UhugRNtj3zmfI0blh9IpH4XvpR7SNS0RNzyBfORkrF4cj7+M3cbiCgSJ+OVZNcMH560H+KNT/8G98d7kVjNIf8UlBaDm7H1ebbRA56z8xXr8Nb23PR9LCPyC69D1sPlwOxiWtK3/bdCxfGouiz9/AgRI9ZKH3Y8U0e5xYtw5nZXz+Y9G4+zV8fVEDtzGPYVFkHrauK8foziC/eRJWLIlA/tY3cbCMgSqR27/xxv2jIH/gMawNpjydCruN+7CtWATGNRB//k9HfPf8WZxrBbxnj8NvnTLxHxtqEfPQeMwo/wlb5IlYJb2I//dZPfSQmqQ357YF+WPGjLn5aIAgq7pCeEVu1v89+zx+9+LzwhwZCOFqD+EVuVVUxwePX61chXEjRuK9jzZj96GDwlIyWFC7Qwi5FWlpaf0O8h+a6oiyGh1+ONmCB9LswbIsPj/YbFhnDPLHonzzV5DPWQmnE6/hm5o0PDTfGUfXXULomjRU9wjyLwYtwy9G1+PLt79FqYgL6uzHYNHqFJReD/JDceWD93C6iX80sgzukaMRPSwA3h5ucLRTQFL0Hd76PBOxFoL8i0FL8YuxTfjqra9RDC4PSSxm/nImOr77K36oM253Pf/Q+XhiMoNv38xDvBDkH7Dj9m8Mt39vCfvnMBaLVyWjhIL826JnkG+Tmoz/m9iB3VyEbwigHdRID6rCK8/noErpjoefjkNYRyneeiUT1/T8d8Q0vTk9g/yB+ltKZ/KtZCmPFluqULeKgvyBR2fyjQai/aA6Pnh8tPZNiLhOjU6vw7KnnhCWksGCzuSbGiplwaPyMEXlYWqgyqPnmXyJwg0yj7GovPId2vU2CJn4fK8g//FZTjif147DlzSYmqyC2lGMzXuaDOuMQX4qqrasRdawR7E4KBtH6ocjmd2OD3bJMfOJVFT2CPLP+DyIx6fYYN9bH+FKBxekeU3D6gXhuNotyDds18z1DQJmYc2cIJT/dBhZZVWQRsxHuuJAn0H+Od8FeGwSsOvNT5DDB4GKZNz/yHjUfvm/2Ndimj8TwgX5U0yD/H22C43p39iKHIbbxmMyVi2KQi4F+bdFzyBdlpaCv49uxId7uj09qb0Fl843opUL8tc8m4SYjkL884WbD/IH6kw+Dbx3i/gPwtrJT2lvdnl/Jv7XHXPL+zMNxH4MZB782BQ911k7DcXyuJWpszzIwBmK349bmX6uY/n1socMAT7PRmKDBzMmm92uPxO1H6bTrZYHIYQMJBmakRGtx6qlcxEVbA9W0/uHhC8PN2H5ZAe8+JAas8ao8P2JVmFNJzF/Gz5qLpxGmXosxoTqkXXuCnRibrmwRXfMtcu41hGExPSRCI0cg0njo6ES1vUkUSkh01Xj2pVsVGo9EciPgmfQAW0H1y6q/eHuxA/GJyzm6ApzUMwEITo5CA52LghKSYSHJhcFVv5GoivKRRkCEJUUAHs7NSISw9H5ruR2YKHTy2DnZPy2tGXVotJDDt35Mpw6WY5LrQr4KfRoZcWIXRgNj8NH8foFNVbOc4LYMGiiafo7iYJ8Qgghg96oUSOFV0Zz584VXhFCCBmKVqx4CE1NjcjOzsKa1b9AR8Enwpou5bV6PPHvSvi5SfAU929tk15Y00kMLp4Hms8jM78DorqzuFjKBV8SbrlxAxPitkvYvW0PKh2SuL87sVCVXEW5hd8wO7IO4US1J8at+DWWzkmCrNl4BYFIpEPu2ROoUU/EAzNHwNmwVNByFvt2noc0YQlWrPkVpoe24fT3O3Gtw8ogsPkU9u7JhmrEcqx4+FGk2jWh9zCEZKCIRXpcOFyJkJUZ+GWGgvvC5WHDtxLMfSkNf3wmFX9a4Iyaay2QRURi4bBybN7egJxtF3E1KQ4zg0S9099BdLm+lag8TA1kHi+//AL+67+eE5b2D30/TFF5mKLyMHW3lseah1dh9OhRwlyXDzduxv79B4S5/qPvhykqjy5UFqaoPExReZgaqPLoebn+M888i1deedHweuWKVdizbzcWLFgKBzulYVmnt95+A68sY/Hn92ugadejqdVCVG4FRuyM8JFxYC7sR24zF+QFzcaq2W44I9wn3xP/zH1bfn9amtDR49oABhJIuYBfz5pJx61TqKTQNmvAClep9QcDWyhVQFtzG/+rgrCU3C6MWAQZy0AnfJaMSAJHFYsm/kclK8q/Z/ru6HJ9Qggh96SeZ/E7LVm8UHhFCCFkqCkrLcX0aTMwcsQoeHl7o6K8Av/36t/w/AvPmkzl5eWwV4jxuwecMDHR9AeA/pNA7p6Eqav+gGUrnsKaWTHoyDqGyxbiKbGIQUdLc68AnyeG3myAz+PXtbe03VSAzxOjHW0t7RTg3yFihjUJ0MWsHk3NjNXl3zP9nUBBPiGEkEGLP4vfeS9+TzY2Nhg/Pk2YI4QQMpRs3PQhNG0aqN3c8NZbr6OjQyus6e27E63407vV2Ha4RVhyc8RMNc5t+xc+2PwZjp7ci52fvI5N31+EhoJpcpehIJ8QQsigZeksfic6m08IIUMTH9T/+OM+bN/+Derr64Wl5q3/odto57eIv4+6rbYAuZkXUVDeAIYCfHIXoiCfEELIoNTXWfxOdDafEEIIIcQUBfmEEEIGJb2eQXl5hcnE4/+tqqq6vkzt6mJYTgghhBBCaHR9q1F5mBrIPGh0faOByIPKwxSVh6mhUB7vv/c2Hl7zKJVHD1Qepm41DyoLU1Qepqg8TA1UefCj63eOME7IveR2jK5PQb6VqDxMDWQeFOQbDUQeVB6mqDxMDYXyoCDfPCoPU7eaB5WFKSoPU1QepgaqPPggn5B7FQX5N+H/s3cf8FGU+f/AP7ubuum9F9JJp4YSQpEmTUCpKqLCeeepp6eiHt4hHt6d+L/med5PsaACiqhgwY6KNEFBirRQQklICEkgbdN3/zO7E5JJNslu6mbzeb9eA/vMzjw7883z7DPfndlZS9kXxkOuvg4m+QadUQfjIcd4yFlDPJjkG8d4yHW0DsZCjvGQYzzkOiseFzWlUomo7+Lv5BMRERERERGRDJN8IiIiIiLqUeIZzI5MIWoXo/PNmTqjjlhvP6PzzZksZV8YD/nUHfHoLEzyiYiIiIiIiKwEk3wiIiIiIiIiK6FITU3tvOsCuoBarYZGo5FKZI3xWLZsGVavXi2VzMP2Icd4yDEectYQj+eeew6PPvqoVOoYtg85xqMBYyHHeMgxHnKMhxzjIcd4yHVXPHh3fRMxHnKdWQfvrm/QGXUwHnKMh5w1xIN31zeO8ZDraB2MhRzjIcd4yDEecoyHHOMh113x4OX6RERERERERFaCST4RERERERGRlWCST0RERERERGQlmOQTERERERERWQkm+URERERERERWgkk+ERERERERkZVgkk9ERERERERkJZjkExEREREREVkJJvlEREREREREVoJJPhEREREREZGVYJJPREREREREZCWY5BMRERERERFZCSb5RERERERERFaCST4RERERERGRlWCST0RERERERGQlFKmpqTrpsUVSq9XQaDRSiawxHsuWLcPq1aulknnYPuQYDznGQ84a4vHcc8/h0UcflUodw/Yhx3g0YCzkGA85xkOO8ZBjPOQYD7nuiociNCzCaJLv6eGKoqslUql9OqOO4CB/ZOfkSaX2sZR9YTzk6utYtWolnnxyhTTXPGwfcoyHHOMhZw3xePWVl3D3knsYjyYYD7mO1sFYyDEecoyHHOMhx3jIMR5y3RUPXq5PREREREREZCWY5BMRERERERFZCSb5RERERERERFaCST4RERERERGRlWCST0RERERERGQlmOQTERERERERWQkm+URERERERERWgkk+ERERERERkZVgkk9ERERERERkJZjkExEREREREVkJJvlEREREREREVoJJPhEREREREZGVYJJPREREREREZCWY5BMRERERERFZCSb5RERERERERFZCkZqaqpMeWyS1Wg2NRiOVyBrjsWzZMqxevVoqmYftQ47xkGM85KwhHs899xweffRRqdQxbB9yjEcDxkKO8ZBjPOQYDznGQ47xkOuueChCwyKMJvmeHq4ouloildqnM+oIDvJHdk6eVGofS9kXxkOuvo5Vq1biySdXSHPNw/Yhx3jIMR5y1hCPV195CXcvuYfxaILxkOtoHYyFHOMhx3jIMR5yjIcc4yHXXfHg5fpEREREREREVoJJPhEREREREZGVYJJPREREREREZCWY5BMRERERERFZCSb5RERERERERFaCST4RERERERGRlWCST0RERERERGQlmOQTERERERERWQkm+URERERERERWgkk+ERERERERkZVgkk9ERERERERkJZjkExEREREREVkJJvlEREREREREVoJJPhEREREREZGVYJJPREREREREZCUUI0aM0EmPiXrEAw88gOeff14qERG1bOXKlVixYoVUIiIiIqKmFKFhEUaTfE8PVxRdLZFK7dMZdQQH+SM7J08qtY+l7AvjIVdfx6pVK/Hkk+07aGf7kGM85BgPOWuIx6uvvIS7l9zDeDTBeMh1tA7GQo7xkGM85BgPOcZDjvGQ66548HJ9IiIiIiIiIivBJJ+IiIiIiIjISjDJJyIiIiIiIrISTPKJiIiIiIiIrASTfCIiIiIiIiIrwSSfiIiIiIiIyEowySciIiIiIiKyEkzyiYiIiIiIiKwEk3wiIiIiIiIiK8Ekn4iIiIiIiMhKMMknIiIiIiIishJM8omIiIiIiIisBJN8IiIiIiIiIivBJJ+IiIiIiIjISjDJJyIiIiIiIrISitTUVJ302CKp1WpoNBqpRNYYj2XLlmH16tVSyTxsH3KMhxzjIWcN8Xjuuefw6KOPSqWOYfuQYzwaMBZyjIcc4yHHeMgxHnKMh1x3xUMRGhZhNMn39HBF0dUSqdQ+nVFHcJA/snPypFL7WMq+MB5y9XWsWrUSTz65Qj9v9b9e0f8vqtCU4/NPPsCe3dulOc2J8Xjg0T9j2YNLpTnGifUue3CJVGogzv/byt8325fWln/soaXQ6eTdhu1DjvGQYzzkOlLHq6+8hLuX3MN4NMF4yHW0DsZCjvGQYzzkGA85xkOO8ZDrrnjwcn2yOGISLSbYr770b4ybOA1QSE8QERERERFRq5jkk8VSKBWwsbERH+nL0bHxWP7U/8MfnlqNyOhY/bymIiNj8YcVz+qn0LAIaa5cYvJAPPWXf2POgsXSHAPxLL0xLS1PRERERERkaZjkk8V59p9r9An34iUP4KPNGwHp0vgZM+fj/XffwOZN6zHz5tv085qacfMCbHrnDWxc9xpmzJ4nzZWbNOUmvP3mGhz95aA0x8DY5fmilpYnIiIiIiKyNEzyyeKIl+v/49kVuJyXg+NHD0lzAS8fH5w6eUyYjsLbx1eaK+fj64elv/k97rn/UQQEhkhz5dw9vHH61HFkHv9FmtM6c5cnIiIiIiLqKUzyySLl5ebgp727MH3WfGkOUFR4RX/JflRMf1wtKpDmyonLvPzi3/Vn5Zc/eq80V66o4DJi+yciMjpOmtM6c5cnIiIiIiLqKUzyyWLt/3E3/Pz9ERwari9/9MFG3Dz3Dv1349975w39vKY+/OAdzF14J/787AuYPG22NFfuoy0bhTruQuqANGmOQUvfyW9peSIiIiIiIkvDJJ8singGvv7n6cT/X/jnX5F94Zy+nHnyKJ556hH8+Y8P4+yZTP08UeOfzxMv5//LU8vwx8fu0//8Xr3G37c/c+okVi7/HTZueFU2v6XHTZdv+vN5REREREREloJJPhEREREREZGVYJJPREREREREZCWY5BMRERERERFZCSb5RERERERERFaCST4RERERERGRlWCST0RERERERGQlmOQTERERERERWQkm+URERERERERWQpGamqqTHlsktVoNjUYjlcga47Fs2TKsXr1aKpmH7UOO8ZBjPOSsIR7PPfccHn30UanUMWwfcoxHA8ZCjvGQYzzkGA85xkOO8ZDrrngoQsMijCb5nh6uKLpaIpXapzPqCA7yR3ZOnlRqH0vZF8ZDrr6OVatW4sknV0hzzcP2Icd4yDEectYQj1dfeQl3L7mH8WiC8ZDraB2MhRzjIcd4yDEecoyHHOMh113x4OX6RERERERERFaCST4RERERERGRlWCST0RERERERGQlmOQTERERERERWQkm+URERERERERWgkk+ERERERERkZVgkk9ERERERERkJZjkExEREREREVkJJvlEREREREREVoJJPhEREREREZGVYJJPREREREREZCWY5BMRERERERFZCSb5RERERERERFaCST4RERERERGRlWCST0RERERERGQlFKmpqTrpsUVSq9XQaDRSiawxHsuWLcPq1aulknnYPuQYDznGQ84a4vHcc8/h0UcflUodw/Yhx3g0YCzkGA85xkOO8ZBjPOQYD7nuiociNCzCaJLv6eGKoqslUql9OqOO4CB/ZOfkSaX2sZR9YTzk6utYtWolnnxyhTTXPGwfcoyHHOMhZw3xePWVl3D3knsYjyYYD7mO1sFYyDEecoyHHOMhx3jIMR5y3RUPXq5PREREREREZCWY5BMRERERERFZCSb5RERERERERFaCST4RERERERGRlWCST0RERERERGQlmOQTERERERERWQkm+URERERERERWgkk+ERERERERkZVgkk9ERERERERkJZjkExEREREREVkJJvlEREREREREVoJJPhEREREREZGVYJJPREREREREZCWY5BMRERERERFZCSb5RERERERERFZCMWLECJ30mKhHPPDAA3j++eelEhFRy1auXIkVK1ZIJSIiIiJqShEaFmE0yff0cEXR1RKp1D6dUUdwkD+yc/KkUvtYyr4wHnL1daxatRJPPtm+g3a2DznGQ47xkLOGeLz6yku4e8k9jEcTjIdcR+tgLOQYDznGQ47xkGM85BgPue6KBy/XJyIiIiIiIrISTPKJiIiIiIiIrASTfCIiIiIiIiIrwSSfiIiIiIiIyEowySciIiIiIiKyEkzyiYiIiIiIiKwEk3wiIiIiIiIiK8Ekn4iIiIiIiMhKMMknIiIiIiIishJM8omIiIiIiIisBJN8IiIiIiIiIivBJJ+IiIiIiIjISjDJJyIiIiIiIrISTPKJiIiIiIiIrASTfCIiIiIiIiIroUhNTdVJjy2SWq2GRqORSmSN8Vi2bBlWr14tlczD9iHHeMgxHnLWEI/nnnsOjz76qFTqGLYPOcajAWMhx3jIMR5yjIcc4yHHeMh1VzwUoWERRpN8Tw9XFF0tkUrt0xl1BAf5IzsnTyq1j6XsC+MhV1/HqlUr8eSTK6S55mH7kGM85BgPOWuIx6uvvIS7l9zDeDTBeMh1tA7GQo7xkGM85BgPOcZDjvGQ66548HJ9IiIiIiIiIivBJJ+IiIiIiIjISjDJJyIiIiIiIrISTPKJiIiIiIiIrASTfCIiIiIiIiIrwSSfiIiIiIiIyEowySciIiIiIiKyEkzyiYiIiIiIiKwEk3wiIiIiIiIiK8Ekn4iIiIiIiMhKMMknIiIiIiIishJM8omIiIiIiIisBJN8IiIiIiIiIivBJJ+6lZ+fL0aOGK6fBg8erP9frVZfn1c/xcbESGsQWZ7V/3pFemTQtGyultbvrPlE1LqmfeeBR1dJj9qnPX1XoVBIpQaPr/iH9IiIiMh0TPKpW1VUVOLWWxfgrrsWY968efr/3Vxd9f83npyc1NIaREREREREZCpFamqqTnpskcSzvBqNRiqRNcRj+vTpyMjIkErNXbp0Cf/617+g07XdNNk+5BgPua6Kh3h27W8rfy+VGsox/ZMw85Y7UF1ViaNHDuCrzz5AaFgkps1aqF9uy3tv4lL2ef1jcZ3TmUfx3tuvyuqL7Z+MydPnIvPEEaQMSLs+v/EypixvTG9vHyqVCn/729/w6KOPSnM6hv1Fri/Ho3GfEtWXzevTfxf69DEz+vTfhccPS4/b16e7C/uKHOMhx3jIMR5yjIdcd8VDERoWYTST8vRwRdHVEqnUPp1RR3CQP7Jz8qRS+1jKvjAeBq6urnj2b8/Azs5OmiP33//+Dwd+PiiVWsf2Icd4yHVVPMRLa5c9uEQqNZQf/cMqXMm/jLfXrUFVZaX+uYeWPYXt2z5B8bVS3DhjNl7451/188V1/rl6JXIvXZTV98gTT+Pjze9CZWuDxXffd31+4+0wZXljenv7SExIwIMP3o8lS39t0e3DXJZSR1+Oh7l9+pMP34W2tk7Wp5/95xr867mnr/dpMTkXt8GUPiou/9hDS/UfbpvTp03BtiHHeMgxHnKMhxzjIdeb4sHL9anblZSU4LvvtksluYsXL+Lng4ekEpFlqq2tvf4hlb2Dg1Cu0T9+fc1/4OPnjz8+/Q/0i4jWz/Px9cP823+Ne+5/FAGBIfp59fJys6VHDdw9vHH61HFkHv9FmtM6c5fvzYYMGSQ9IupcTft0XV2t/nFLfXrpb37PPk1ERBaLST71iM8+/xI1NYbEqLGPPvrEpMv0iXpSXm4OhqWPhb29PYampePSJcOBfcGVy3jumeU4n3Uai+6+Tz+vqPAK3n7zf/qzccsfvVc/r56xtl5YcBmx/RMRGR0nzWmducv3VuKl+tHRhiQrICBA/z9RZ2nap6/kG86ytNSnX37x7+zTRERksZjkU48Qz+bv2bNHKhnwLD71FlveW48hQ0biqb88j8FCQrBl0zr9/FlzbsOfn/2vcHAei/c2rtXP+/CDdzD1pvnC/Bcwedps/bzWfLT5HcxZcBdSB6RJcwzE7+wa09Ly1qZ/XBxOnTqFiooKPPz7B6W5RJ2jaZ/+7quP9PNb6tNzF97Z4T4tXt5vTF/p00RE1HX4nXwTMR5ynVFHWGgQHn/88euXSJrzXfx6bB9yjIcc4yHXm+Nx5+JF+PHH/ViwcB7s7exx9OgveH3tW9Kz7cP2Icd4NGAs5BgPOcZDjvGQYzzkGA+57ooHz+RTjyktLb3+3XyexSeilgwdMhhRUZE4fuKEvvz3f/wLw4cPx4L58/RlIiIiImrAJJ96lPjd/KqqKn4Xn4iacXFxwW/v/TWGCEn+3579f6irq9PPz83NxT//+U8MHjwQf/9/z/I7+kRERESN8HJ9EzEecp1Zx8gRw7F7zw/tSvLZPuQsPR7izdPiYmMxdOhghISEoFL6SSpjbGxUqK01JHXtZW9vh6qqaqnUPp2xHZZSR2+Lh3gTtC+++BL7fvxJmgM888zTWL78T9fbmHg2PyMjXajPcDd0cyiVSmi1WqnUPgqFosMfUFpKHYxHg74eC/G9urqmBhUaDTSaCmGOju+ljXBskWM85NzcXHEpNw8nT54UplP6q1XNZSnHlZ1RB4/V5borHkzyTWROHQsXzJUeEXWdNR9sglOVvPtaYn9pnNjHxMQgMzMT+/b9hBPC4Fd/ZtaYvvr+0RLGw6Bpkt8RbB9yjEcDxgL6D2JjY6OFKRb9wsNw9Ogxk967W9Lb49EY24cc4yEnxkOhtL3ef0KCg/UJvzn9x9riwfbRoLviwSTfRObUISb5O3fulEpEnet4fi6Wzp7TK5J88XLrxx97BKdPnzH74LCvvn+0hPEwYJJvHOMh19E6GAs58Ua5zs5u+g9rIyIi8NTKP5ud6FtTPNg+5BgPuabxaHyyw9T+Y83xaA/GQ86U7eB38omoy9x+20J8+OHHeH3tmzh67Fi7zv4QEVHPEt+7xfdw8b387Nmz+p+0JCLTsP9QT2CST0RdQrwjuqjx96mJiKh3E3/KcsiQQVKJiMzB/kPdhUk+EXWJm26ajrfWbZBKRERkDcSfshTvr6JUKKQ5RGSq+v4j3hCTqCsxySeiriEMYKWlpVKBiIisgXjpcXZODoKCg6U5RGSq+v4TzP5DXYxJPhERERGZTLxTuHjncCIyH/sPdQcm+b2Ara0doqNj25wCg0z/VFALV/hGxCLE21Ga03FarQ3cgmIRFuAORZPfF9baeCJQeD0/1/Y1uet1C3Xop/BI+Hm6wkZh+u8Ya7VO8A6PRbCXgzSHiIiIzCX+9rf402BEZD72H+oOitTUVKM/oWcp1Go1NBqNVOodJk+e3Gk/oadQKPH7R55ATk4OysrKEBgYiPz8y6itNdyl3NPDE9U1VcJz5YiJjca+H3Zj547t+udaFToDd98yCA5FO/D2a1+iSNnxz3u0Wi+kLX4AQz0LcWDji9iTWys9IzznOQa3Lh6Lyu3PYfP+MmluyxzCMzAsqhaZ3+3EpVrl9brTfOTfYaopPoWfPtuE/TmV0pyWabX9Mfmh+Qg++gZe+/qsNLf3afwTeiFqF2mugSX1l2XLlmH16tVSqWf0xvePrmQN8ejMdsX2Icd4NGAs5JrGQ/w+sdgXn332WWlO38L2Icd4yLUVj77Wf9g+5LorHvydfBOZU0dn/k6+l7cPFixchDVr1ujLv/nNb7Bu/TqUlhi+6zxx4iTkXc7D4UOH4O3ljZkzZ+C/L/xL/1xLtFolIqYtw9QYe2iVpTi0/h/YfVl6sgMaJ+Laq3vxwRsfI6/O8OGB1i0DC+++AVUmJvluab/GbSNr8P2La3CksiHJH6r8CZ98+hPKFTawdwtFcvoERNj8jA9f2YxsYb9aY41JviX/Tv7Djzyi/z3z9uqr7x8tYTwM+Dv5xjEech2tg7GQMxaPVatW4sknV0iltll7PMzFeMj1tXjUj2Ut6WvxaAvjIWfKdvByfQtno1LB1sYWv/71b/RTQGAgFi2643p50OBBmDBhgv7xjJtuglKpktZshW08+kc6ovjgdpyuckNMQriYAUtPChzDMGDSIsy76yHctuhO3DAwGLbC81ptOIbfei+mDR+MQdOWCEn77zDnlllIDZRf8q8rLUap2xCMHxsNm/p6dcL6hkd64uX3XklTMWXefbjtrt/gpknpCHQyPOebdhempfoKjwIwaP59mDe60feWaktwNS8HBZcvIidzF7768TR0zlEI8zE8rdXaNqr3V5gxZTRCpHqbam0b9FqIAxERERERkaVikt8LVFZW4d2NG/XTlfwr+OijD6+Xjx09hj279+gff/3VF9IarXOIS0WobTHOHP8ep85WwCluAIKlzwa0WnekzlyEEdFuKLuQiUtlrogcMx+josRE3hEu3n4IHTYNg7yrcPnCRVS5JWDk3KUY7tfoMvqCHfhmfwFck27CqH7SBwBCkl9/zlnMk72FRP6WCanwqL2Ei9nFcIgcj5lzJsFXqUVV8UXkl1YLS1biWu55XCpq+cy/i4sbFKiAECJ9vT7D7xTqHQQvXS5ycsqgDhuL6bfejHA7eXLe1ja0HgciIiIiIiLLxCS/F9Dp6lB0tUg/1dbW4Nq1a9fLFRUVKCsv0z8ukS7hb41487nY+EjYlBzDmdxaXMg8hWqH/ugfZWdYQBWGYH8bVJ/5Elu//Bhfv7cWX+/Yi9xK4XmdIU1XaA7is7fewLavPsCWNz/COZ0XUkYMgJ30PBRaXN75Pg4UuiB+0nSEiQm2VtdwJt8+CcOGBaH2+Pt4e9N72P7lBmzaehBVnsMxuL8tik98hX1nrgkLXsWZ7R9jx5Fcw3oiB3/0SxiA2ISBSBo6HeNSfIGyLFwsEp6zT0ZamlDvqc3Y+M4mfPvFBry76XtcdUrCiMEBhvXrtbENrcaBZ/OJiIiIiMhCMcnva1yTEROsRFVBKezCohBQdxWFWnv0659guLS+7hwu5FTDrv9cLL79dtyQEQ3NsV04fqlUvFOIvoqaiydxUfquPapO4nyODiqfAHgZ5ggJshKK2hzs/Ww7CtRJGDcxCY51dQ1JvncQfGyFpN97CKbecgemz74dUwcHQgcFPL38pIWMU7glYNSUmzFh8kyMHjUEvjWnsPPjbcgXbxwo1mujxcUTR1At3UiwNv8QzhQq4O4fDJv6DyFEbW1Da3HohJsUEhEREbVl9b9ekR4ZNC2bq6X1O2s+EVkGZit9jEdCCgKUCjhETsLMuYsx6+YxCFQpYBuRgmhHMX8txsH3X8IXuw6hQOeDyMHTcfOS32FCf1epBkBX1/hMdi1qqmsBG1vYSHOgUOobVt3l7/DV7hzYxUzHuLhGX3a3tYOtkE5rhXp0WmmqK0b+2UxcKZeWaYGucC8+fP15rH/9TRws1EKpENa7LN1Z39ZWqLcOdbLtq4H4QwQKO/E1G2ljG0yJAxERERERkaVhkt+HaLU+iOsfAN3Vn/D526/gvfpp21FUKiMQ298NWlsPBEeHoer4R/hkw7/wykvvIrPCHTEDkqGWzoTb+QfBXTzrL1KGIyhYSJ+vXkGhYY6YIUM85y+e8C7Y9z5+zLVBREY6xFvp6RVewVWdEmWZn+CTLev100dbv8Xxk3uw95dGl+YLzVPV9D6CtWUoLsjH1aLT2PfDCVS7DMTIQdJd9wqF+Tpb+AcFGsoih34I9AQqhHUqpCsR9NrYhtbi4Fi/70REREQ9ICF5AJb98f9h5V/+jZk3L9TPi4yMxR9WPKufQsMi9PNE4ln3O5feL5UaJCYPxO+WrcKcBYulOQYtnaUXl39KeL2myxOR5WGSb+HKy8vh6eUNW1vZeWij/AMCUN7K7y4qAwYiRkh4C4/txulLF5AnTZcO/oDT5QoExqfAxT4GwyfPwORp05AYl4D+SYnwcwKqigpwvWavkbhxagZiY1MxZNpURDtU4ezPB6CpT6IVQnJueCQ0sEIc+PQrXNLZwLb++dIDOHiqAv7DbsUNQ1IRGTcY6TNvxeQbb8HAAEOTLC8rhQ5+iE4fjaQwN/28pipPbMPBAgX8hk5ElPi9/9KfcTBTA/dB8zEpbSCi44ZizM03IkyVi4P7z0hrSdraBofYFuNQIVVBRERE1BOmTLsZZ04dx1+efgxb3t+gnzfj5gXY9M4b2LjuNcyYPU8/r97nW7dIjxpMnjoTH72/Dkd/OSjNMVj24BLpkZy4/Ntvrmm2PBFZHib5Fq5MSHZ/2LMTD/3+93jiiT/A3d0D9/32fv1jcRo0aBCmTpmqf3zDDeOw9ePN0ppy4snnwIQkuOouIfN4vjTXQInzOHnyGhT+KYi13YOvv/oZpW6DMWbqPIxLjwbOfYdPvz12/Tv51zIPoDRkHCZMm420CBVydq3HtmONrrOXLte/rngvtu04g2rpSgClsgqnvliL78/qED5yJm6cOgOpvhU4/d06bD9bo1+m+vjX2J2lgWfCeIwaHNVwU79GlLiCg3t+QZV9HIYNDxPKFTj15Rv4/lQ1QoffhIlTpiDO+TIObNmAA4Xys+9tbkPxDy3Hgd/JJyIiom5QW1sLOzvDzZHtHRz0N2AWvb7mP/Dy9sUfn/4H+kUYfmrYx9cPS3/ze9xz/6MICAzRz6uXl5stPWrg7uGNC+dOCceFv0hzWicuf/rUcZOXJ6KeowgNi2iePQk648f+O6OO4CB/ZOfkSaX26e59WbhgLnbu3CmVeietwhZqFycoNMWoqDU0Ea22PyY/NB8++/8Pb+3MF55Xo7a0GLUd+KxIq7CHi7MtqspKUKuT1yN+MGHjYC9k/BXQmvsaSkc4O9airLSqzaS81W0wEoeedjw/F0tnz8GaDzbBqUq+TZbUXx5+5BEsX/4naY75+ur7R0sYD4Nnnnla364YDznGQ66jdTAWcsbisWrVSjz55Aqp1DZrj4e5TN2OBx7+Iw7+vA97d32HocNGIWVQGl74xzP658Q6bp6/BIHBYVi5/Hd45ImnseX9t3E687j++Xri5ff1Z+cbP35o2Qrs/v5LXCsuxd33PGj0DH7T5b/4dAvq6upky7O/yJkSj/qxrCV9LR5tYTzkTNmO9mdnZNWUuhpUllwzmtiqbGyEhlOHytLSDiX4IqWuCuWlZc2Sa5GYm2urq8xP8EVa8acFa9pM8EWtbkMrcSAiIiLqSlveW48hQ0biqb88j8Fp6diyaZ1+/qw5t+H3T/wVkdGxeG/jWv28Dz94B3MX3ok/P/sCJk+brZ/Xmo82v4MpNy1A6oA0aY5BS9/JF5efs+CuZssTkeVpR/ZEfZcGxfmXUFReK5WJiIiIqKtcOH8Wf3/2T3ji4Xvwz9VPIfvief38zUKy/4+/PoHHf38Pjh7+WT/v1Mlj+MtTy/DHx+7D5598oJ8nanyGvvHjM6dO4t+rn8TGDa+2uEzT5cUrBpouT0SWh0k+mUypPI+9b7+ET35sfAd8IiIiIiIishRM8omIiIiIiIisBJN8IiIiIiIiIivBu+ubyJw6xLvrE3UV8a76vLu+aXhHVzlriAfvrm8c4yHX0ToYCzlj8eDd9dk+6jEecqbEg3fXNw/jIWfKdihGjBjB24Z3soyMDOzcs1cqEXWu47kXrif5sd5+0lzL88ADD+D555+XSkSdg+2KyDKwLxK1H/sPdTWeyTeROXXofyefST51kcZJPs/kt46fHsu1FI/Gv4MsalpuzJTtaGn9+vlN62hr+cZ4Jt84xkOuo3UwFnLG4sEz+Wwf9RgPOVPiwTP55mE85EzZDn4nn4iIiIiIiMhKMMnvJra2doiOimlzCgwKktYgIupZCckD8Ne/v4yVf/k3Zt68UD8vNCwSf1jxrH4KDYvQzxOJZ93vXHq/VGqQmDwQTwnrz1mwWJpjIC5vTEvLExEREZFpmOR3A4VCifvuewAe7p5QqWwwbdp0xCckIio6utk0b858pKePktYkIuo5U6bdjJPHj+AvTz+GLe9v0M8bf+MsbHrnDWxc9xpmzJ6nn1fv861bpEcNJk+dibffXIOjvxyU5hi09HWAlpYnIiIiItMwye8Gnl6eyDp7FocOH0JWVhayc7Lxzbdf47PPtjab1q17E8lJydKaBlp4IDghBYEu0gyJc2AK4kPcpRIRUfvU1tbCzs5O/9jewUEo1+gfv77mP/Dx88cfn/4H+kVE6+d5efti6W9+j3vufxQBgSH6efXycrOlRw3cPbxx+tRxZB7/RZrTOnOXJyIiIiI5JvndwEapQnV1lVRqXY1wcK0UlpdRhmLA+OmYPmU43NFwozWvxIkYmyI/yKaepdUpEDY8FNHO7fvRio6uT9Qeebk5GJY+Fvb29hialo5LlwzJesGVy3jumeU4n3Uai+6+Tz/v2tVCvPzi3/Vn4pc/eq9+Xj2drnm7LSy4jNj+iYiMjpPmtM7c5YmIiIhIjkl+r6GDym8MJgzxFY+kDXN0Wv3/Iq1CDc/gBCSkpCLMW61fRmvrh4j4SHi5hSAqIRmhno6Awgk+ESlIiI+Aq6rhgFyrU8EloD/ik1MQ7uN0/TXIPEqlHWLHRiDRWyw1jq8C0olSPa1CeE6c6ukf61pcn6grbXlvPYYMGYmn/vI8BgtJ/pZN6/TzZ825DX9+9r9Cwh2L9zau1c/76rPNmLvwTmH+C5g8bbZ+Xms+2vwO5iy4C6kD0qQ5Bi19J7+l5YmIiIjINEzye41SZP58Gq7DZmGIr+FMv1bKAbXKAKTN+y3mTx+HxIRRmLRgCcZFCgm9SyyGTZiJmbfMQdrg8Ziy8HZMm30XZmQMx8AxCzB/5hA4iR8G6OwROnopFsyZhkGpYzB5wW8wa6APE/12iJ89GGODHJF2VzoWj3DQ/438RyZj+V9H4ZE/jMHTj8Uh3lkHu6gErFwZh2Ahudeq3LHgmQxMD1E0W5+oO1w4fxZ/f/ZPeOLhe/DP1U8h++J5/fzNQrL/x8d+i8d/fw+OHv5ZP+/c2Uz85allwvz78PknH+jniRp/x77x4zOnTmLl8t9h44ZXW1zGlOWJiIiIyDRM8nsNJSpObcV3Z5wweNJY+CqF5LBOOpNvb4PKi3vx+ZvP4+31L2J7lhOiYvtJJ4JVyNn5At5auwb7CnwRqvoRG17/H9Z/eQwIjkWYrbCI93CMTgUOb/wn3njj31i77SJ8Ro5GJFuH2X55by+2XazADy/vxNrdVUJsw7FohgKf/Hk7Vq34Fi8e88Yds7xQffIYNp72x/wJTgiemoCI/YfxyQVd8/WJiIiIiIjMwDSu11BAqSjHqa+34rT9MIwfGQpl/eX6msvILVQgZMwduPXuBzE2QgVbB0eI+TtQiPxLVcK6pSgvA2quFqJCoUBtcQk0sIOdPWAXEAB3nTOiJy7BbYt+jdmDg6BU+cDTQ18BdYBdf28EaYB+k2Jw06wYDPGog22EJ3wUQkK/6RgKRw3H/alFWLflGnTC34WIiIiIiKgjmOT3Gkoh8Rb+rc7Ed9sOwiZ1BtL8DZftK8MnYebEFLgUHcVP32zC95lCNt9IW1fda2trhWUKcGrfduzdI0y7P8dXW7/GGXk11A5KpQK6ykrkZJfikjgdy8L6Dy6jXHpeYWMjXohBRERERETUKZjkd4NyjQYhIaEmfcU9MDBQv7wx9Sd6q7K+wLZfAD8/tb6sclLDrrYA509kIr/aH+HBzvr5pqq9eBrZWh8EeOlQnJ+HKp8hyBgcDBvDr2iRWXSorbODs7vhj1V5sgj5fg6oPZyL/T/l4ajGESGOddDolEialwC/XXvw3yPiJfzuUOobiHx9IiIiIiIiczDJ7wZlZaXIPJWJxx5bhieeeAIJ8Ql4+KFH8NSKp5tNkyZNwaeffiKt2ZhKfyZfpFTU4uL3H+HINcOnBjUnd2JfgT9GLfodbr1pIOyE1zNL2c/49ssjUCXOxrw778WNsQpk7tuLfB0TTXMpFXU4sjsfUXeMw73jHIG8s3jzExVm/jkDjy1Px+NzPVB4vhx2cf0xLzIP67cW49SWX3B6YDKm9RO/ktFkfSIiIiIiIjMoQsMijJ5f9vRwRdHVEqnUPp1RR3CQP7Jz8qRS+3T3vixcMBc79+yVSt1Dq1PC3lkNlJeiBu1LzsU6HNS2qNZUNlw2QO2iVSpgp9OiVvqgRKtQwc1Jh9LSOpNi23T9xo7nXsDS2XOw5oNNcKqSd19L6i8PP/IIli//kzTHfH31/aMljIfBM888rW9XjIcc4yHX0ToYCzlj8Vi1aiWefHKFVGqbtcfDXIyHXF+LR/1Y1pK+Fo+2MB5ypmwHz+RbCaVCi5rysnYn+CKxjuqKKib4nUCp1ckSdKWuDqVlWpNj23R9IiIiIiIiUzDJJyIiIiIiIrISitTUVBNuB9dz1Go1NC3ciM5STZ48udsv16e+o/Hl+iFqF2mugSX1l2XLlmH16tVSqWf0xvePrmQN8ejMdsX2Icd4NGAs5IzFwxLe43sK24cc4yFnSjz6Uv9h+5DrrnjwO/kmMqeOnvhOPvUd/E6+6fg9MDlriAe/k28c4yHX0ToYCzlj8eB38tk+6jEecqbEg9/JNw/jIWfKdvByfSIiIiIiIiIrwSSfiIiIiIiIyEowySciIiIiIiKyEkzyiYiIiIiIiKwEk/xuolDZw84r+frUr18MoqOaT4FBQdIaREREREREROZhkt8dFEp4DnsWNr6jAfcUuKU8hJB+cYiKjm42zZszH+npo6QViYiIiIiIiEzHJL8bqBx9UVejQda+13Hx4GbUaPKxc9cOfPbZ1mbTunVvIjkpWVrTQAsPBCekIFD+k+hwDkxBfIi7VOoeWls/RCbEwlOlg9YhDKkjh8LP1uivMJpFq/BESEISfB2Fei1of4mIiIiIiHoTJvndQKGwga6uWiq1rqa2BkqlSipJlKEYMH46pk8ZDnc0JNReiRMxNiVEKnUTl1ikjU9HmKP4OATRcfEIaJKMt08wUsaPQ4yYw1vS/ppJq1MgbHgoop3b98FHR9cnIiIiIqK+jUl+r6GDym8MJgzxFR4aEkCdTqv/X6TVqeAS2B/xSckI83G+vox45j0iPhJe7mGITUmFn4uvoewWgqiEZIR6Ctm6wgk+ESlIiI+Aq6ohudQq1PAMTkCCsF6Yt/p6ndddO4X9e3bhfLGwrGMAouJTENdoig1w1S+m37YAYduSUxDu49SwbTp7uIckISEpEcHCJtfJqm9jf41s2/V9NWXfWtimjlIq7RA7NgKJ3mKp8espYGcnFQRahfCcONXTP9a1uD4REREREZEpmOT3GqXI/Pk0XIfNwhBfw5l+rZQDisly2NilWDB7EpKTRmL8/F/jlmHBUIqJq0sshk2YiZlz5mN4agICfeIM5VvmIG3weExZeDumzb4LMzKGY+CYBZg/cwicxIRZGYC0eb/F/OnjkJgwCpMWLMG4SPH0fSP6ujMQLs52jkTiwDSkpAxGQvIoZEyYjhGxnvptCx0tbNucaRiUOgaTF/wGswb6QKt1QPTEpfr6kxIzMGXeeAQaapW0sr8tbVv9vra1by1sU2ck+vGzB2NskCPS7krH4hEO+m32H5mM5X8dhUf+MAZPPxaHeGcd7KISsHJlHIKF5F6rcseCZzIwPUTRbH0iIiIiIiJzMMnvNZSoOLUV351xwuBJY+GrFJLDOunMtvdwZCTb4sTm/+CdDf/DW59nwX3oBCRev4xehdwdz2Pt2nXYf81Qztn5At5auwb7CnwRqvoRG17/H9Z/eQwIjkWYrbCIvQ0qL+7F528+j7fXv4jtWU6Iiu3X4sll5ZWd2LLuZby94S3sydNCWXYE3/yQpd+20anA4Y3/xBtv/Btrt12Ez8jRiPIfgeHxOhz54D/YsOFFrP/pCuwVUmV6rexvq9tmwr61sE2RndAbfnlvL7ZdrMAPL+/E2t1VwmuFY9EMBT7583asWvEtXjzmjTtmeaH65DFsPO2P+ROcEDw1ARH7D+OTC7rm6xMREREREZmBSX6voYBSUY5TX2/FafthGD8yFErp8nX7wEC4V5/D2ZxafbnybCYuIQB+fvVZcyHycjRCFQ3l/EtVQn2lKC8Daq4WokJ4rra4BBrYwc5eWERzGbmFCoSMuQO33v0gxkaoYOvgCDFHbo1L3E2YnFSHg1s/wflKBewCAuCuc0b0xCW4bdGvMXtwEJQqH/iEB8Ct8hyycuuE7QDKz54Vtqqxlve39W1re99a2iZPD30FncquvzeChND3mxSDm2bFYIhHHWwjPOGjEBL6TcdQOGo47k8twrot16C7/vchIiIiIiJqHyb5vYZSSESFf6sz8d22g7BJnYE0f8Nl7HU1NdDZOMCx/n59QiZrr6hGdXXDafemV6K3dWW6MnwSZk5MgUvRUfz0zSZ8nylkzG3xHI7JN/TD1R3v4YdcwwcO2tpa4bUKcGrfduzdI0y7P8dXW7/GGY2wzbZOcKrfZkc15Bent7y/bW1bW/vW4jaZsIvmUioV0FVWIie7FJfE6VgW1n9wGeXS8wobG/HCBCIiIiIiok7BJL8baGtKYePkJyStje681oLAwECUazRSSa7+RG9V1hfY9gvg56fWl2svnEK2th8SBveDq7Mn+g0ZAL+KMziXp3+6XVROatjVFuD8iUzkV/sjXLwzXiu0tmHImD4OXvk7sPucDu5efvB2V0vb5oMALx2K8/NQ5TMEGYODoTh3GrkIQ/zAMLg4eyNuQCyavkJL+2vutjVVe/G00W2yqZEW6BAdauvs4Oxu2PjKk0XI93NA7eFc7P8pD0c1jghxrINGp0TSvAT47dqD/x4RL+F3N9xDocn6RERERERE5mCS3w201cWozP4S8VOeReJN/4Gt2hf3/vpePLXi6WbTpElT8Omnn0hrNqbSn9kWKRW1uPj9RzhyTTplXX4Q3355GLapC7FoyW9xY3QlDnz2Jc7XtD9RrDm5E/sK/DFq0e9w600DYVdWKj3TgoghSPZQwi54POYs/i1uW3QP5o2PF9b7Wdi2I1Alzsa8O+/FjbEKZO7bi8ulB/DNtkw4Db0di+6+B+nOpbgqVWXQ8v6avW1NtbBN+bqOJ9ZKRR2O7M5H1B3jcO84RyDvLN78RIWZf87AY8vT8fhcDxSeL4ddXH/Mi8zD+q3FOLXlF5wemIxp/cSvKDRZn4iIiIiIyAyK1NTUNi5u7llqtRqaFs5sW6rJkydj5569Uqn7aIXE2NHJFtVlFZ3y/W6tTgl7ZzVQXooadKw+sS4HtbBtmsqGU/QCLeyhdgIqy+Tz29IZ29bSNnUGrVIBO50WtdIHB1qFCm5OOpSW1pn0Wk3Xb+x47gUsnT0Haz7YhBD19bsr6llSf1m2bBlWr14tlXpGb3z/6ErWEI/ObFdsH3KMRwPGQs5YPCzhPb6nsH3IMR5ypsSjL/Uftg+57oqHIjQswmiS7+nhiqKrJVKpfTqjjuAgf2TndOC6c0F378vCBXN7JMmnvqFxku9UJe++ltRfHn7kESxf/idpjvn66vtHSxgPg2eeeVrfrhgPOcZDrqN1MBZyxuKxatVKPPnkCqnUNmuPh7kYD7m+Fo/6sawlfS0ebWE85EzZDl6uT0RERERERGQlmOQTERERERERWQkm+URERERERERWgkk+ERERERERkZVgkk9ERERERERkJZjkExEREREREVkJJvndxNbWDtFRMW1OgUFB0hpERERERERE5mGS3w0UCiXuu+8BeLh7QqWywbRp0xGfkIio6Ohm07w585GePkpak4iIiIiIiMh0TPK7gaeXJ7LOnsWhw4eQlZWF7JxsfPPt1/jss63NpnXr3kRyUrK0ppxW5Qb/yFSkDBqCuDBP2Oh00jN9g1angJN/PBIHDkdKfBTcbfvW/hMREREREbWFSX43sFGqUF1dJZVaV1NbA6WwfDMeKZhy272YPWkMEpMzMGbmb3DbrKFwV/SNRFers0NwxlLcNnc6BsUnISljLhbeMRexzuJzDoiZsARTUr2lpXuO+EFE2PBQRDu37+/S0fWJiIiIiKhvY5LfC2h1bkidMAXBZd/j3TX/xFuv/R2vbtiBspCJuGGAh7SMCi6B/RGflIwwHyHzlc7ya239EBEfCU+XAITFD0RcmPf1KwD06wQI6yQPQISvk34dw/LR8FBJSaZbP8TFBsHexldfj5d7GGJTUuHnIi/7OwjrXq8vBeE+jesz/fWdA5MRF+4FRf0y6iDExMfAyykRQwa44cIX/8Yb617Gmy+/hSO1MRicEgC34ESEBfrDLywBcRG++vq1CjU8gxOQIGxbmLdati1ebiGISkhGqKcjoHCCT0QKEuIj4Crt8/Vtdg1BdNJAxIb7wA5SPNqgVNohdmwEEvWfNzSsIybvdnZSQaAVP5xp/AGN/rGuxfWJiIiIiIhMwSS/N/AQEt+AYhz5bicKahRQKoCq/O/xzRfbcaHCQcgY7RA2dikWzJ6E5KSRGD//17hlWDCUYqLsEothE2Zi5tzbkDE4HRk3/Qq3jAiEVlxnjLDOzfXr3IuZA30AZ3H5DIQL+a9IGTQUN2SkCEl6nKGeOfMxPDUBgT7ycoDaHqGjhfrmTMOg1DGYvOA3mHW9PtNfv9YrCWMnj0Ko1DI9E6dgQlo4bKprUaezg3tgCJyEZFypvYgda5/B+l25cAtNgr+Qx9t7xyIhKgA2ygCkzfst5k8fh8SEUZi0YAnGRQo7VB+LW+YgbfB4TFl4O6bNvgszMoZj4JgFmD9zCJyux2wWZs+bi7TEQUibImzn1BTDc22Inz0YY4MckXZXOhaPcBCSe8B/ZDKW/3UUHvnDGDz9WBzinXWwi0rAypVxCBaSe63KHQueycD0EEWz9YmIiIiIiMzBJL838PSCm/YKCgqlskBM9Isyd+LH43nQ+oxARrItTmz+D97Z8D+89XkW3IdOQKKLtDDskP/DC3jjjefx/o9F8OqfBF/v4chIscfJLcI661/Ahq8zYRsWAyEtb4UKuTuex9q167D/WpOyYgRGpwKHN/5TeJ1/Y+22i/AZORpR+hZm+us7HT+MizZRiAxTCQmyB6Ki/HD1xM+4XHMYO7/cj+rIObjjngcxZ9oExAe66D/IuLD7HRwpAEpPfIT3vzwEjYMtKi/uxedvPo+317+I7VlOiIrtJ50YVyFn5wt4a+0a7CvwRajqR2x4/X9Y/+UxIDgWYbbiMiIHFB96Hes2vIw339mJqqjxGCwk4W355b292HaxAj+8vBNrd1cB3uFYNEOBT/68HatWfIsXj3njjlleqD55DBtP+2P+BCcET01AxP7D+OSCrvn6REREREREZmCS3xtUVaJGYQtbI1/VF9kHBsK9+hzO5tTqy5VnM3EJAfDzq09K83Hpgkb/wcCVgnzoHNRwCwoS1jmLM9mGdcqOfYhNW3bjSqt5bCHycjTizwU0K9sFBMBd54zoiUtw26JfY/bgIChVPvB0FZcz4/VrjiEzS4l+MZFQuicgyjsPJ47l69e9dvJzbHr9RWz59kfkKSMx4pZfYWLc9U8yGmguI7dQgZAxd+DWux/E2AgVbB0cYcjfC5F/qUqorxTlZUDN1UJUCNtfW1wCDexgZ69fSHAV2VmF+n3TFmbiYokaPn76nTGLXX9vBAkh6jcpBjfNisEQjzrYRnjCRyEk9JuOoXDUcNyfWoR1W65Bdz2uRERERERE7cMkvzcovIwCXQDCI6Rr6AVanQvip/wa80dHQVtdA52NAxzrPwQQMlV7RTWqqxsuL79+pbn0f524jq0aamkdrcIeDk4OsNHqhEVUUNoY5quFhLyxples15e1tbXC4wKc2rcde/cI0+7P8dXWr3FGSHBFpr6+LWpx+ngmlP3ikNQ/Dp65h3FcvGrAPQpJKbHw0l3FpeO7sf3D17DjnB0iYiOgarJRyvBJmDkxBS5FR/HTN5vwfaaQzTfSdB+Mc4CDWkq6Fc5wEJL/mhrDBxLmUCoV0FVWIie7FJfE6VgW1n9wGeXS8wobG9hLsSYiIiIiIuooRWpqqkkpT09Rq9XQaKRMsZeYPHkydu7ZK5UAZ2cX3LrwNrz++lr9SfAZN83A5198htKSEmmJBvHx8UhLGyEs+4o0R0zolQgc/RvMjivHwZ3bcbrIBj6xwzEsxR1nNr+IbwoTMXPxRCj3v4tvjpbAY+DNuDH2Cj5buxlZLqNx2+3ROP7qK/i5TAFt1GzcN1GLT17PQuqdk6A6sBFfH9UgaOQCjPM9grfXXcGI394E1+MfYsdpeySOvRGRNgfwwXtlGLuoUT2eGfJ6nQZg5h3joTr4MXb8chkOiTMwIfQ8PvlKiwm3mf7677zxDQqUkRi/5BZE2aqQ+/2/8PEvFdC6j8SCRaOhPbwF2w/lQ+GZgGETRsHl6Ot48/vLSJz1GNJ1X2HL9l9QGDgd94xRYcfbH+OCY3+MnDIR/Qo/xf9954x5jfYhdtqTyKjaiDVfnYLW5wYsWhiKX155DQfsxZhlwP7Mp/jouzNQRU3G9FEu+PmtNThwrfWz7eLNBMctuwHBn32Jdb8IZb9IPPmYM7Y+fhCHqhVwiO+Hyc6X8cEPFUi6azRmFBzAu44puFV3GKs2XUMtbGTrG3M89wKWzp6DNR9sQohafiWDJfWXZcuWYfXq1VKpZ/TG94+uZA3x6Mx2xfYhx3g0YCzkjMXDEt7jewrbhxzjIWdKPPpS/2H7kOuueChCwyKMJvmeHq4outo8CTVHZ9QRHOSP7Jw8qdQ+3b0vCxfMlSX5orFjb0D6yHSoVC1ccy8pFhL/DRvW4fJl+T5rFW6ISJ+OUYmhcLNXobY8Gyd2fYLvj+YLiaECbtGTMfmGgfBzFJ4rPYcDX7yPfdma5sl4fZL9wmZcjb0Rk8fVr5OFfVvfxU+5tfAduADT0/vBvroApy9WICboCja3leQLrUjchkn6+hSoLsnBse0bsePaELNe/0Betb6u4LEPYlbiJXz50kacqhHrV8I7cQYmjUqAl4MSOm0Vrp79Hl99vgdXahWwD5+AaTcMhl/VHqzfkInoW+ZjaIAaEPbh0lV7BFXtMDPJj0f5eQcEhjlDUXcVZ7/fhC8PXRb+Dm1fUu81MhX3z/RE/md78MK2SoTeMAB3T3JCZYkOjrYabPvffuxxS8CfbtfilT8dxzkbT9y2MhFlL+/AR+fk67/4TYVUa4PGSb5Tlbz7WlJ/efiRR7B8+Z+kOebrq+8fLWE8DJ555ml9u2I85BgPuY7WwVjIGYvHqlUr8eSTK6RS26w9HuZiPOT6Wjzqx7KW9LV4tIXxkDNlO5jkm8icOowl+Z1FCxUcHG1QrakU/nryhFN8ztHJFtVlFSZ/v9uwjj1qy8tRh0brKFVQaWvl80wgJuMOamEbjGyfMU1fX0zwlQpH9J9xP0bWfIjXPj0hS6zF5dUuToCmBJV10kyJ+JytQrwLv+FDAXtnIckvL0WNufug/wAjDIdefAsnbYUkv0KoQ6jTHFqlAnY6LWql9bQKFdycdCgtFTbalLg0Wb8xJvmm48AiZw3xYJJvHOMh19E6GAs5Y/Fgks/2UY/xkDMlHkzyzcN4yJmyHfxOfi+jFFLh6ooqo4mi+FxVeaVZN3AzrKNpnsxr65rPM4FSoW1x+4xp9vouwzDndw9jbMBF7NohT/BF4vKVpc0TfJH4nJjg6x8L21FTXmZ2gt9ABZWNDrUaoQ4zE3yRUius22g9pa4OpWVa0+PSZH0iIiIiIiJTMMkny6I5gm3vrMHrr2zA8bIeSnKLD+ObD79CFn/BjoiIiIiIehkm+WRRlNpyFF2+jIq6njuLray7hrxzOSjV8kw6ERERERH1LkzyiYiIiIiIiKwEk3wiIiIiIiIiK8G765vInDrEu+sTdRXxrvq8u75peEdXOWuIB++ubxzjIdfROhgLOWPx4N312T7qMR5ypsSDd9c3D+MhZ8p2MMk3kTl1dOVP6BHxJ/RMx4FFzhriwSTfOMZDrqN1MBZyxuLBJJ/tox7jIWdKPJjkm4fxkDNlO3i5PhEREREREZGVYJJPREREREREZCWY5HcThcoedl7J16d+/WIQHdV8CgwKktYgIiIiIiIiMg+T/O6gUMJz2LOw8R0NuKfALeUhhPSLQ1R0dLNp3pz5SE8fJa1IREREREREZDom+d1A5eiLuhoNsva9josHN6NGk4+du3bgs8+2NpvWrXsTyUnJ0poGWnggOCEFAc7N75GoVXgiJCEJvo5G759IREREREREfQiT/G6gUNhAV1ctlVpXU1sDpVIllSTKUAwYPxnxPlJZJhgp48chxl0qUo/S6hQIGx6KaCMfyJiio+sTEREREVHfxiTfwhQXl+DDj7ZIJeO0Onu4hyQhISkRwc5AHfNBi6FU2iF2bAQSvcVSwx9GTN7t7KSCQKsQnhOnevrHuhbXJyIiIiIiMoVixIgRzCQ6WUZGhux38m2cguEUtwSZ3/0/fTl2wh9R8vPfoK26qi+LXNVK/OFWT3i5qJBXVItnNhShstrwp9EqU3DT/ZOh+ehv+OqsGtET78aEaBWuXa2Bs5MDdOo6nNz0L+zMVeiXp54Tf/NI3D7OFYrCEpz4/Ce8tqsKgenJuHOqOxTVSjhU5OGd/x5HZkAC/nh7HdasOIELSg/c+ucklP1vB84Mla+/dneVVHODxr+TH+vtJ821PA888ACef/55qUTUOdiuiCwD+yJR+7H/UFdThIZFGE3yO+PH/jujjuAgf2Tn5Eml9unufVm4YK7ZSf7iSW7ILazFFz+V45YMF+h0Ory/o0z/nCzJLxuPRQvjkLXxf9iRq4XTgNtx52hPHH6XSb4l0OpsMPGJdDiv+xZbshXQeoXj8WVu+OypgzikAQJnjMJD7sfw6BtFSFw8GlPyfsQGhwG40/YX/OW9a6iDrWx9Yxon+U5V8u5rSf3l4UcewfLlf5LmmK+vvn+0hPEweOaZp/XtivGQYzzkOloHYyFnLB6rVq3Ek0+ukEpts/Z4mIvxkOtr8agfy1rS1+LRFsZDzpTt4OX63UCnrUJ14UGobauhUmqluXKOdgqUVRieK9Vo4SCUjbH394db5Tlk5dZBKSxSfvYsCqXnyPLY9fdGkJDc95sUg5tmxWCIh5DGR3jCR6HDL5uOoXDUcNyfWoR1W65Bp+CHNERERERE1DFM8ruBHcowLqEOd946E/ERLtBVXJaeabB5Vylun+CKpxd7Y/oIJ3y2T8gMjairqYHO1glO9ffmc1TDQXpIlkepVEBXWYmc7FJcEqdjWVj/wWWUS88rbGxgbyMViIiIiIiIOohJfjdYtGgxSktLkJl5Ekvu+hVqzr0rPdMgr6gO9/0nHyE+KvxO+L+otE56Rq724hnkIgzxA8Pg4uyNuAGxcJaeI0ugQ22dHZzdDWflK08WId/PAbWHc7H/pzwc1TgixLEOGp0SSfMS4LdrD/57xBt3zHKHUideei9fn4iIiIiIyBxM8ruBl5cPvv9+Ow4fOYScnGx4uirw4H334KkVT8smbx8/aIU8z8vdBi7qFpK8sv34ZlsmnIbejkV334N051I0fLOfeppSUYcju/MRdcc43DvOEcg7izc/UWHmnzPw2PJ0PD7XA4Xny2EX1x/zIvOwfmsxTm35BacHJmNaP0Xz9YmIiIiIiMzAJL8b5OVewo2TpyBt6DAEBAbict5l/OPvf8NTK/8km/Ly8uDiqMTvb3HHDQPU0trCH0l7CB//+1lsyxKTQKD4+IdY9+L/w6uv/D+8tmktNvz737zpngUp3HUQf3rsW7z8rUb4e+mQ/c0BrHh8N1789248tWI/dlxWoDbzGP70xxO4oBP+pjVXseEPO/DRuebrExERERERmYNJfjd4a92bqKisgLePD/7v//6Lmppq6ZnmPt2nweNrCrBlV/23to1TogqV5VUAb9ZmkZRaHWqFBL6eUleH0jKtyX+vpusTERERERGZgkl+NxCT+u+++xZbt36Ma9euSXONW/tFsfSIiIiIiIiIyDxM8omIiIiIiIisBJN8IiIiIiIiIiuhCA2LEH+3qxlPD1cUXS2RSu3TGXUEB/kjOydPKrVPd+/LwgVzseaDTVKJqPMtnT1H38acquTd15L6y8OPPILly/8kzTFfX33/aAnjYfDMM0/r2xXjIcd4yHW0DsZCzlg8Vq1aiSefXCGV2mbt8TAX4yHX1+JRP5a1pK/Foy2Mh5wp28Ek30Tm1CEm+WQ9vL29UVhYCJ3+d+wtB5P8tnFgkbOGeDDJN47xkOtoHYyFnLF4MMln+6jHeMiZEg8m+eZhPORM2Q4m+SYyp45ye94V3VrY29nh+ZWr8Nq772DvzwekuZaDSX7rOLDIWUM8mOQbx3jIdbQOxkLOWDyY5LN91GM85EyJB5N88zAecqZsB7+T3wXExMvYFKJ2MTrfnCnW28/ofHOmztgOS6mjq+MxdcRouLm64pbJU+Bc3bV/2/bUQURERERE1BiTfKIW2Nvb48bJE/WPQ4KDMXDgAP1jIiIiIiIiS8Ukn6gFY8aMhouLi1QCpk+fCoWCX8UgIiIiIiLLpUhNTbXoa37VajU0Go1UIsZDrqviYWdnhyeeeALOzs7SHIM333wTR44ckUqWx5Lax7Jly7B69Wqp1DPYX+SsIR6d2a7YPuQYjwaMhZyxeFjCe3xPYfuQYzzkTIlHX+o/bB9y3RUP3njPRIyHnLXHY9KkiZg752ap1OBidjZWrlzV7E771h4Pc4l18MZ7DSylDmuIB2+8ZxzjIdfROhgLOWPx4I332D7qMR5ypsSDN94zD+MhZ8p28HJ9oiYafxe/KX43n4iIiIiILBmTfKImmn4Xvyl+N5+IiIiIiCwVk3yiRsSz+JMnTZBKxvFsPhERERERWSom+USNOKnVeO+9D/Daa2uvT8UlJbKyOJWVlUlrEBERERERWQ4m+USNFF29il2798gm8Q6YTeedPJkprUFERERERGQ5mOQTERERERERWQkm+URERERERERWgkk+ERERERERkZVgkk9ERERERERkJZjkExEREREREVkJJvlEREREREREVoJJPhEREREREZGVYJJPREREREREZCWY5BMRERERERFZCSb5RG1QKBTSIyIiIiIiIsumSE1N1UmPLZJarYZGo5FKxHjIdUc8li1bhtWrV0sly2ZJ7cMS4sb+ImcN8ejMdsX2Icd4NGAs5IzFozeNjZ2N7UOO8ZAzJR59qf+wfch1VzwUoWERRpN8Tw9XFF0tkUrt0xl1BAf5IzsnTyq1j6XsC+Mh11vi8cwzT2P58j9JJeP6UjxMIdbx8COPtBm31lhbPNg+GnSkjvr+yHjIMR5yHa2DsZAzFo9Vq1biySdXSKW2WXs8zMV4yPW1eLR1bNnX4tEWxkPOlO3g5fpEREREREREVoJJPhEREREREZGVYJJPREREREREZCWY5BMRERERERFZCSb5RERERERERFaCST4RERERERGRlWCST0RERERERGQlmOQTERERERERWQkm+URERERERERWgkk+ERERERERkZVgkk9WafW/Xrk+rfzLvzF8xGjpmZaJy7alpWUeX/EP6ZFcS8ub8lpERERERETmYpJPVmvZg0v006sv/RvjJk6T5hIREREREVkvJvlk9RRKBWxsbKQSEB0bj+VP/T/84anViIyOlebKRUbG4g8rntVPCpWdNFcuMXkgnvrLvzFnwWJpjkFLZ+lbWp6IiIiIiKizMMknqyUm2+K0eMkD+GjzRmkuMP2meXj/3TewedN6zLz5Nmmu3IybF2DTO29g47rXoLJzlebKTZ46E2+/uQZHfzkozTEQrx4wpqXliYiIiIiIOguTfLJaYrL9j2dX4HJeDo4fPSTNBbx8fHDq5DFhOgpvH19prpyPrx+W/ub3uOf+R6FQ2kpz5dw9vHH61HFkHv9FmtM6c5cnIiIiIiIylyI1NVUnPbZIarUaGo1GKhHjIddSPMQb4f1t5e/1j5NShyIkNAKffvSOvrz0t4/hmy8/0j8eP3kmXvrPX/WPG68jLvPlpx/gfNYpLFu2DKtXr9bPb7zMXb9+BDu+/Qx1dXWYe+uvrs9vzNzlO8qS2kfjuPUU9hc5a4hHZ7Yrtg85xqMBYyFnLB6W8B7fU9g+5BgPOVPi0Zf6D9uHXHfFQxEaFmE0yff0cEXR1RKp1D6dUUdwkD+yc/KkUvtYyr4wHnJdGQ/xMv36y+YVCgV+++Dj2PL+28i+cA4xsQmYs+BOKFUKrF/7Eq4V5em3o/E64vf2xe/OOzqqYaOsxROPPqif33gZ8fv8ty2+FyeOHsagocOvz2+8jCnL17O29vHwI49g+fI/SXPMZ23xsIQ6rCEezzzztL5dMR5yjIdcR+tgLOSMxWPVqpV48skVUqlt1h4PczEecn0tHvVjWUv6WjzawnjImbIdvFyfrFLjBFqn0+GFf/5Vn+CLMk8exTNPPYI///FhnD2TqZ8naryOeDn/X55ahj8+dh+01Q2dqPEyZ06dxMrlv8PGDa/Kzso3Xqal5RvPJyIiIiIi6ixM8omIiIiIiIisBJN8IiIiIiIiIivBJJ+IiIiIiIjISjDJJyIiIiIiIrISTPKJiIiIiIiIrASTfCIiIiIiIiIrwSSfiIiIiIiIyEowySciIiIiIiKyEkzyiYiIiIiIiKwEk3wiIiIiIiIiK8Ekn4iIiIiIiMhKMMknIiIiIiIishJM8omIiIiIiIisBJN8IiIiIiIiIiuhGDFihE56TERGPPDAA3j++eelEpmKcaOuwHZFZBnYF4naj/2HupoiNCzCaJLv6eGKoqslUql9OqOO4CB/ZOfkSaX2sZR9YTzkeks8nnnmaSxf/iepZFxfiocpxDoefuSRNuPWGmuLB9tHg47UUd8fGQ85xkOuo3UwFnLG4rFq1Uo8+eQKqdQ2a4+HuRgPub4Wj7aOLftaPNrCeMiZsh28XJ+IiIiIiIjISjDJJyIiIiIiIrISTPKJiIiIiIiIrASTfCIiIiIiIiIrwSSfqA3btn0rPSJzMG7UFdiuiCzDN998Jz0iInNxLKOuxrvrm4jxkOuKOhYumCs9Iup6az7YBKeqtn9BtKNtne2aLF19X+gr4y37JFkaU8ejpnqiv7H/kKXpruM5UWfU0V1jLZN8EzEecl1Rhzhw7Ny5UyoRdY3j+blYOntOtyb5bNdkiZr2hb6U5LNPkqVIT0/vdUk++w9Zgu4+nhN1Rh3dNdbycn0iIiIiIiIiK8Ekn4iIiIiIiMhKMMknIiIiIiIishJM8omIiIiIiIisBJN8IiIiIiIiIivBJJ8smq2tHaKjY9ucAoOCpTXapoUrfCNiEeLtKM3pOK3WBm5BsQgLcIdCq5XmGmhtPBEovJ6fa/u62/W6Az2galq3UwDCIqLg6SCf3xmuv66w7fopPBJ+nq6wUZj+WlqtE7zDYxHs5SDNIRHbdaO6u7ldwzmwoU0bmfxdbaQFW8Z2bX3YJxvV3d19sjGVEzyC+iMuIRmhwj7aClGsZ06/02qdEThoDJICnaQ51JXYfxrV3VPHakZetzOwL/VeKjd3j6ekxzKOjvaoqKySSu3TGXW4ujqjpLRMKrWPpewL4yHXtI6kpARcuHBBKgEKhRIPPfw4nF3c4OrmgeSUAXBydoGnlw+8ffwQE9Mffv4B+udGjx0LlUolrH9eWrtlitBJmD97EhJCdDhz4DQqFArpmfbT6TyQMnsJxg6JgerCAWSXNbzR6tzTMH3+DASU/ogTudXS3JY5hGcgfXAQqoV9KdUqGuoO1+D4oXOoarS9usipuH36KOE1v8e54o7vR2P1rztuUDJi+wtTfCoSBoxASnwIcDkTuaW10pIt0+miMGrxAgxQncXPZ69Kc3tWQXkZBvVPwIHjx2BXJ81sRUfbOtu1gaW0a2X0DNw2fayhTRuZvMoP4NilSmlp4+rbdYryNA5mXZPm9j5N+0JfGW/ZJw0spU+KxNzEpd94TJ23ACMHJiMiKh4xiWlIiHBH+YWTKBT+lOaMJzr1QEy6eQLiXQtx8GgOtJ0Q+64SGhpq8njUVE/0N/YfA0s7VjP2up3BkvtSdx/PiTqjju4aa3kmnyyWp5cXKisrsHnzB/jqqy+hVjti566d+sfidPXaVZw5e1b/eOPbG5EiDCxt0WqVCE/sDwfhiELrmYy4gM7tAgqVNwbcOAn+qoaBA3VamPPrt/Z+8UhI7g+vtk8odgtd4Y/4+K3/4Z11a7D54y9wQRuJYVMnIVjZaB/JZF3XruPZrk2gPb0V74jtWZy+PoYqnQ45u9dcn/fVkWJpybbptOb/rjVZHo410owepPQfjxmzRsFHcxg7tryCDa+/iI+++hEl7gNxw6wb5ftpivJ9+Pydt/De5z+jRslD3a7EMU2aYa3Yl3otRWpqqkUfpajVamg0GqlE1hyPyZMnY+fOnVIJ8PPzx8JbF0MrHISLAoMCcfnyZdTVGj6u8/D0QHV1NcrLyvX/26iU+M/zf9c/1xKtKhFT750DryPf4nLCWAQdfx1rvz4rHGFIb1yOYRiQMRoxQV6wrb2G3F++wvc/XUAVIjDy9inwOrsPuV6piPVzQk3xBZza/TkOXqoQBiQvpC1+AEMdSlDi5ALdkbfwzpenUCvUq3VNx/wlE1Cz/Tls3l8mLGsDn5RJSIvvB0+nOpTmHMGPwn5fKgd80+7ChNRguDtpUV5UhIqsr/D2t0WGurXf4K03v0VJozdZbdw83D8lEsfeX4VvzwvzW9h+8Y25tdfVasP1++dxdj8KfVIQHVCLIxu2wG7W75q9rk3SbfjVBD8cWv8cdl0W67UV6p0o1VuNkryT+Hn7dlzU19sfkx+aj+Cjb+A1Ic6tbYNeK9vfWY7n52Lp7DlY88EmhKhdpLldh+3astr1L2+/goMlhtfShkzH0jmDcfmLp/HJUflpAFPadcChV/HGdxf0l5XGjp+LQQGVOPX1RvyYo2tzmzxP78Ulj3jEBHpBUXIWR7Z/jqNXpLNH3dAPRE37Ql8Zb9knLW2seRfayQ8hwzsTn7/6Ns5UN7yurfC6d06JwYVP/4ZPj0XJxxMbPySOGo+Efv5QKytw9fxP2PPdD7hSI26D4XX8T3+I9/fYGvrc2Z+Q75WIKG87lF78ATu/y0XgmBvQP8QXdppzOPztVqEP1hheuJv6oCg9Pb3bxqPOwP7TO47VGmttPNM/D0cED56MwbGhcLXV4MrxAygKSEN4wafY+D2a9yULGL9E3X0811m6a6xVFl0tgbFJZGy+ORPrkE+sQz41rcOYysoqvLtxo366kn8FH3304fXysaPHsGf3Hv3jr7/6QlqjdQ5xqQi1LcaZ49/j1NkKOMUNQLDK8JxW647UmYswItoNZRcycanMFZFj5mNUlPh9MEe4ePshdNg0DPKuwuULF1HlloCRc5diuF+jS5cKduCb/QVwTboJo/pJ3yPTNXw6LF6S6C0MDrdMSIVH7SVczC6GQ+R4zJwzCb5KLaqKLyK/VHyjrMS13PO4VGT65TytbX9br3t9/9ImItm7Blcu5qClq/FdXNygQAXEq4TEen2G3ynUOwheulzk5JRBHTYW02+9GeF2jT4hF7S1Da3Hv2s0bn8tTaYu19JkDNt1D7ZreS5vlKntWivEQAtnRE+6C+OT3FF8YCt+zK4ybZuGT8FAPx2KrpTAPnAQxsyajMAe6gei+rbatP2aO/WGOoxhn+zBPqkNQ3CQDcpO/CBL8EVVJz/Be++8gQOXpBkS/TaIlyinhEB5NQsX8mrgkTAVN01Kgo24EdLreLjYX38cJrxmgqsGBcW2CEi5CTfdJexDqC1K8guh9B2A0dPHwltYtyf7oLlTe9drPJlbhzHsP5Z3rFZPrLO18UyrVSBw1BLMzEiAS+VF5ORq4DVkOob0E/qPa0NMG/clSxu/RMbaatPJ1OVam3pTHZ3/sQpRJ9Lp6oSGWqSfamtrcO3atevliooKlJWX6R+XlJRKa7RMvGlPbHwkbEqO4UxuLS5knkK1Q3/0j7IzLKASDjT8bVB95kts/fJjfP3eWny9Yy9yK4XnpU+oFZqD+OytN7Dtqw+w5c2PcE7nhZQRA2AnPQ+FFpd3vo8DhS6InzQdYWJCoNU13DrIPgnDhgWh9vj7eHvTe9j+5QZs2noQVZ7DMbi/LYpPfIV9Z8Tv+F7Fme0fY8eRXMN6pmht++0SW33deqprP+D9V17FF59+gdPl0oDo4I9+CQMQmzAQSUOnY1yKL1CWhYtFwnP2yUhLE+o9tRkb39mEb7/YgHc3fY+rTkkYMTjAsH69Nva91e3XH7RZD7brnmvXZ8pNGPZMbNc6OKHfhDsxId4W575+HZ8dKRT6S4pJ26Qs+xEfv/4mvvr4NWzenQM4R6Ofj/BEH+oHloR9sgfHGnsfuAvdsri4QHq2gVJXjqJLF5BfIp1hr6fSoSBzH/Z/9So2vv8etn30KvacqYF9SDT8pUWaUlzdjQ/XbcAX77+FA5eVcHbKx+4Nr+OrT9/Cl4euQuEejmBXYUH2QbOx/1jAsVpL2hrPHFIxZJA3ak9/jI3Ca377xXq889EBVLRSLcev3oFJPvUdrsmICVaiqqAUdmFRCKi7ikKtPfr1TzB88l93DhdyqmHXfy4W3347bsiIhubYLhy/JAxK0o1Gai6exMU6qdtUncT5HB1UPgHwMswR3uCUUNTmYO9n21GgTsK4iUlwrKtrGDi8g+BjKwwk3kMw9ZY7MH327Zg6OFBIFhTw9PKTFmqn1rbfJ9ik163IPouiJpdUKdwSMGrKzZgweSZGjxoC35pT2PnxNuSLy4n7Y6PFxRNHUC2tV5t/CGcKFXD3D4ZN/YAqamvfW9v+LrjMy2qwXberXbfKxHatjp+FyUneKD3wNj47dMXQTk2MRdXFM4Y+JLiWl4tKqKG/2pD9oPdjnzSvT9ZUQzwZaaOyMZRNoNQV49KxA8jWxWDk1Ntx8+33YVSkkAQ5OsGphW5SeekCrupf8xrKxcuUNVdQUKF/CtdK9J9aw1bMI9kHexb7T+eOaW2NZ15CXJQ65Gad0H9tQf/8uUxkt3KFAMev3oERpz7DIyEFAUoFHCInYebcxZh18xgEqhSwjUhBtKP4/lOMg++/hC92HUKBzgeRg6fj5iW/w4T+4kf7Brq660OAoFY4NqkTjkxscf3QRKHUd6q6y9/hq905sIuZjnFxjX52RDiCsBXerrXiDV6EwUo/1RUj/2wmrkjfjWquVlhe+E94HelqtetsbMRXroMwNrW+/Sa/bqOkXKIr3IsPX38e619/EwcLtVAqhPUuS3cft7UV6hVfv3FcaiB+FU9hJ75mI21sgynxp+bYrtvXrltlYru2tatEWZkO7vGjEecmDacmbpNW3Ll6jS4TZT/o/dgnzeyTxVdwtVqIm28wlMLyjWntQpAwfCySguU/36VVhWOUkNjfNGk0IjyVqCg8i7OXWr9kWif0M1OwD/Ys9p9OHtPaGs9USmF761BRLn3ipVcnvLb00AiOX72DdFRCZN20Wh/E9Q+A7upP+PztV/Be/bTtKCqVEYjt7watrQeCo8NQdfwjfLLhX3jlpXeRWeGOmAHJUEtn7uz8g+BefxCiDEdQsPDGffUKCg1zxHc4iJ8jix9YFux7Hz/m2iAiIx2+hmeBQuFgRqdEWeYn+GTLev300dZvcfzkHuz9pfHlXsKbrjRKiG+aBQVCUu0egTDxmkaJVvxkOzxEeIPNR2G+UG5t+6/km/i6RtSWobhAWL/oNPb9cALVLgMxcpB4XZZAeOGrOlv4BwUayiKHfgj0BCqEdWQ/edPGvre2/Y71MScZtusOtOvWmNiuK499grc3f4t8uxiMmTEOPuJ3Jk2OhXHsB70b+2R7+uRZnDxVCrvoURjk1/DRsHiHdZ9BUzB6+GB4oElmFZCEGDcFcra/gLfWv4VPP/0KeTVt/36+KdgHew77TxeMaW2NZwV5KNTaIDAi+vrv7KuCoxEgfTvCHOw7lqWhFRJZmPLycnh6ecPWVnY+2Cj/gACUt3KnSmXAQMQIb2iFx3bj9KULyJOmSwd/0H+fKTA+BS72MRg+eQYmT5uGxLgE9E9KhJ8TUFVUgOs1e43EjVMzEBubiiHTpiLaoQpnfz4ATX0yqxA/ETVQCsPJAeHA45LOBrb1z5cewMFTFfAfdituGJKKyLjBSJ95KybfeAsGSj8RU15WCh38EJ0+Gklhbvp55/fvRL4uCMPm34nRaWlISB2JUTN/hRtiHFB8ZAdOiifWHWJb3v6ytl/XFJUntuFggQJ+QyciSvwOW+nPOJipgfug+ZiUNhDRcUMx5uYbEabKxcH9Z6S1JG3teyvb3/jz5d6O7dry2nUzJrZr8cyg9sp2fPb1SdT4ZWDKpAQ4lOzv2Db1kX5gSdgne7ZPKpV1OL/9C5yp9MfQ+b/FlHFjkTowHSOn/wqzhgVCc/or7M9ukiCUFaNcp4B7vyGIjUnF4PG3Ii1cPFvaCdgHzcL+YyFjmjoMCWmjMXDIqOtTlLewTlvjmeZn7Dt8Fc7J8zDv5tkYPWkh5s8aCrf6WJiDfceiqNzcPZ6SHst0xo/9d0Ydrq7OKCk1/a6VxljKvjAeck3rSEpKwIULF6QS9D+1Ig4ac+cvQEbGaDg4OGLo0DSMGjVKPwUGBiImOkb/OCgoAO9vekcYbJrHRvzwMGjYLKT6FeLQV9uRW9XwxqVAMapcBiA+2gcVh9/H/iseCI0diPiEJPQLdUfVuR348qt9KKn1RdTwRKhO/4SS4JEYJGxrkFsVsve8i69/zkctnBCcmoYg3TkcPnwO1fVvjlU5uFQdiv79PKA5vxsn8ypQmHUaVZ5xSBgwGP1j4+BnX4wzOzfi26PXoBPWqy0U6vPrj+iYeIQ7XcHBozmoLb+Ic5dq4RaSgNi4/oiIiIKfWw0u7f8QX3x/XHjzVEJXmY3cMnej218mBKG119XCsH+uVw7h57NX9Zuu06mlfcrC4UPnUCVsm0IYQq9ovJEYnwB/1VkcOVeAwvNnUeURg4SUQYiJiYYncnDo03fx46UKYQBsqPdglrBsa9sgxKql7S/VtjG4maFAaCOD+ifgwPFjsGt0xVlLOtrW2a4tq103pnOLxaCEQJSf2Y7MK/UXHArxU9Sh8NwZk9q1WG/l5RPIVyciOSkFfjW/YNeuQ8I29Te9r7nGYGBiAEpObseZS93TD0RN+0JfGW/ZJy2vTypq83H6eDYU3pHoFx2PqMgo+LsKr3vwU3y57WeU6oTX1flcX/fAL0dwRRuEyIQB6B8XB3+nazh/SQtvDw3O7jmMAl3D6xw4YyN7TfFkr0//sYhwysGxnzJRLsRC5Z+CQREOyDm4FzlXu68PikJDQ00ej5rqif7G/mOZx2rBHl4IDItESKPJNn8HTl2pbnU8UwhNujjrCPLq3OHlHwIfV2FsEPpBvkckPEt/gdBFWuxL+tfvofFL1N3Hc6LOqKO7xlpFaFhEw5FNI54erhBvv98RnVFHcJA/snPypFL7WMq+MB5yTetYuGCu7LdXe4pWYQu1ixMUmmJU1Bq6R/3vYvvs/z+8tTNfeF6N2tJiYcBo/5uWVmEPF2dbVJWVoFY4gGlMHOxsHOyF0bNCeFOXP6e0c4erugYl10qbPScytv2Ntfa6HaJ0hLNjLcpKhTcd8Rq4VrS6721sf0c1/l1Vp6q26+9oW2e7bmDt7bqpjmxTV/cDUdO+0FfGW/bJBpbYJ7UQ6nVSorq8+TY1Y+MMN3WdsI3l0JnZP9vSHX1QVP87+aaMR031RH9j/2nQ68Y0I+OZuA+OwcOQoD6GA6cN7UBrNwgz750B1/0vYd2OJr9faYLu6jvdfTwn6ow6umus7aRWQ2Q9lLoaVJZcM/rGpLKxETpNHSpLSzs0aIiUuiqUl5YZffMW33u11VXGB4bqa7gmHNC0dPDT2vaLWnvdDtGKP5NTY9j4NrS6721sP7UP23U7mdGum+rINrEfWD/2SeOUEOotN75NzYj3jCmp6PQEX8Q+aNnYf9rB6HjmjugRYzB86lLcNGkSho2dg9m3TUIICnAqs333AWDfsQyd2HKIrJkGxfmXUFTeym+KEPU6bNdEloV9kqj92H/MpVRew+HNa/HtL5fhEJSM+OggOJSdwJ4P3sDe3HZ8h4QsBpN8IhMoleex9+2X8MmP7by7KZEFYrsmsizsk0Ttx/7TPsq6PBzbtg4bX3sOr738L7zz7gc4cKFEDKi0BPVG/OsRERERERERWQkm+URERERERERWgnfXNxHjIdcVdYh3bCXqauJdWLv77vpElqhpX+hLd9cnsiSmjkdN9UR/Y/8hS9Hdx3Oizqiju8ZaJvkmYjzkuqIO/c+y7NkrlYi6xvHcC92e5LNdkyVq2hf6UpLPPkmWIn14Wq9L8tl/yBJ09/GcqDPq6K6xlpfrExEREREREVkJRWpqqvkfHXYjtVoNjUYjlcia4zF58mR+OkxdrvEnvyFqF2lu12G7JkvVtC/0lfGWfZIsSf2Z/O4YjzoD+w9Ziu4+nuss3TXW8nJ9EzEecl1Rh7FLwBQqe9i6x0olIMi1EjYqqdBIeUU5LuXkSCWilnX35V3G2rWtrR3Cw8KlUsvYrqkrNe0LfflyfY411FOs4XJ9jmnUE7r7eE7UGXXwcn0ihRKew56Fje9owD0FbikPIaRfHKKio5tN8+bMR3r6KGlFIsulENr1ffc9AA93T6hUNpg2bTriExLZrol6CscaonbjmEZkmZjkk8VSOfqirkaDrH2v4+LBzajRXMHOXTvw2Wdbm03r1r2J5KRkaU0DLTwQnJCCAOeGT/e0OhU8IwYg2k8tzWk/Y/XX0yo8EZKQBF9H8z+ZJ+vm6eWJrLNncejwIWRlZSE7JxvffPu1Se1aq1PCPXwA+ge7S3MMtDo1fGMGIKqFdq219UNkQiw8VWyPRE1xrCFqv46MaSJD+x6AeP2UjKiwADh14lildQhD6sih8LPtnP4j297EJIQH+grbKz0paO31TNGR8br+vSKwyZXrzoEpiA+RHzeQ9WOSTxZLobCBrq5aKrWuprYGSmWTayuVoRgwfjLifaSyniPChkzFiFgvqdwBRuuvF4yU8eMQw/dUs2h1CoQND0W0kYNZU3R0/e5gI7TT6uoqqdS6pu1aqdAC/kMwbtIw+KPRProkI2PyDQh1rJRmNOESi7Tx6QhzlMpk8fpCX7AUHGvIGPZB03RkTNPTt+8pSB82AgMGZyB96l24ffFcxLp2UtxcQhAdF48Ao1/Zbkf/kW3vDZhw81LccdciDA93Njzf6uuZoCPjtX7bpmP6lOFwb3SM4JU4EWNTQqRS92D/6XlM8qnXqL6WCV2t8RtVFBeX4MOPtkgl02mVbgiMHYD4mFC42kozBeJZGJeA/ohPTkG4jxOg0+k/XY2Ij4SXexhiU1IR4CB/49Hq7OEekoSEpEQEC+/1dXxfMptSaYfYsRFI9BZLDQEU3+zt7KSCQKsQnhOnevrHuhbXtyZFR48g36k/YoIU0hzAPTYevppjOHGuToiNGp7BCUgQ2miYt1rfdhsztONoeNSfJXDrh7jYIDiIbdxIu6eewb5gmTjW9B3sg92pFme+eQHr33gBr730On6pjUX6kMhmfcFf6Av6PhMo9JmkZIT5CB1AGqecA5MRF+4lhN9Q1qqDEBMfA6+yTOzfswvni/WzW+0/pvdHaXvX/gsvvfACtmbaIWXyFMSIz107JX89I32/vk5P1xBEJw1EbLgP7FpoI8bG9Bb3VT+u66DyG4MJQ3yvx0an0+r/Fxmr7/o+uoUgKiEZoZ6OQjt2gk9EChLiI+Da6KoCU48T2H96HpN86hVUSi2qzn8Mz2F/g8+YNXAf8AQUShu4qpX461JvvPyQD351Qzkc7BoSn7ZolUEYufBeTEsfhIShc7Bw8c2I1A8g9ggdvRQL5kzDoNQxmLzgN5g10EcYQWIxbMJMzJwzH8NTExDY6CpMrc4R0ROXYv70cUhKzMCUeeMRKD1HpoufPRhjgxyRdlc6Fo9wEOIK+I9MxvK/jsIjfxiDpx+LQ7yzDnZRCVi5Mg7BwmCgVbljwTMZmB6iaLa+VSo5glO5akTGRRgGZ507omMDUXrqCLKVgUib91t9O0xMGIVJC5ZgXGST0wEuYjvOQLg0Wxk0FDdkpMCjpXbfwgBOXYt9wbIo7Vz1449XxksoC1gChcr002wca3on9sEeUnsJuVdq4ODiBlWTvhCgtkfYWKHPzJ6E5KSRGD//17hlWDCUwjhV652EsZNHIVTKbDwTp2BCWjhsHOKuj3mt9Z/29EeRUleMrO1f4URNDOJjhScbjbEt9X3DMrMwe95cpCUOQtoU4XWnpsCpyXirVQYYHdNb3NdasVSKzJ9Pw3XYLAzxNVw1IbZd/f8t1GfYHmEfb5mDtMHjMWXh7Zg2+y7MyBiOgWMWYP7MIfptazFGRo4T2H96HpN86hUchHcu55iFKDv1Nq58txTaqkLYB2Rg9igXfPdzBZb+4zIOna3G1DQnaQ0TuEein1cxDn/0Cja+9TI+338ZdY7CG6L3cIxOBQ5v/CfeeOPfWLvtInxGjkaUvreokLvjeaxduw77ixp9oOA7AsPjdTjywX+wYcOLWP/TFdib/nkDSX55by+2ZVfgh5d3Yu3uKuFvEY47ZijwyZ+3Y9WKb/HiMW/cMcsL1SePYeNpf8yf4ITgqQmI2H8Yn1zQNV/fCikVZTh+IgsOkQnCoCjM8EhCtM9VZB67ANjboPLiXnz+5vN4e/2L2J7lhKjYfqZ9CN5Cu4/kKNEj2BcsizriZlTkfIeC7UtRXXgY6rAp0jMm4FjTK7EPdicFbJ084OrqCZ/wkUgItUFhbjbq9G27UV9QjEBGsi1ObP4P3tnwP7z1eRbch05AogugOX4EF22iEBmmEhJKD0RF+eHqiYO43Lh/tNZ/2tMf6+lyUVAEuHn4SjMkLfV9PQcUH3od6za8jDff2YmqqPEYLCS3Mi2M6Zpjh43s68/CvorrK1Fxaiu+O+OEwZPGwlcpJM910pn8Vo8RVMjZ+QLeWrsG+wp8Ear6ERte/x/Wf3kMCI5FmHgVghnHCew/PY+Hb2SxdNoq4WDqIJzsqmGrqoPCxhHamlL9c+L/SpUDHO0UKKswvHmVarRmnclH4XEcy3HAwHkPYcHssfAqPo7sojrYBQTAXeeM6IlLcNuiX2P24CDhtXzg6apfCXk5GmE8kr+Ovb8/3CrPISu3TkjCgPKzZ4UlqaPs+nsjSAh3v0kxuGlWDIZ41ME2QjgIUAgDwKZjKBw1HPenFmHdlmvQNfmbWLOKE8LBjF0sYsKU8IqLh1fBLziZLzyhuYzcQgVCxtyBW+9+EGMjVLB1cESjq4NbZBMYaLzde0gLUI9iX+g69WON2rZaf9WYMUqVPXQ1hp8r0laXQSGMPybjWGMV2uyD6eyD7WeDqPH3Y9Fdv8W86WlwOPcZvvxJHNREDX3BXhynqs/hbI7+lDUqz2biEgLg5yfEu/ooTp5Vol9MJJTuCYjyzsOJY5f1y9Vrrf+0pz82sIOtHVBTXSGVJS30fYOryM4SXl2oU1uYiYslavj46V+sQUtjurCvmVlN97U+Xgph38px6uutOG0/DONHhkJZf7l+q8cIhci/VCWsW4ryMmFfrhaiQti22uISaIT9s7NvJUYmHCdwDOt+TPLJYtmhDOMS6rB44UyEBnqj7PRGuCU/CM+0P8PedygqLn2HzbtKcdsEVzy92BvTRzjhs33CO0g9bQUqa2zg6CS8M13nBEdHYWCoLBfeyK7gwHsvYMPH3+H0VSfET7kL42JsoK2thU5XgFP7tmPvHmHa/Tm+2vo1zkhVG7t6ua6mBjpbp4Y7rDqqwYuLOk4pjMK6ykrkZJfikjgdy8L6Dy6jXHpeYWMjfjDd91Qf0x/MRMQNR/8Yb1w+cQjXhEFRGT4JMyemwKXoKH76ZhO+zxRG6qaE9quDCkopbmoHw7WH2poW2r2RKqj7sS90nfqx5s5bZyI+wgW6iua/X1yetQXOMYvgMeRpOPWbBs3Fz6RnBBxr+gT2wa5Ug8zP/x/W/N9zeOmFv+Pdzw+gyHAaX6++L+jbv40Drp8MFzJPe0U1qqt1Qj+rw5kTJ6HoF4ek/nHwzDuC49ek5SSt9Z/29MfrXOIQ7lONK5flH7m11PcNHOCglvZR4QwH4e2jRhiHG2tpTFcI+3r6eCaU9fuae7jRviqFxFv4tzoT3207CJvUGUjzN+xwW8cIre6joMUYmXCcwP7T/Zjkk8VatGgxSktLkJl5Enff/SuoKrNRtGcZlHYeKNz1kP4mfHlFdbj/P/kI8VHhAeH/otL6T0gFugvIOleJ0CE3ITncD+6eQYgddSMSXAqQlVUE+I3GwqVzEVF5BicOHcWVCnt4eLih9uJpZGt9EOClQ3F+Hqp8hiBjcLD0XSfjai+eQS7CED8wDC7O3ogbEAvpPqtkFh1q6+zg7G4Y+CpPFiHfzwG1h3Ox/6c8HNU4IsSxDhqdEknzEuC3aw/+e0S85Mtd/528putbonKNBiEhoW0OpqLAwED98k3VH8wgZgyS3bNx8sRV/XyVkxp2tQU4fyIT+dX+CBfvKtRUSRFKhPYdMzgJweGDkJ4SpJ+tvXjKeLuv0T9N3c76+4KlaDzWLLnrV6g59670TIM6TR4Kd94HG+dgFOx4ANpKYQypx7HGSpnZB3f3zT7YGWOaqK5KgyohCaxDy/GqvSCOU/2QMLgfXJ090W/IAPhVnME56XO52rOHcFrbH8MH+uLi8cP6M9GNtdZ/zOuPSji6B8E3MAKRCRmYdvN4+F7ZgX1nmizcQt83cER40kB4ObvBP3UQwm3zcPFCfcpr0NqYXpt1GGf0++oj7OsR2b7WP6zK+gLbfhE2Q/opT5OOEVrRYoyMHidwDOtpKjd3j6ekxzKOjvaoqOzYdyA6ow5XV2eUlHbsVJKl7AvjIde0jqSkBFzIzpFKwOTJU/S/qXo5/zIiIiJx+cpllJaVwTF4Aqqu7DcspK3R38xjxghn7DleBaVSh2rpzUahqEXBxWxo/Qdg6LB0DEgdiH5upTjxzWbsOa+BtqwQ1V4DMCRjHIYOiIFDwW58s/0YSirykHvNFdFp45A2ZCgiXIR1dn+BY5VBSE7xQsHPB5BXrYBO4Y+4tCjUnNyJs5dzkVfmg4T0CRg2eDACqwpQ5uqA4qM/4EIZ36BMpVDoUAoX3Dg/HvF1edh35ArO1QYKg2Q0hqWFYmyyDY5+fR65wfH47ZhSvPFyNs5mliJ4YRLCz15AZrF8/R+zmo/OBWXFGNQ/AQeOH4Ndo8+EWtLRtt60XVdXVwv92A0LFyxARkYGfH18MWL4CIwZM7bZFCwcOH3wwXsoL2/e5+uuVsM9JQXeebvw9aFc1Amjel3RNSB8GEakj0JytBs0JXVwrbuAn87ZIVFqu7mVhbhWE4KEQcMR388DBZcK4eWqwYk93yPTSLs/cbWVjIO6TE/0hb4y3rY11uTlZuHuO+/EpIkTZf3xxImj0PqMQ1XeD1CIZ6Wkn93jWGOduqMPikJDgk0ej5rqif7W2WNa4/addU3ehnWOYfK+UC32GRfEjpiIkWlpiHQuwIHPP8Gxa4bY6nTXUOU8EIn+2dj3xc8o1ArrNKojt6zl/nO+0Jz+GIfw8IGI7x+HIC81NOe34/MvfsS1Jq93qaiFvm8XLizjJLzfRmLY2FFICFHiwvebsetcObRq8TnD+tl5xsf0/ceFMV/Y12rXIUjwu4C9XxxEkfja+m2LRm3mLn0sFQotii/mwTEmBX4VJ7Hnh5NtHiOI++gdk4GwuqM4cLYIOqcIpCS5If/Az0L8jMfI2HGCNR7PiTqjju4aaxWhYRFGP3vz9HBF0VXD98/aqzPqCA7yR3ZO80vnzGEp+8J4yDWtY+GCudi5Z69UAu66cwlycy+hqKgIY8fdgL///TnUwQY+495ATfEZVGR/JUzb9Mu++8cAnM2rwQ/HKrBll/yTUD2VGi6OWpSVVghvgvJBRKtUw8muChUVwhtIo+e0OiUc1Lao1lTK5rdGC3uonYDKMtPXoea0wgG0nU6LWp0hhlqFCm5Owhu+eKWGCXFtun5jx3MvYOnsOVjzwSY4VbV96qGjbb1pu+5qYru1d1YD5aWoaeWMiHg9n0pb2+ysSXvaPXWd7uwLfWW8NWWsqakx/rv5vhPfRW3JWVRd3oPyrA+luY1wrLE6XdkHRenD00wej5rqif7W3WOaMVqo4Ogk9Jmy5v3MFK31n64YA5v2fa1nBm67PQyHXnwLJ22doagQxusW2oexMV08uaVUOKL/jPsxsuZDvPbpCaFdmratJh8jtMKcGHXnGNYWSxmfumus5eX6ZLHeWvcmKior4O3jg//7v//qD7p0dbUoP7sZRT88fj3BF326T4PH1xQYT/BFdRqUCm/mxgYDpVYjvE7zNxulQovqiiqz3uSVqEJluXnrUHNKYQRr/Iau1NUJfz+tyXFtun5fIrbbmvKytgdvbZ3RyyLb0+6p67AvdD1jY01LNBc+048/RhN8Eccaq8M+aHmUwuhVVW68n5mitf7TFWOg8b6vgspGaBsaYbxupX0YHdNdhmHO7x7G2ICL2LXD9ARfZPIxQivMiRH7T89hkk8WSzzQ+u67b7F168e4ds1wRxGdthplpzboHze29oti6REREZHpjI01LSk78br0iIionYoP45sPv0KWkCe3i+YItr2zBq+/sgHH+TUdagGTfCIiIiIiom6grLuGvHM5KNW2L0FXastRdPkyKhr9AgFRU0zyiYiIiIiIiKyEIjU11fw7fXQjtVoNTQs/t9EXWXM8Jk+e3OM3cyHr1/hGLSFqF2lu12G7JkvVtC/0lfGWfZIsSf2N97pjPOoM7D9kKbr7eK6zdNdYy7vrm4jxkOuKOizhjq1k/br7bqxiuyayRGIfaNwX+urd9Yl6Eu+uT9Q+vLt+69vBJN9EjIdcV9TBgYO6Q08k+WzXZIma9gUm+UTdj0k+UfswyW99O/idfCIiIiIiIiIrwSSfLJpCZQ87r+TrU79+MYiOaj4FBgVJaxAREZnH1tbO6NjSdOJYQ9Qcj9WILA+TfLJcCiU8hz0LG9/RgHsK3FIeQki/OERFRzeb5s2Zj/T0UdKKRJaNB0RElkMhjDX33fcAPNw9oVLZYNq06YhPSORYQ2QKHqsRWSQm+WSxVI6+qKvRIGvf67h4cDNqNFewc9cOfPbZ1mbTunVvIjkpWVrTQAsPBCcMEA7WxCkZUWFBcLFp+zs7Wls/RCbEwlPV8rKGulMQ4Nx8Ga3CEyEJSfB1NP/7ddQHdPCAyFjb0+pU8IwYgGg/tTSn/di2qa/x9PJE1tmzOHT4ELKyspCdk41vvv3a5LGmnlblBv/IVKQMGoK4ME/Y6Az9xKQxxSEMqSOHws/W9L5l6x0rjW9NptggOEivTdTVOudYjWMaUWdjkk8WS6Gwga6uWiq1rqa2BkqlSipJlKEYMH4K0oeNwIDBGRg19Q7cdscCJLhLz7fEJRZp49MR5iiVjdHXPRnxPlJZJhgp48chpq3XoWa0OgXChoci2shgbIqOrt8dOnpAZLztOSJsyFSMiPWSyh3Atm0R+kJfsBQ2wthRXV0llVpndKwReaRgym33YvakMUhMzsCYmb/BbbOGwl0hxN+UMcUlBNFx8Qgw41egHAJThLHNML6l3zAV6SPEx8KUEglnaRlqP/ZB03TOsRrHNGvD/tPzmORTr1F9LRO6WuO/K1lcXIIPP9oilRqrxZlvXsD6N17Aq//3Kg5WRWHE0Gj9M+InxS6B/REvJFFhPsIhUQtnPvTLBQjLJacg3MfJ6HJanT3cQ5KQkJSIYKGqOr4ntYtSaYfYsRFI9BZLDUEU3+zt7KSCQCseOItTPf1jXYvrW5IOHxCZQKt0Q2DsAMTHhMLVVpopMNaWxbOMEfGR8HIPQ2xKKgIc5HFj2+4ZfaEvWAutzg2pE6YguOx7vLvmn3jrtb/j1Q07UBYyETcM8JCWaqBVqOEZnIAEob+Feav1/RDXTmH/nl04Xyw8X98n3UIQlZCMUE9H4e/qBJ+IFCTER8BVuiKg9PC7wtj2X7y19lNk1QK5u9foy+vf/R6VQSmIC/cSmoNhWa06CDHxMfBw9NXX7ekaguikgYgN94GdrH21Pd71FeyDna/lY7XWcUzrfdh/eh6TfOoVVEotqs5/DM9hf4PPmDVwH/AEFEobuKqV+OtSb7z8kA9+dUM5HOwU0hpG1F1BQVENVHaOUGjtEDZ2KRbMnoTkpJEYP//XuGVYMJRNDmjEwSB0tLDcnGkYlDoGkxf8BrMG+ugHknpanSOiJy7F/OnjkJSYgSnzxiNQeo7MEz97MMYGOSLtrnQsHuEgxBbwH5mM5X8dhUf+MAZPPxaHeGcd7KISsHJlHIKFwUCrcseCZzIwPUTRbP3eoH0fXrVMqwzCyIX3Ylr6ICQMnYOFi29GpHCQ02Jbdo7FsAkzMXPOfAxPTUBgo6sj2bZ7Tl/sC72WRzLiAopx5LudKKhRQCkMQ1X53+ObL7bjQoWDMK5Iywm0ygCkzfutvk8lJozCpAVLMC5SSOJdxH6YgXDxbL/+sdAnb5mDtMHjMWXh7Zg2+y7MyBiOgWMWYP7MIXBqI/mu9U7C2MmjECod5XkmTsGEtHDYOMQJdc/C7HlzkZY4CGlThPeEqSn6+kwZ7/oS9sHOo7Rz1R+/eWW8hLKAJVCoWrusRY5jWu/E/tPzmORTr+BgUwvnmIUoO/U2rny3FNqqQtgHZGD2KBd893MFlv7jMg6drcbUNCdpjXpKuIamIi5+AFLSZmBwPyVyL2ShzmcEMpJtcWLzf/DOhv/hrc+z4D50AhKbXirpPRyjU4HDG/+JN974N9ZuuwifkaMR1bjn+I7A8HgdjnzwH2zY8CLW/3QF9q181kAt++W9vdiWXYEfXt6JtburhPiH444ZCnzy5+1YteJbvHjMG3fM8kL1yWPYeNof8yc4IXhqAiL2H8YnF3TN17dwrX149TdTP7xqyj0S/byKcfijV7DxrZfx+f7LqHNUtdGWVcjd8TzWrl2H/UWNXottu8f0tb7Qq3l6wU17BQWFUlkgJvpFmTvx4/E8aBv3GXsbVF7ci8/ffB5vr38R27OcEBXbz8iJKhVydr6At9auwb4CX4SqfsSG1/+H9V8eA4JjEdbobKYxmuNHcNEmCpFhKuHg2gNRUX64euJnXNZviwOKD72OdRtexpvv7ERV1HgMFg6qW3qPiOyjR4rsg51HHXEzKnK+Q8H2paguPAx12BTpGRNwTOuV2H96HpN8slg6bZUwGByEk101bFV1UNg4QltTqn9O/F+pcoCjkPyUVWj180o1WiPJkBI+MaORNmwMhg9LhOrku/j0UAnsAwPhXn0OZ3Nq9UtVns3EJQTAz0++vl1AANx1zoieuAS3Lfo1Zg8OEl7XB56Nvr9l7+8Pt8pzyMqt0x/YlZ89i0bHetQBdv29EaQB+k2KwU2zYjDEow62EZ7wUQgDwKZjKBw1HPenFmHdlmvQKXrfSN3ah1fftvrhVSsKj+NYjgMGznsIC2aPhVfxcWQX1bXcll31KyEvRwh0kxiybVsOa+8LvVpVJWoUtsI4JZVbo7mM3EIFQsbcgVvvfhBjI1SwdXBE85y9EPmXqoR+V4ryMqDmaiEqhL9rbXEJNLCDnb20WEuqjyIzS4l+MZFQuicgyjsPJ47lS09eRXaW0JOF+rSFmbhYooaPn2vL7xHNv3HQJ7XZB9P7Zh+sP1ZT21brP7g2Rqmyh66mRP9YW10GhXD8ZjKOaVaBY1j3Y5JPFssOZRiXUIfFC2ciNNAbZac3wi35QXim/Rn2vkNRcek7bN5VitsmuOLpxd6YPsIJn+0T3kFkanHm63/j9Vf/gy9PauDqFwxn4b2jrqYGOhsHiB8G6wlHTPaKalRXy0+naGtrodMV4NS+7di7R5h2f46vtn6NM41eRl+XrROc6utyVIMXFnUOpTAK6yorkZNdikvidCwL6z+4jHLpeYWNjXhirFfp8IdX2gpU1tjA0anxUb4THB2Byspy4cDlCg689wI2fPwdTl91QvyUuzAuxqbNtmzsily2bcthjX3BahReRoEuAOERDZcga3UuQt/7NeaPjpJdrq8Mn4SZE1PgUnQUP32zCd9nChl8CzpylbxSUYfTxzOh7BeHpP5x8Mw9jOPXpCeFXuyglt5TFM5wEN5KampqW36PaHkT+xT2QePqj9XuvHUm4iNcoKvIk55pUJ61Bc4xi+Ax5Gk49ZsGzcXPpGcEHNP6BPaf7scknyzWokWLUVpagszMk7j77l9BVZmNoj3LoLTzQOGuh/TfY84rqsP9/8lHiI8KDwj/F5XWSWvLKRW1OPvDHlzxTMPIeGfUXjiFbG0/JAzuB1dnT/QbMgB+FWdwrsnYVHvxtLCcDwK8dCjOz0OVzxBkDA6GTaP7ptVePINchCF+YBhcnL0RNyCWdzZuNx1q6+zg7G44AK08WYR8PwfUHs7F/p/ycFTjiBDHOmh0SiTNS4Dfrj347xHxki936X4K8vUtkakfXt3e0odXugvIOleJ0CE3ITncD+6eQYgddSMSXAqQlVUE+I3GwqVzEVF5BicOHcWVCnt4eLi13JYNF7MYxbbdk6y/L1iKco0GISGhJiXVgYGB+uVlKg5h36FKRIydjxHx/eDrH42kMbMwPMoOeWfPyS7XVzmpYVdbgPMnMpFf7Y9w8c5fXaQ26zDOaPtj+EAfXDx+RH8lgIEjwpMGwsvZDf6pgxBum4eLF8pbfo+okVbrc8zsg7v7Zh9sfKy25K5foebcu9IzDeo0eSjceR9snINRsOMBaCuFsaoexzQrxTGspzHJJ4vl7e2D77/fjsNHDiEnJxs+vr5Cnzccbagc/aCwMVzCXFsn3oBFWN7dBi71ZyeMubYPe0/UIGz4GARV/oxvvzwM29SFWLTkt7gxuhIHPvsS52uarF8mLncEqsTZmHfnvbgxVoHMfXtxWddoubL9+GZbJpyG3o5Fd9+DdOdSXJWeIvOIZ5+O7MpH1B3jcO84RwhHyHjjExVm/jkDjy1Px+NzPVB4vhx2cf0xLzIP67cW49SWX3B6YDKm9RNveNVkfQvU8odXnrIPr+5r4cMrpaISmd+8ix+u+GDYjKW4bdFdGN9faJdfbsKP+UJfyNuP/ecckTznfixeNA0Bxbuw42BhK21ZqtgYtu0e0xf6gqUoKytF5qlMPPbYMjzxxBNIiE/Aww89gqdWPN1smjRpCj799BNpTQOlQotLO9bh0+O1iBy9AHPnz8eoGBXOfP02vr8gz5BrTu7EvgJ/jFr0O9x600DYCa/dZbRnceJUNWyVQnJ0svEHEwUossnA3Lvvxy3p3sjZ/hEOih27hfeI/MbjXR/CPmiapsdqnq4KPHjfPc36jp+vt5C26aBy8BHGu4bUmmOadWL/6XmK0LAIo93B08MVRVcN359pr86oIzjIH9k5zS/9MYel7AvjIde0joUL5mLnnr1SCbjrziXIzb2EoqIijB13A/7+9+dQBxv4jHsDNcVnUJH9lTBt0y/77h8DcDavBj8cq8CWXfUX/7RNCxUcnWxRXVbR6neAtDolHNTCcppKodcYX04Le6idgMqylpch02iVCtjptKiVDi61ChXcnHRCciwkuybEtun6jR3PvYCls+dgzQeb4FTV2tGAQUfbetN2vXz5n/DMM0/rH9+x6E5s+/ZrXMorhOew53D1p6ehrSkTEn1DG371ET888WohKqrqUKoxsq0qNVwctSgrbd5+tUo1nOyqUFFRK4uZKW25KbbtntOdfaGvjLdN+2RnEscUB0eb1scKoQ/aO6uB8lLUoGv6k/jBt1LhiP4z7sfImg/x2qcnhLajgNYzA7fdHoZDL76Fk7bOUFQI29CkbbTnPcKadWUfFKUPTzN5PGqqJ/qbKcdqNTXGfybWd+K7qC05i6rLe1Ce9aE0txGOaVanO8ewtljK+NRdYy3P5JPFemvdm6iorIC3jw/+7//+qx80dHW1KD+7GUU/PH49wRd9uk+Dx9cUmJXgi5SoQ1V5ZZs3+RDP1FRXVLX6hqREFSrLW1+GTKMUjlAbv6ErdUKSW6Y1ObZN17ckuZcu4cbJU5A2dBgCAgNxOe+yfr5K7Qe3lIfg4D9MXxa5OCrx+1vcccOARr8B1FidRoiL8far1GqE/tN8EDWlLTfFtt1zrLkvWCNxTGlzrBD6YE15WZcl+HouwzDndw9jbMBF7NphSPAbqKCyEdqFRtgGI22jPe8R1ox9sHXGjtVaornwmf74zWiCL+KYZnXYf3qOYsSIEeZ/dEjUBTIyMrrs7ApRvcaf/MZ6+0lzu07Tdm1ra4eRI0fCyckZu3btwLVr16BQ2sEp8haUndogLWWweJIb1n5RLJWIOld39wVL0RfGGq3SSUi6nFFRkIeKuoYDZPF3qANDnFB+IRulst/2o55Sfya/t/RBHquRpeirY5ipeLm+iRgPua6ooysvoSSq192Xd7Fdk6Vq2hd4uT5R9+vtl+sT9ZTuPp4TdUYdvFyfiIiIiIiIiMzCM/kmYjzkuqIO8dNh8dM4oq7GM/lEPJNPZAl4Jp+ofXgmv/XtYJJvIsZDrivqEAcOou7CJJ/6Oib5RD2PST5R+zDJb307mOSbiPGQ64o6yu15EyDqXkzyqS9jkk/U85jkE7UPk/zWt4PfySeLIXZQcyfxbprG5pszhahdjM43Z7KUOhgP+dRWPIiIROKvXkRHxbQ5BQYFSWsQERFZLib5RETdTKGyh51X8vWpXz8mFEQ9RaFQ4r77HoCHuydUKhtMmzYd8QmJiIqObjbNmzMf6emjpDWJSMQxjcjyMMknIupOQkLhOexZ2PiOBtxT4JbyEEL6xTGhIOohnl6eyDp7FocOH0JWVhayc7Lxzbdf47PPtjab1q17E8lJydKaclqVG/wjU5EyaAjiwjxhozNcLaS19UNkQiw8VS1fPaR1CEPqyKHwszXtCiOtTgn38AHoH+wuzTHQ6tTwjRmAKD+1NEfOlG0hMgvHNCKLxCSfiKgbqRx9UVejQda+13Hx4GbUaK5g564dJicUWnggOCEFAc6dc5BuSnJheM0BiNdPyYgKC4BTJyYJrW2DVuGJkIQk+DoyKaGuYaNUobq6Siq1rqa2Bkph+WY8UjDltnsxe9IYJCZnYMzM3+C2WUPhrhDarUss0sanI8xRWtYYlxBEx8UjwEUqt0Gp0AL+QzBu0jD4o1HfcElGxuQbEOpYKc1owpRtIT2tToGw4aGIbud7bUfX7y04pjXHMY0sAZN8IqJupFDYQFdXLZVaZzShUIZiwPjJiPeRyh1lSnKhf80pSB82AgMGZyB96l24ffFcxLp20kFKq9sQjJTx4xAjP2Fp9Zhg9B5anRtSJ0xBcNn3eHfNP/HWa3/Hqxt2oCxkIm4Y4CEt1UCrUMMzOAEJKakI81YD4hn/a6ewf88unC8Wnrf1Q0R8JLzcQhAlJCChnkJGrnCCT0QKEuIj4ColI0VHjyDfqT9ighpuWuseGw9fzTGcOFdn/HUaMbxONDzqkxu3foiLDYKDsJxWp4JLQH/EJ6cg3Mep2bp9gVJph9ixEUj0FksN+y/2LTs7qSDQih/kiFM9/WNdi+tbG45pRnBM4xhmAZjkExFZqOLiEnz40Rap1Db9gXmgcGCelIwwH2fZgblWZw/3kCQkJCch0NUbgfHx8BHPJBhJLjxdAhAWPxBxYd7XLzkGanHmmxew/o0X8NpLr+OX2likD4lsSEjcwxArJBP+DlKCYGQ7nAOTERfuJRwDG8padRBi4mPgVZZ5fRv08+u3NSkRwcLqdQ27Yai7SfJhbBt6OyYYvYiH0K4DinHku50oqFFAKeTcVfnf45svtuNChQOUjcKvVQYgbd5vMX/6OCQmjMKkBUswLlJI4l1iMWxCBsLFM+z6xzMx85Y5SBs8HlMW3o5ps+/CjIzhGDhmAebPHAInsQ+VHMGpXDUi4yIM/UDnjujYQJSeOoJsZaDx12ms8WsKlEFDcUNGCjyE/hc6eikWzJmGQaljMHnBbzBroJCBSf22r4ifPRhjgxyRdlc6Fo9wEOIL+I9MxvK/jsIjfxiDpx+LQ7yQgNhFJWDlyjgEC31Pq3LHgmcyMD1E0Wx94pjWl8Y0jmE9j0k+EZGFcVUr8bel3nj5IR/86oZyONi1/fOS4kFE2FjhwHz2JCQnjcT4+b/GLcOChQRDPEBRI3rSUv0Bf5JwwD9l/mJMnTABseKZBGPJxdzbkDE4HRk3/Qq3jAi8fkBzXe0l5F6pgYOLG1TO0jpz5mN4agIC1C1vR613EsZOHoVQaeTxTJyCCWnhsHGIu74NWp3j/2/vPqCbuPM8gH8lWXI37hXjDu42BkJMMSUQCAkJ4ZaSBiFL9rak3L7su2Q3t6m77/beXm5z6Rt2E5IAm7Kb5LKQBAIhtNAh2OAGNsYFd4ObbKvejCxjRpaMDEYW8vfz3jxbGs/o75/00+//84zGSLrVPNb0PCxaMQ/CCEzE39Fq82ExhkhhnnSjY4NxAwkMwhhDI5qazbcFYqPfUroXh4vqhEms+U6Ruxu6qw7i6/dfwd82voFdZ72ROCHOyhxWgZq9r+GD9etwqCkU4xSHsendN7FxWyEwdgJilOJjdKCo+Cw8EtKE51/YJCADSSEXUFpYOYTHsSI4F7OygfyP/oT33vtfrN9RhZDps5AwymaMJ/9+EDuqu3Dg7b1Y/32PEJdYrL5Ths0v7sLvnt2JNwqDsfruIGhKCvHRmXCsnO+NsbenIf5oPjZXGgduP4qxpo2+msYaNvLY5BMROZmlM32x83gXHv6fepwo1+D2qXZUeGFinpepRPFnr+LDTW/ig6/Pwv+m+UgXTxcMm4ZpKUYU/ENY97c3sPFgPYQewQYVGg68JkzuX8E/DrcgKCUDoab7ZVB6B8DPLxAhsdORNs4NzbXV0JvmagrU7nkF69dvwFHZNJvjUBcVoMotEQkxCqHgByAxMQwXin9A/eXzvdBpyE0Vxvrpq9i0SRjrkUa496230XwkmipZ/xiONV95Auns2GDcQHq6oZUpobTyUf0B1PWoFV6f0bNX474f/xvmxCug9PC0ko/NaDjfIzTy7ejsALQXmtElk0HX2ga1kKMq996f6ioWcko1AeNj5AhKTkVQ00mUNAgr7H6cgdwiI+Fv9BEak7W4f9VPsXRyFOSKEAQO/OTBqKJKCUaUGohbMB533T0eUwL0UMYL74dCc3Lyk0I0z8jFo9kt2PD5RRiF54r6saaNvprGGjby2OQTETmQ0dADTfMP8FJqoJAbzPdKeapk6OjqXdeuNth11MNdnJhrKlBeozPd7i4vxXlEICxMBvewMPh1VeBsnd60rrO8DE2m76xpwPlKtelIZGNTA4weXui9TrcbEuc9ilUP/QIrFk+FR8VX2HZE7CZEzairEWa/wsR2sHFAcwol5XLEjU+A3D8NicF1KC6sN/1cH/fwcIzpFsZaqzeNobO8XNh7L1VEhPXmw09c2z8GV3TFBmMmG4wR01yPJmMEYuPN570LDEZfpC76KVbOSpScri+PXYAlt2bBt+UUjnz7CXaXCh28DZYHG63SFJpyKj45Fynjg1FffAIXheffrscR9m8UGgm5W+9NLyHXRQatTnjsJpw+tAsH9wvL91/jmy3bUWZ7qKOCXHhDMnZ3o6a6HefFpfAsNn5aj07zepmbm3gCxajDmsaaZg/WMMdjk09E5EAqdGBumh5r7luC1HhfGLvqzGv6fbavHQ/M98MLDwZj8TRvfHVIqIxXoNdqYXTzgGff0USVO9xlGmg0Rmg1PTC4+8Kv73NwPn7mSY51l5oLSZOhRenX/411b/0Rf37tJXz89TG09B7yMOnbZrBxyGV6lBWXQBaXjIyUZATWFaDoovnnzEzbK73h3be9pxf6TtQz6Gw0H+bw2NUU3aDYYFw/nWo1oqPH2fX6iRQm/OLPS3SdwKET3YifsxLTUuMQGp6EjNl3IzdRhbryCsnp+gpvL6h0TThXXIoGTThixQ/oXoO+nML42cj0r0ZJ8QXT/XY9TlsL2gwhGD85A2NjJ2FGVu//MDdUnUa1cH9EkBGtDXXoCZmCvMlj4aY1rR5FjNDpVfDx730Cu0ta0BDmAV1+LY4eqcMptSeiPfVQG+XIWJGGsO/34/UC8eikv+lUbsvtXRVrGmuaPVjDHI9NPhGRA61a9SDa29tQWlqCtQ/9BNqKj81r+tW16PHIqw2IDlHgMeFrS3vv0Yp+cnj6RyE0LNK8BEJxrlSYmMchbXIc/HwCETdlIsK6ylAhzLcM54pwThuHiXOmIillGubNSsPVfMRP36NGj1Ck9bA9adVVig2C9XGY1pefwBlDCnJzQlFVlG86Bflyuqoy1CIGqTkx8PUJRvLECehrT3RVZ6w3H70HWFzMEBuMfaOzwRgOHR3tKD1diief/Hf8+te/RlpqGp745a/w3LMvDFgWLFiEL7/cbN6yl/jv7M7v2YAvi3RImHUPlq9ciZnjFSjb/jfsrpR2xtqSvTjUFI6Zqx7HfXflQCU89rXSleejrFuYzlUVoMR8tN2ux9EV4uDeCnikLMEdC6ZAV1/V2wN1HMfObQVQpC/FijU/x20TZCg9dBANxtH1WhIbuIJ9DUhcPRc/n+spvDGX473NCix5MQ9PPj0DTy0PQPO5TqiSU7AioQ4bt7Ti9OcncSYnE3fEiRdgtNjeRbGmsaZZxxo20mTZ2dlO/XciLy8vqC3/aj6KMR5SjIcU4yHlDPFYuHAh9u4/aL4FPP30M/j9718wfb961Rrs2Lkdy5ffJ0wepMch3vrzG/j9/Ub8+q/N6OrRo13d+1ZtkGfhrkcXI+ayiYTRWIpvXv4QtUm3YeEtOQjzVEDXXoFjW/+BQ9W9v78q/CbMnJGDSF8jLp6pg2piLOo/eRm7e2bh/geSUPTXv+Coqv/74x0yGBKX4pFbDdj8ZjmyHrsN6i/+gB1npQXXEJgn3UYY5pikhTbHIa6PnPUo/iWzAd/8+UOUaoVtLtvH0XYZAlLvwu1z0hGgBLpqqtEd5Y/Kj4WxnpeZ9r1grrhvGTRtNSjc9RH2XJwiGYOrCJqejUeXBKLhq/14bUc3xt0yET9e4I3uNiM8lWrsePMo9o9JwzMPGPCXZ4pQ4RaI+59PR8fbe/BFhXT7N77tMu+1X1FtJR5eugzrPv0E0V6+o+b9wzInh5MBCnh4ukGj7rZ5mq1BmNS6i/ne2Q7tIM3FtbL7ceQKKAy6AY2OuL2Hl3LQ32U0MMhlUBkN0Jn/yGGQKTDG2yg0tkKjakdcLLe3NCN36qUcvBGwprGm2cvRNexG4ahaKxsXE9+bZRYCA/zQcqHNfOvqDMc+xkaFo7pm4Kk/Q+EsvwvjIcV4SDEeUq4Sj3vvWS6ZED20Zi1qa8+jpaUFc+begpde+iO0Wuv/Y/jj30agvE6LA4Vd+Hxf30ltgxObDE9vYWLe0XXpc20GeQAmTM2EoWCX6XO18rg7sebOEBx/5y84JkxArgdr4xgKA9zh5Q10dwxsMEZT83E9G4zLJ0jePcZR8/5hmZNEI6mvyRdzcKhGIt9Y01jThsKRNexKnKU+OarW8nR9IiIH+mDD++jq7kJwSAjeeut1m5Mh0ZeH1HhqXZPdkyGRHHr0dHZbTEIU8AjNwYI1v8L9qx7D2sXp0JYcQNG11alBWR+H/eToQXdnj9VJgHh6tKbL+jpXIzcYJZMbuVGP9g6D3b+75fZERMOJNc0+o7WmsYaNHDb5REQOJE6AvvtuJ7Zs+ScuXrS4Qo+F9Vtbzd9dG7mhCSc+fwXvbPw79h/5Fts+fh0bvjo54LODREREQ8GaRuSc2OQTEY0C4kWgulsqUFZ4EhV1rTBwMkRERDco1jSiwbHJJyIiIiIiInIRvPCenRgPKcZDivGQYjz68SJf5KxG84X3iJzJjXzhPaKRwgvvDT4ONvl2YjykGA8pxkOK8ejHCRE5K15dn2jk3ehX1ycaKWzyBx8HT9cnIiIiIiIichFs8omIiIiIiIhcBJt8IiIHkyncoQrKvLTExY1HUuLAJTIqyrwFEV1PSqXKag5aLsxJooFY04icD5t8IiJHkskRePN/wS10FuCfhTFZv0R0XDISk5IGLCuWrcSMGTPNGxLR9SATcvKRRx5DgH8gFAo33HHHYqSmpTMniezBmkbklNjkExE5kMIzFHqtGmcPvYuqHz6DVt2Ivfv24KuvtgxYNmx4H5kZmeYtexkQgLFpWYj0Nd9h5hOZhdRof/MtIrJXYFAgzpaX40T+CZw9exbVNdX4duf2IedkhM/ACz8ZZIGITstAqOfQL6pGV88gd0dkpAowMu7X2/DUtIlINS2ZSIyJgLdi+J43g0cMsqffhDDl8OSntXxXBI43jd2yLhONJDb5REQOJJO5wajXmG8NTqvTQi5XmG+Zycdh4rzFWLwoF/7on2QEpd+KOVnR5lt0ozMYZYjJHYckK42jPa51+9HETcgxjabHfGtwtnNyIVJDzLclxiJr3lyM59/fHCs+Dg+vjRGibxtzZHgMT01bhBk3T8PEyXmYcftDeODB5ZjgN0zPi280kpJTEWG1Ab+K/DSN91YkB5tv++dg0Y+WYXKMAa3tfC31YQ0beWzyiYicVGtrG/7vi8/Nty5nhCJsNuZPCb10pMpoNJi+igwyLwSOTUNaVjZigr1MP2NQhiE+NQFBY6KRmJaJcYGewuzMGyHxWUhLjYffZUdODEYFfCNSkJqZhdgQbx4NGwFyuQoT5sQj3TSRvPy5kUGlMt8QGGTCOnHpY/reaHN7uja2c7KfwegO/+gMpGWkY6wPoGf4He90EZ5/sRTVMpnwfPTniEIpF77t/d7eHOtjEPblrhTXG4XG1nyn2YC8ND+mQfji4a249Jijne380aHs29ew8b3X8M6f38VJ3QTMmJLQX7f8YzBBqGfhHmJMhfoUKdSnjEzEhAgJZo6tT2QmkmODLsXa4BWF8anjEdRRiqP79+Fcq+luYXvb+Wmt9lmOIUIYg/CTMOiEL94pmL/0NoQ0bMUXXxWgE+LrbeA+bI0tcBjPWHA2rGEjj00+EZGT8fOS4w8PB+PtX4bgJ7d0wkNlMaNEO0qPn4HfzXdjSmjvURFxMmn6Ko/A1BW/wMrFc5GeNhML7lmLuQlCQ+87ATfPX4IlP1qGqZPnYdG9D+COpQ/hzrxc5My+ByuXTIG3OKERJkDjZj2Me5bdgUnZs7Hwnp/h7pwQ00SFHCd16WTMifLE1Idm4MFpHqbnN3x6Jp7+z5n41W9m44Unk5HqY4QqMQ3PP5+MsWJDofDHPb/Pw+Jo2YDt6dpcOSd7GYyeSLr1YVP+ZaTnYdGKeYg0ryMHihqPZ3+TgDHi+5bw/XP/kYXlT8zEb16Yh5f/kI3JAUa7c0xsSqLnTcIL/5WHXz09E08sz8QTf0xFrNB42NrG9Pi/nYg1z8zF0w9HI9Q8rNHK3vwx0Z1HbaMWHr5joPAx161lK5GbnYYIL3fEzBHq09IFyMyYjnkrf4of3TwWcuF51gVnYM7CmRhn7mwC0xdh/tRYuHkkC/vIQ6xQBgfLT5u1z2IMkV6mn4ZBFYvpdy9BbMcufPHPw7govE5s7UMXZGNs4h8KXBRr2Mhjk09E5GSWzvTFzuNdePh/6nGiXIPbp3qb1/SRo+v0FnxX5o3JC+YgVC4UR735SL67G7qrDuLr91/B3za+gV1nvZE4Ic78h3AFava+hg/Wr8OhplCMUxzGpnffxMZthcDYCYhRCj8SnItZ2UD+R3/Ce+/9L9bvqELI9FlIYLVwqJN/P4gd1V048PZerP++R3heYrH6Thk2v7gLv3t2J94oDMbqu4OgKSnER2fCsXK+N8benob4o/nYXGkcuD1dkyvnpFnoNOSmGlHw6avYtOkNbDzSCPdB+hlykBgftL6/B88/9Q3eLgnGHXP97M4xhMdh9UIdPn32O7z47B58pPNHknm3NrcR32+FBuX8Wzvx25crUG956H+UuXL+yKD0DoCfXyBCYqcjbZwbmmuroTeFTYHaPa9g/foNOCqbhrxMJYo/exUfbnoTH3x9Fv43zUe6L6AuKkCVWyISYhRCQxmAxMQwXCj+QYi96QF6DZafNmpfoqn2XTaGFnEDFeLnLEN2YDOObduDpt6B2txHZEm+lbEdR4MLvy5Yw0aeIi4u5jlPT3dYLiJr9w9lGY59KJVKuLnJra6zdxmOcTjLPhgP6cJ4SBfGQ7o4QzwSExNRWV1j2o9I5ibsU66C5kIxDMLEJjB+Nnrq9sKo7zb/BIRJiCeqGnWmJTpECT9vOQrO9n7m0SgLR/LUePQU7saxUy0IzFmADO8KVMqSkaw6i0OnzsHoHY3EnFmYPvMWJIep4KauwPEKFdKzPHFu92HUaTTwi81DdMdhHCxvgV4RhdSMQDTnH0dz9DTMiA2GT1Q6MrImIyUqCB5eKlwsPYLzXa47IXE2RsiRMHMcVPkVKG4TJsCTErEs2oALPn6YkBKEKH9PJMQbcXRXMypOq5F8/2QsCm3AO+uqTEeULLe3pqmjFZNS0nCsqBDhfn6j5v3DMieVKhW8PL1RU1MNmVyG5ORknCk7A01P/8TyyjmZCG3JXtQETsP0iDrs/64EHcIEXqP2RcLESLSfOoDKDuaPoxh9gzBnohEHdl9At5/wfWInPt/SjG7hKWhU+eOuGDW2Huu2K8fy2wIw31iNDQc7hTdwGVrbPTAlV44ftjWic1KS1W2OHJXh5sQOfPal+JiDP+/josdeykFrr9fBFpG1+4eyDHUf16empSA+YSqyJt6EtKRQaMq345u9Z6D2iEWmULcqdh9ErUYGVaKQX1ENOLCzCG3CY2lb3RAxZRI8a/eirLEJQkeN7IB6/NAch7xpHijZvhvn5eI+gtB0/BhahPpmKz9rQ63XvgsVjQia0D+GvvEGa6pQ2RaB8eO6caaoBj3iHyoScq3vo+hrnPedjizJ2Pagtsd13xNGooZZe71evois3T+UZTj24ahaq1C5ez3X1d0Dy0Vc2XKhbcD9Q1mGYx9+fj6ob2i2us7exVl+F8ZDujAe0oXxkC6uEo+MjDTJhMhDacTcqXGYkpMBdXstdB7x0DT9IJkQVTdp8fjSANyU7InsRHes2yI8vsZ0KN48wUiApvh7VF5oQdUFP2TNmopQuRI+mnIc0UzGvbcnQ1t2FAUFh1EtS0Cc8hyOmJr8IDQeOyY0+TIEj89DjP4UjglNvtE7HlkZY9Bw7DjqfFMwOV6HU3v2obTyHGqqy1BeehrnG1vQ1Xe0gq47ywmOW2wU5kd0Yu+JNrS3adDeeBEFJy+gpr4HWqU3Js2JQiRacXBXI1qvYoKk7xg97x+WOSkTJvtp6cKkPD0DDY11iI2JHdDkXzkne5v8cpmQP0kqVB09hRbxefBPxpT0EFxgk+9QA5r8LAO+F77vEZ5rQ0QEFoa3DWjybeVYnXswbonowLYjHcJzLTynQaFYcJMMR4UmvyN2rPW8VPtgZrYB+82POZi+Jl/MQWuv18GWkci361PT4tGw9U/4dPs+HP5+N06eqUOXmD+eMaYGva9uITAZkxPdUNmXXx7jkDEpGh2nhHrYZsRFfTByJgVBq49FsqIA3xythtarv8mv9RkkP1U2al+nL5LS+8fQl+/N29/Cl8c7EX3zrUhRlqOoqk14bVjfR21TE85rQjGpb2zyfGFsNdBd4bVxIxuJGmbt9Xr54iz1yVG1lidgEhE50KpVD6K9vQ2lpSVY+9BPoK342LymX12LHo+82oDoEAUeE762tOvNa/r1zQ16zm7FjpNAWJjpg4JQeHtBpWvCueJSNGjCESteWWgIdFVnUG0IQUSQEa0NdegJmYK8yWPhpjX/ADmIETq9Cj7+vU90d0kLGsI8oMuvxdEjdTil9kS0px5qoxwZK9IQtm8/Xi8QT3/0N30+1XJ7su3ynPyxkJO7du8yr+lnT06KdFVlqEUMUnNi4OsTjOSJEzC0DCTHsS/HWgsbUTU+GjMj5DDIVMjKC0WgaQvb23QJ63pbWNc3XDVN36NGT3c39LD9nqWrPC3UpzikTY6Dn08g4qZMRFhXGSrqzOvLT+CMIQW5OaGoKspHl0UTPVh+2qx9Vj83b4BWJ/wObcewdUcJvKb8CLPjvQatn7qz+SgzjS1EGFvBgLG5HtawkcYmn4jIgYKDQ7BbaCLyC06YTg8O9JPh3x75Vzz37AuSJTgkzHShmmB/N/h6WRY5Bfr+C5FcpkPV7i9QcLF3SikeTTzUFI6Zqx7HfXflQNXRbrrfbh3HsXNbARTpS7Fizc9x2wQZSg8dRIORhdaR5DI9CvY1IHH1XPx8rqcwSy7He5sVWPJiHp58egaeWh6A5nOdUCWnYEVCHTZuacXpz0/iTE4m7oiTDdyebLLMSaVKiZ/99BdDzEmzjqP4dkcpvG96AKt+/K+Y4dOOC+ZV5FzszTE0V+Cd99uR/pM8vPjCJGRV1qHUvA+b24yit8vhqWl26vxBqE/5UGbfi1Vrf4Hbkrpx7KttOKc1789YgeKSLijlZSgpVvfed7nB8tNG7avvLa02qUs3Y+sJHZJvvRupskHqp6Ecxac1prEVl1gZm4thDRt5snEx8VZfvoEBfqbTAK7FcOxjbFQ4qmvMf6K7Ss7yuzAeUoyHFOMh5SrxuPee5di7/6D5FvDQmrWorT2PlpYWzJl7C1566Y/Qaq3/j+GPfxuB8jotDhR24fN9wsTRTgajHO4+XsKEqB3aq5xtivvw8FJCo+7uP22AHM4gl0FlNEBn/iOLQabAGG8j2sUjYXY8L5bbX66othIPL12GdZ9+Au8e46h5/3BEThrgDi9voLuD+ePsrpRjYmMaFOqBiw1dptP1ZUmp+M8HdHjpmRI0mt9fh5qXl5uRO/VSDg7VSOTbSNQ0SwYo4Okt1KeO3udkqAbLz+GofZb7EF9DcpknUu58FNO1/4d3viwWXjNXt+8bjSNr2JU4S31yVK3lkXwiIgf6YMP76OruQnBICN5663WbkyHRl4fUeGpd05AnQ3KZAdrOjqtu8EXiPjRdPVc9yaHhIRdmh5dPbuRGPdo7DHY/L5bb00DXIyfl6EF3J/PnRnDFHFOOQd7PcvHUz9Jw17JMPL4mAnW7qi81+KKh5qUrcURNsySHHj2d3VfV4IsGy8/hqH0D9uF7M5Y9/gTmRFRh357R0+CLWMNGDpt8IiIHEidA3323E1u2/BMXL14032vd+q2t5u+I6HphTtJg5LpWfPa7PfjrjibUnW/AN6/twsvbr61JdSXMHzuoC7Djw3V49y+bUMQLcJKDsMknIiIiIrJBbtCh4XQDDu6rw6nzulF5xJ6untzQiZb6ev6HGnIoNvlERERERERELoIX3rMT4yHFeEgxHlKMRz/xIkXiRWGInNFovfAec5KcxVAuHGZpJPKN+UPOhBfes41Nvp0YDynGQ4rxkGI8+okTIiJnNhqbfCJncqM1+UTOhE2+dWzy7cR4SDEeUoyHFOPRr9Odn8Ej5zeamnzmJDmjG6XJZ/6QM2KTPxCbfDsxHlKMhxTjIcV4SDEeUoyHFOMh5Qz7YCykGA8pxkOK8ZBiPKQYDylHxYMX3iMiIiIiIiJyEWzyiYiIiIiIiFwEm3wiIiIiIiIiFyHLzs4e+pU+HMjLywtqtdp8ixgPKcZDivGQYjykGA8pxkOK8ejHWEgxHlKMhxTjIcV4SDEeUo6KBy+8ZyfGQ4rxkGI8pBgPKcZDivGQYjyknGEfjIUU4yHFeEgxHlKMhxTjIeWoePB0fSIiIiIiIiIXwSafiIiIiIiIyEWwySciIiIiIiJyEWzyiYiIiIiIiFwEm3wiIiIiIiIiF8Emn4iIiIiIiMhFsMknIiIiIiIichFs8omIiIiIiIhcBJt8IiIiIiIiIhfBJp+IiIiIiIjIRbDJJyIiIiIiInIRbPKJiIiIiIiIXALw//N7JT3djWlvAAAAAElFTkSuQmCC;" vertex="1" parent="1">
          <mxGeometry x="766" y="1500" width="1017" height="841" as="geometry" />
        </mxCell>
        <mxCell id="IHwOswf_s_p_pypsUOWP-183" value="&lt;b style=&quot;font-size: 20px;&quot;&gt;AspNet EntityFramework Identity Schemas&lt;/b&gt;" style="text;html=1;align=center;verticalAlign=middle;resizable=0;points=[];autosize=1;strokeColor=none;fillColor=none;fontSize=20;" vertex="1" parent="1">
          <mxGeometry x="766" y="1500" width="430" height="40" as="geometry" />
        </mxCell>
        <mxCell id="IHwOswf_s_p_pypsUOWP-184" value="Order" style="whiteSpace=wrap;html=1;align=center;" vertex="1" parent="1">
          <mxGeometry x="310" y="510" width="100" height="40" as="geometry" />
        </mxCell>
        <mxCell id="IHwOswf_s_p_pypsUOWP-198" value="OrderItem" style="whiteSpace=wrap;html=1;align=center;" vertex="1" parent="1">
          <mxGeometry x="310" y="440" width="100" height="40" as="geometry" />
        </mxCell>
        <mxCell id="IHwOswf_s_p_pypsUOWP-199" value="Claims (Asp.Net)" style="whiteSpace=wrap;html=1;align=center;" vertex="1" parent="1">
          <mxGeometry x="590" y="440" width="100" height="40" as="geometry" />
        </mxCell>
        <mxCell id="IHwOswf_s_p_pypsUOWP-200" value="Roles (Asp.Net)" style="whiteSpace=wrap;html=1;align=center;" vertex="1" parent="1">
          <mxGeometry x="450" y="440" width="100" height="40" as="geometry" />
        </mxCell>
      </root>
    </mxGraphModel>
  </diagram>
</mxfile>
